<svg width="586" height="475" viewBox="0 0 586 475" fill="none" xmlns="http://www.w3.org/2000/svg">
<g clip-path="url(#clip0_537_12118)">
<path d="M586 416.083H-44.8047V416.396H586V416.083Z" fill="#ECECEC"/>
<path d="M522.796 436.374H495.445V436.687H522.796V436.374Z" fill="#ECECEC"/>
<path d="M390.032 429.832H347V430.147H390.032V429.832Z" fill="#ECECEC"/>
<path d="M511.704 424.666H455.531V424.981H511.704V424.666Z" fill="#ECECEC"/>
<path d="M173.469 431.022H159.418V431.337H173.469V431.022Z" fill="#ECECEC"/>
<path d="M148.19 431.022H99.7578V431.337H148.19V431.022Z" fill="#ECECEC"/>
<path d="M73.7931 425.699H38.8516V426.013H73.7931V425.699Z" fill="#ECECEC"/>
<path d="M115.769 240.92C79.4627 239.677 51.0323 209.253 52.2763 172.974C53.5215 136.652 83.9692 108.246 120.276 109.488C156.584 110.732 185.013 141.152 183.768 177.476C182.524 213.755 152.076 242.163 115.769 240.92ZM227.795 187.254L228.364 170.688L218.186 167.365C217.767 161.705 216.82 156.117 215.472 150.73L224.099 144.374L218.239 128.814L207.567 129.673C205.024 124.642 202.034 119.857 198.685 115.365L204.213 106.147L192.847 94.0315L183.307 98.9126C179.01 95.2632 174.481 91.9578 169.632 89.0357L171.178 78.4541L156.041 71.59L149.106 79.7109C143.822 77.999 138.347 76.7169 132.684 75.8673L130.105 65.4949L113.482 64.9264L110.199 75.0971C104.491 75.5572 98.9419 76.4623 93.5523 77.8086L87.1459 69.2314L71.5751 75.0441L72.4355 85.7089C67.3992 88.2919 62.6101 91.2783 58.1162 94.6253L48.933 89.1038L36.7648 100.414L41.6485 109.99C37.9986 114.24 34.6894 118.811 31.8066 123.656L21.2192 122.07L14.3069 137.191L22.4783 144.123C20.765 149.403 19.4366 154.916 18.6304 160.533L8.20444 163.151L7.63672 179.717L17.8583 183.044C18.2759 188.745 19.2259 194.293 20.5733 199.676L11.9476 206.032L17.8078 221.595L28.4785 220.732C31.0219 225.765 34.0107 230.55 37.3602 235.042L31.8319 244.259L43.1977 256.378L52.7367 251.495C56.9909 255.142 61.5642 258.45 66.4126 261.373L64.823 271.95L79.9598 278.815L86.939 270.694C92.2226 272.409 97.6967 273.69 103.361 274.539L105.939 284.91L122.562 285.481L125.846 275.308C131.553 274.848 137.103 273.944 142.491 272.597L148.855 281.174L164.426 275.36L163.608 264.7C168.647 262.116 173.392 259.127 177.929 255.78L187.112 261.304L199.28 249.993L194.397 240.418C198.046 236.166 201.357 231.596 204.238 226.751L214.826 228.339L221.738 213.214L213.567 206.283C215.28 201.005 216.607 195.535 217.413 189.875L227.795 187.254Z" fill="#ECECEC"/>
<path d="M481.717 108.357C478.641 105.066 478.818 99.9047 482.112 96.8301C485.411 93.7529 490.576 93.9306 493.652 97.2221C496.727 100.514 496.551 105.675 493.253 108.752C489.958 111.826 484.793 111.649 481.717 108.357ZM511.511 132.474L515.692 128.572L514.022 125.283C515.301 123.801 516.434 122.206 517.419 120.566L521.074 121.117L523.442 115.894L520.63 113.506C521.238 111.659 521.677 109.763 521.956 107.852L525.554 106.952L525.739 101.227L522.222 100.093C522.064 98.1562 521.767 96.2477 521.297 94.353L524.257 92.1494L522.241 86.788L518.567 87.0779C517.697 85.3736 516.675 83.726 515.501 82.1388L517.404 78.981L513.489 74.792L510.206 76.4736C508.701 75.1941 507.128 74.0633 505.485 73.0788L506.017 69.4255L500.801 67.048L498.408 69.8592C496.549 69.2616 494.653 68.8242 492.741 68.5443L491.849 64.9604L486.121 64.7537L484.975 68.2783C483.048 68.4258 481.126 68.7334 479.24 69.2125L477.046 66.2475L471.671 68.2506L471.971 71.9304C470.265 72.8014 468.596 73.8213 467.028 74.9949L463.847 73.0926L459.666 76.9943L461.347 80.2958C460.057 81.7884 458.935 83.373 457.949 85.013L454.296 84.4609L451.926 89.6836L454.738 92.0738C454.132 93.9206 453.691 95.8165 453.412 97.7264L449.816 98.6277L449.629 104.352L453.148 105.485C453.294 107.412 453.602 109.332 454.071 111.226L451.102 113.419L453.119 118.781L456.801 118.501C457.672 120.206 458.694 121.852 459.868 123.439L457.966 126.597L461.879 130.786L465.163 129.106C466.667 130.384 468.24 131.516 469.884 132.499L469.342 136.141L474.557 138.519L476.959 135.72C478.819 136.318 480.705 136.745 482.629 137.034L483.52 140.619L489.247 140.824L490.393 137.3C492.321 137.153 494.243 136.846 496.128 136.366L498.322 139.332L503.699 137.329L503.397 133.648C505.103 132.778 506.762 131.767 508.34 130.584L511.511 132.474Z" fill="#ECECEC"/>
<path d="M272.535 344.64C255.309 344.05 241.853 329.599 242.441 312.436C243.031 295.224 257.444 281.777 274.67 282.367C291.897 282.955 305.355 297.357 304.764 314.569C304.177 331.734 289.761 345.23 272.535 344.64ZM358.895 302.548L345.849 293.546C345.845 293.537 345.845 293.524 345.841 293.514C344.552 288.778 342.77 284.22 340.594 279.936L343.936 266.828L325.013 246.576L311.692 249.014C307.568 246.554 303.139 244.469 298.503 242.859C298.493 242.856 298.48 242.854 298.47 242.849L290.371 229.221L262.661 228.272L253.65 241.308C253.634 241.313 253.615 241.317 253.599 241.322C248.864 242.61 244.307 244.387 240.024 246.557L226.912 243.218L206.645 262.129L209.079 275.412C209.076 275.417 209.074 275.419 209.071 275.424C206.558 279.592 204.521 284.018 202.91 288.652L189.274 296.741L188.324 324.432L201.383 333.442C202.671 338.211 204.397 342.759 206.615 347.08C206.616 347.082 206.616 347.082 206.616 347.084L203.284 360.153L222.207 380.401L235.447 377.981C239.625 380.449 244.057 382.537 248.752 384.149C248.754 384.151 248.758 384.153 248.763 384.153L256.849 397.76L284.56 398.709L293.563 385.682C298.354 384.393 302.919 382.616 307.254 380.439C307.255 380.439 307.256 380.439 307.257 380.436L320.309 383.759L340.575 364.853L338.142 351.566C340.655 347.398 342.693 342.969 344.305 338.335C344.305 338.335 344.305 338.333 344.306 338.333L357.946 330.239L358.895 302.548Z" fill="#ECECEC"/>
<path d="M379.965 119.486C361.422 119.486 346.028 134.229 345.388 152.887C344.735 171.945 359.72 187.982 378.795 188.636C388.036 188.945 396.849 185.649 403.608 179.336C410.361 173.028 414.255 164.475 414.571 155.256C415.224 136.198 400.238 120.16 381.165 119.507C380.764 119.493 380.363 119.486 379.965 119.486ZM380.013 193.981C379.547 193.981 379.081 193.972 378.612 193.956C356.602 193.203 339.309 174.697 340.063 152.706C340.818 130.713 359.367 113.439 381.347 114.186C403.357 114.94 420.65 133.445 419.895 155.439C419.531 166.078 415.038 175.946 407.246 183.225C399.789 190.19 390.164 193.981 380.013 193.981ZM399.585 98.3668H399.597H399.585ZM368.318 217.888L387.254 218.536L393.525 209.462C393.883 208.944 394.415 208.569 395.025 208.405C398.512 207.468 401.974 206.142 405.312 204.464C405.319 204.462 405.325 204.459 405.33 204.455C405.886 204.183 406.535 204.097 407.169 204.262L416.05 206.523L429.897 193.603L428.241 184.559C428.124 183.921 428.245 183.263 428.579 182.706C430.406 179.677 431.955 176.354 433.185 172.83C433.387 172.205 433.815 171.679 434.372 171.353L443.862 165.72L444.512 146.798L435.423 140.527C434.949 140.2 434.593 139.726 434.41 139.179C434.387 139.111 434.367 139.039 434.348 138.966C433.398 135.489 432.077 132.073 430.42 128.812C430.127 128.236 430.055 127.575 430.214 126.95L432.49 118.027L419.558 104.187L410.489 105.847C409.853 105.963 409.198 105.845 408.644 105.514C405.49 103.634 402.16 102.079 398.746 100.893C398.553 100.826 398.357 100.737 398.189 100.635C397.821 100.408 397.514 100.096 397.295 99.7257L391.653 90.2345L372.716 89.5853L366.441 98.6668C366.067 99.2076 365.509 99.5896 364.873 99.7421C361.369 100.701 357.962 102.018 354.712 103.665C354.135 103.958 353.472 104.031 352.848 103.871L343.922 101.598L330.074 114.52L331.73 123.561C331.834 124.13 331.75 124.715 331.492 125.232C331.455 125.304 331.416 125.375 331.372 125.446C329.541 128.487 327.99 131.819 326.762 135.353C326.555 135.946 326.145 136.448 325.605 136.768L316.108 142.404L315.459 161.323L324.555 167.601C325.074 167.958 325.449 168.489 325.613 169.096C326.593 172.722 327.914 176.165 329.536 179.33C329.631 179.51 329.703 179.703 329.752 179.902C329.859 180.33 329.859 180.777 329.749 181.204L327.481 190.097L340.413 203.932L349.418 202.287C350.051 202.172 350.702 202.29 351.254 202.614C354.464 204.511 357.811 206.065 361.204 207.234C361.817 207.429 362.348 207.843 362.686 208.411L368.318 217.888ZM388.617 223.908C388.587 223.908 388.558 223.908 388.527 223.907L366.679 223.159C365.772 223.129 364.943 222.637 364.48 221.858L358.597 211.959C355.47 210.825 352.388 209.396 349.41 207.701L339.94 209.432C339.045 209.6 338.133 209.294 337.513 208.63L322.594 192.667C321.974 192.003 321.736 191.071 321.959 190.193L324.341 180.852C322.894 177.893 321.683 174.732 320.734 171.435L311.233 164.878C310.486 164.364 310.053 163.503 310.084 162.597L310.833 140.766C310.863 139.86 311.354 139.032 312.135 138.569L322.059 132.681C323.236 129.461 324.663 126.395 326.31 123.544L324.569 114.048C324.407 113.156 324.709 112.241 325.372 111.623L341.35 96.7141C342.014 96.0926 342.947 95.8569 343.827 96.08L353.207 98.4689C356.241 96.9939 359.394 95.7787 362.604 94.8496L369.161 85.3635C369.676 84.6172 370.522 84.1558 371.443 84.2151L393.29 84.9639C394.198 84.9954 395.026 85.4845 395.489 86.2648L401.385 96.1821C404.515 97.328 407.574 98.7538 410.501 100.433L420.032 98.6882C420.926 98.5256 421.838 98.8269 422.459 99.49L437.377 115.457C437.997 116.12 438.237 117.052 438.012 117.932L435.621 127.307C437.099 130.34 438.314 133.489 439.243 136.693L448.737 143.245C449.485 143.759 449.917 144.619 449.886 145.525L449.138 167.358C449.107 168.263 448.616 169.092 447.835 169.555L437.907 175.446C436.731 178.663 435.306 181.728 433.661 184.577L435.401 194.077C435.565 194.968 435.262 195.883 434.598 196.501L418.621 211.406C417.957 212.027 417.026 212.266 416.145 212.04L406.807 209.663C403.729 211.148 400.56 212.362 397.36 213.281L390.81 222.759C390.312 223.479 389.492 223.908 388.617 223.908Z" fill="#ECECEC"/>
<path d="M438.945 66.7961L429.895 64.3669L427.465 55.3245L431.009 51.7847L434.747 59.5211L442.489 63.255L438.945 66.7961Z" fill="#E1E1E1"/>
<path d="M439.508 60.743C441.157 59.0953 441.157 56.4102 439.508 54.7626C437.859 53.1162 435.184 53.1276 433.535 54.7752L438.037 48.0271L444.073 51.0765L445.397 57.4149L439.508 60.743Z" fill="#E1E1E1"/>
<path d="M442.335 57.9164C443.984 56.2688 443.984 53.5824 442.335 51.936C440.686 50.2884 438.011 50.301 436.363 51.9487C434.714 53.595 434.714 56.2574 436.363 57.9038C438.011 59.5514 440.686 59.564 442.335 57.9164ZM430.293 52.4983L436.924 45.8712L445.975 48.2992L448.405 57.3428L441.772 63.9699L432.723 61.5407L430.293 52.4983Z" fill="#F0F0F0"/>
<path d="M69.0223 308.059L73.8783 306.756L75.1828 301.904L73.2815 300.004L71.2756 304.154L67.1211 306.159L69.0223 308.059Z" fill="#E1E1E1"/>
<path d="M68.7189 304.812C67.8345 303.927 67.8345 302.486 68.7189 301.602C69.6033 300.719 71.039 300.725 71.9247 301.609L69.5087 297.988L66.2689 299.624L65.5586 303.026L68.7189 304.812Z" fill="#E1E1E1"/>
<path d="M67.1989 303.294C66.3145 302.41 66.3145 300.969 67.1989 300.086C68.0833 299.202 69.519 299.208 70.4046 300.092C71.289 300.976 71.289 302.404 70.4046 303.288C69.519 304.171 68.0833 304.178 67.1989 303.294ZM73.6608 300.387L70.1018 296.831L65.2459 298.133L63.9414 302.986L67.5004 306.543L72.3576 305.239L73.6608 300.387Z" fill="#F0F0F0"/>
<path d="M51.5333 42.011L55.5642 46.0386C56.6138 47.0875 58.3309 47.0875 59.3805 46.0386C60.4302 44.9898 60.4302 43.2741 59.3805 42.2253L55.3497 38.1989C54.3 37.15 52.583 37.15 51.5333 38.1989C50.4837 39.2477 50.4837 40.9634 51.5333 42.011Z" fill="#F0F0F0"/>
<path d="M48.6968 31.9791C51.8028 30.8659 55.1698 32.3238 56.2177 35.2381C57.2656 38.1524 55.5963 41.416 52.4911 42.5315C49.3851 43.6446 46.0181 42.1867 44.9706 39.2736C43.9227 36.3593 45.5916 33.0945 48.6968 31.9791Z" fill="#E1E1E1"/>
<path d="M44.8881 40.2185L44.3047 38.5946L56.2999 34.2933L56.8833 35.9172L44.8881 40.2185Z" fill="#F0F0F0"/>
<path d="M515.211 458.741C515.211 466.625 405.694 473.015 270.599 473.015C135.503 473.015 25.9865 466.625 25.9865 458.741C25.9865 450.857 135.503 444.467 270.599 444.467C405.694 444.467 515.211 450.857 515.211 458.741Z" fill="#F5F5F5"/>
<path d="M75.123 83.7712C75.9039 87.2051 77.1037 89.5259 78.7224 90.7348C80.3397 91.9463 82.2473 92.3005 84.445 91.8001C86.7046 91.2882 88.2866 90.1562 89.1899 88.4065C90.0945 86.6555 90.1134 83.8783 89.248 80.0738C88.52 76.8731 87.3417 74.6809 85.7129 73.4971C84.0855 72.3147 82.164 71.9743 79.9512 72.4773C77.8304 72.9589 76.2988 74.0959 75.3564 75.8873C74.4127 77.6799 74.3345 80.307 75.123 83.7712ZM64.5961 86.1121C63.3332 80.5616 63.8972 75.8885 66.2892 72.0903C68.68 68.2958 72.6389 65.7708 78.1647 64.5152C83.8281 63.2282 88.5377 63.7564 92.2935 66.0986C96.0493 68.4421 98.5498 72.3487 99.7963 77.8236C100.7 81.7996 100.773 85.2108 100.013 88.0573C99.2525 90.9063 97.7676 93.3254 95.5598 95.3147C93.3507 97.3052 90.3582 98.7271 86.5822 99.5856C82.7444 100.458 79.4289 100.569 76.6357 99.9197C73.8425 99.2692 71.3647 97.7993 69.1997 95.5088C67.0348 93.2195 65.5007 90.0881 64.5961 86.1121Z" fill="#374957"/>
<path d="M114.279 79.7801C114.779 81.9748 115.593 83.4977 116.723 84.3486C117.851 85.1982 119.09 85.4693 120.436 85.1642C121.797 84.8528 122.798 84.0813 123.436 82.8472C124.076 81.6118 124.135 79.8507 123.614 77.5627C123.128 75.4284 122.325 73.9384 121.205 73.095C120.086 72.2517 118.877 71.9781 117.576 72.2731C116.198 72.5858 115.181 73.3749 114.525 74.638C113.868 75.8999 113.786 77.6144 114.279 79.7801ZM104.812 81.9547C103.957 78.1968 104.522 74.812 106.506 71.7991C108.49 68.7863 111.641 66.7894 115.96 65.8099C120.896 64.688 124.951 65.2704 128.125 67.5597C130.676 69.404 132.337 72.0109 133.102 75.3818C133.965 79.1725 133.414 82.561 131.45 85.5525C129.485 88.5439 126.282 90.5445 121.84 91.553C117.879 92.4531 114.446 92.177 111.544 90.721C107.974 88.9133 105.731 85.9912 104.812 81.9547Z" fill="#374957"/>
<path d="M147.201 72.3248C147.644 74.2737 148.383 75.6264 149.417 76.384C150.453 77.1404 151.596 77.3761 152.85 77.0912C153.949 76.8416 154.768 76.181 155.304 75.107C155.842 74.0329 155.864 72.4143 155.371 70.2498C154.917 68.2543 154.196 66.8777 153.21 66.1175C152.223 65.3574 151.172 65.104 150.058 65.3574C148.852 65.6309 147.953 66.3331 147.362 67.4576C146.773 68.5846 146.719 70.2057 147.201 72.3248ZM142.648 96.0963L134.91 62.0899L143.755 60.0792L144.584 63.7211C145.458 61.9134 146.344 60.6238 147.242 59.8497C148.455 58.8097 149.897 58.1 151.568 57.7206C154.865 56.9705 157.701 57.6525 160.078 59.7628C162.455 61.8743 164.065 64.7863 164.91 68.4976C165.842 72.5958 165.571 75.9466 164.096 78.5497C162.621 81.1542 160.382 82.798 157.379 83.48C155.926 83.809 154.542 83.8632 153.23 83.6414C151.918 83.4182 150.679 82.9279 149.513 82.169L152.189 93.9293L142.648 96.0963Z" fill="#374957"/>
<path d="M168.958 73.0683L178.136 70.0554C178.776 71.0816 179.499 71.7548 180.305 72.0775C181.11 72.3977 182.094 72.4267 183.254 72.1632C184.522 71.8745 185.445 71.3816 186.017 70.682C186.468 70.1575 186.624 69.5953 186.488 68.9927C186.333 68.3133 185.858 67.8683 185.062 67.6603C184.492 67.514 183.063 67.4976 180.778 67.6098C177.367 67.7851 174.968 67.7725 173.58 67.5771C172.191 67.3779 170.929 66.8005 169.792 65.8412C168.654 64.8819 167.916 63.6578 167.578 62.1753C167.209 60.5529 167.363 59.049 168.039 57.6598C168.717 56.2718 169.817 55.0982 171.342 54.1427C172.866 53.1871 175.021 52.3942 177.807 51.7613C180.748 51.092 182.968 50.8247 184.472 50.9546C185.974 51.0857 187.302 51.5155 188.452 52.2454C189.603 52.9766 190.67 54.0758 191.656 55.5445L182.895 58.4615C182.484 57.7241 181.965 57.2324 181.339 56.9853C180.483 56.6576 179.529 56.6135 178.477 56.8542C177.409 57.0963 176.675 57.4619 176.273 57.951C175.872 58.4401 175.733 58.9557 175.855 59.4952C175.993 60.0978 176.405 60.4836 177.095 60.65C177.784 60.8201 179.193 60.7912 181.324 60.5668C184.546 60.21 186.996 60.1735 188.672 60.4584C190.348 60.7433 191.726 61.3811 192.806 62.3707C193.886 63.3603 194.585 64.5579 194.905 65.9635C195.228 67.3854 195.114 68.8654 194.561 70.4046C194.007 71.9426 192.897 73.3204 191.228 74.5369C189.56 75.7509 187.131 76.7216 183.943 77.4477C179.441 78.4701 176.086 78.5558 173.883 77.7074C171.679 76.8577 170.038 75.311 168.958 73.0683Z" fill="#374957"/>
<path d="M200.264 68.2216L209.929 68.1674L209.978 76.7056L200.313 76.761L200.264 68.2216ZM199.758 41.8898L210.114 41.8306L210.158 49.7775L208.25 65.7508L201.845 65.7861L199.803 49.8355L199.758 41.8898Z" fill="#374957"/>
<path d="M93.0447 120.277C92.8328 120.473 92.2184 121.267 91.339 124.338C90.1796 128.388 90.8937 132.082 92.2562 134.733C92.5186 134.186 92.6991 133.556 92.824 132.964C94.1335 126.775 93.7525 121.174 93.0447 120.277ZM101.354 124.248C101.028 124.861 100.481 126.12 99.6631 128.698C98.5807 132.112 98.5744 134.854 99.1774 136.953C99.2203 136.847 99.2594 136.741 99.2948 136.637C100.78 132.301 101.503 126.331 101.354 124.248ZM110.402 129.559C110.398 129.559 109.689 129.564 108.097 132.518C106.273 135.903 105.807 138.688 106.675 141.036C106.781 141.322 106.906 141.603 107.054 141.881C107.727 141.592 108.304 141.123 108.72 140.488C110.486 137.79 111.333 132.246 110.676 130.079C110.542 129.636 110.403 129.559 110.402 129.559ZM117.536 150.322C117.461 150.322 117.384 150.308 117.308 150.279C111.63 148.082 108.232 145.935 106.468 143.356C105.186 143.613 103.751 143.443 102.391 142.795C101.067 142.167 99.7956 141.069 98.8822 139.489C98.0306 140.146 96.9784 140.325 95.8228 139.962C94.541 139.56 93.2075 138.481 92.0985 136.923C91.3933 137.432 90.6704 137.509 90.1393 137.465C86.3885 137.16 81.3067 129.699 80.9421 121.749C80.9257 121.402 81.1944 121.106 81.5426 121.092C81.8833 121.062 82.1861 121.344 82.2025 121.692C82.5481 129.237 87.3864 135.976 90.2414 136.208C90.7045 136.253 91.093 136.108 91.4173 135.855C89.704 132.852 88.8146 128.567 90.1266 123.99C91.2116 120.202 92.1704 118.722 93.321 118.995C95.4948 119.536 95.2097 127.784 94.0591 133.225C93.7979 134.459 93.4207 135.344 92.9918 135.977C93.9884 137.446 95.1668 138.434 96.2 138.759C97.1235 139.049 97.8073 138.804 98.312 138.323C97.3203 135.884 97.116 132.557 98.4608 128.316C100.232 122.733 100.945 122.582 101.371 122.492C101.672 122.428 101.971 122.528 102.184 122.77C103.35 124.085 101.957 132.755 100.488 137.045C100.298 137.602 100.062 138.09 99.7855 138.503C100.569 140.038 101.723 141.083 102.931 141.656C103.9 142.116 104.894 142.284 105.798 142.2C105.685 141.96 105.583 141.719 105.492 141.472C104.491 138.766 104.98 135.642 106.986 131.919C108.317 129.451 109.403 128.3 110.402 128.299H110.403C110.7 128.299 111.255 128.408 111.647 129.133C112.747 131.163 111.951 137.856 109.776 141.177C109.264 141.96 108.556 142.554 107.736 142.941C109.425 145.161 112.635 147.119 117.763 149.104C118.089 149.23 118.25 149.594 118.124 149.92C118.027 150.169 117.789 150.322 117.536 150.322Z" fill="#374957"/>
<path d="M168.779 202.3C168.85 202.496 169.13 203.014 170.25 204.049C172.125 205.781 173.83 206.552 175.462 206.373C175.595 206.36 175.73 206.34 175.865 206.313C175.776 205.93 175.593 205.576 175.318 205.272C173.541 203.328 169.641 202.098 168.779 202.3ZM164.376 207.656C164.8 207.969 165.408 208.382 166.276 208.925C167.988 209.994 169.514 210.488 170.818 210.592C168.727 209.297 165.993 208.151 164.376 207.656ZM165.496 216.4C163.572 216.4 161.549 215.961 159.741 214.901C159.44 214.723 159.341 214.338 159.516 214.038C159.691 213.736 160.079 213.639 160.379 213.813C164.88 216.454 170.698 214.611 171.895 212.687C172.034 212.463 172.161 212.175 172.08 211.841C170.3 212.03 168.11 211.559 165.607 209.994C162.396 207.989 162.149 207.392 162.169 206.915C162.182 206.634 162.342 206.386 162.6 206.255C163.855 205.619 169.545 208.24 171.916 209.796C172.227 210.001 172.488 210.221 172.7 210.456C173.75 210.201 174.561 209.659 175.101 209.011C175.472 208.567 175.719 208.082 175.843 207.597C175.758 207.609 175.674 207.619 175.589 207.628C173.573 207.831 171.549 206.965 169.393 204.975C167.912 203.607 167.337 202.664 167.529 201.916C167.59 201.679 167.79 201.254 168.436 201.093C170.181 200.659 174.488 202.494 176.249 204.424C176.646 204.856 176.915 205.368 177.059 205.915C178.705 205.142 180.446 203.409 182.508 200.531C182.711 200.247 183.103 200.182 183.388 200.385C183.671 200.588 183.736 200.981 183.533 201.265C181.15 204.591 179.163 206.477 177.167 207.247C177.089 208.135 176.722 209.038 176.071 209.819C175.431 210.584 174.499 211.242 173.319 211.598C173.444 212.165 173.331 212.765 172.966 213.353C171.903 215.063 168.852 216.4 165.496 216.4Z" fill="#374957"/>
<path d="M82.7325 232.725L115.483 175.282L124.622 225.122L82.7325 232.725ZM182.208 214.669L162.55 218.236L144.703 120.901L106.774 127.786L44.9688 237.458L51.6048 273.648L130.881 259.259L136.309 288.859L174.237 281.974L168.81 252.375L188.468 248.806L182.208 214.669Z" fill="#A500FF"/>
<path d="M340.526 114.281C339.792 107.557 338.448 101.583 336.493 96.3572C334.537 91.1332 331.598 86.0101 327.674 80.9916C323.751 75.9718 318.408 71.6164 311.647 67.924C304.884 64.2329 295.96 61.6625 284.872 60.2179C261.794 57.2138 243.805 61.3083 230.899 72.4963C217.99 83.6868 209.498 105.122 205.417 136.803C203.756 149.688 203.345 161.598 204.184 172.535C205.02 183.471 207.029 192.266 210.212 198.924C214.566 208.276 220.727 215.744 228.693 221.326C236.658 226.909 247.569 230.604 261.432 232.409C286.155 235.628 304.477 230.885 316.399 218.18C328.319 205.476 336.228 184.003 340.124 153.761C341.862 140.271 341.995 127.111 340.526 114.281Z" fill="#A500FF"/>
<path d="M272.824 219.469C269.79 219.366 266.562 219.092 263.227 218.657C251.677 217.156 242.741 214.235 236.665 209.975C230.671 205.775 226.136 200.249 222.798 193.076L222.736 192.946C220.31 187.874 218.725 180.65 218.024 171.48C217.261 161.536 217.65 150.465 219.183 138.574C223.686 103.628 232.987 89.0482 239.996 82.972C248.169 75.8873 259.198 72.6854 273.718 73.182C276.692 73.2829 279.843 73.5489 283.081 73.9699C292.399 75.1826 299.772 77.2438 304.995 80.0928C310.053 82.856 314.006 86.0303 316.741 89.5297C319.774 93.4074 322.046 97.338 323.496 101.213C325.039 105.337 326.127 110.239 326.732 115.783C328.075 127.52 327.949 139.677 326.362 151.991C322.864 179.143 316.106 198.221 306.277 208.695C298.986 216.466 288.044 219.991 272.827 219.47C272.826 219.469 272.824 219.469 272.824 219.469Z" fill="#374957"/>
<path d="M265.22 130.123C254.755 129.765 246.56 120.996 246.918 110.538C247.277 100.069 256.053 91.8808 266.52 92.2388C276.985 92.5969 285.179 101.366 284.82 111.835C284.461 122.293 275.685 130.481 265.22 130.123ZM297.511 114.654L297.675 109.879L294.741 108.922C294.621 107.291 294.347 105.678 293.958 104.126L296.445 102.295L294.756 97.8095L291.68 98.0566C290.947 96.6069 290.085 95.2265 289.12 93.9331L290.713 91.2757L287.437 87.7838L284.688 89.1894C283.449 88.1381 282.143 87.185 280.745 86.3429L281.191 83.2935L276.828 81.3143L274.829 83.6566C273.306 83.1624 271.727 82.7918 270.096 82.5485L269.352 79.5583L264.56 79.3944L263.614 82.3253C261.969 82.4577 260.369 82.7187 258.816 83.1069L256.969 80.6349L252.482 82.3102L252.729 85.3849C251.277 86.1299 249.897 86.9896 248.601 87.9553L245.954 86.3631L242.447 89.6231L243.855 92.3838C242.803 93.6079 241.849 94.9252 241.019 96.3232L237.967 95.8644L235.973 100.224L238.329 102.222C237.836 103.744 237.452 105.333 237.22 106.952L234.215 107.707L234.051 112.482L236.998 113.441C237.118 115.084 237.392 116.683 237.78 118.234L235.293 120.067L236.983 124.552L240.059 124.305C240.792 125.755 241.653 127.134 242.618 128.429L241.025 131.086L244.301 134.578L247.052 133.171C248.278 134.222 249.595 135.177 250.993 136.019L250.535 139.068L254.898 141.046L256.91 138.706C258.433 139.199 260.011 139.569 261.643 139.813L262.387 142.805L267.178 142.967L268.124 140.035C269.769 139.903 271.369 139.643 272.922 139.254L274.757 141.726L279.245 140.05L279.01 136.977C280.462 136.233 281.829 135.371 283.137 134.406L285.784 135.999L289.292 132.737L287.884 129.979C288.936 128.753 289.89 127.435 290.721 126.04L293.773 126.497L295.765 122.137L293.41 120.139C293.904 118.617 294.286 117.041 294.518 115.409L297.511 114.654Z" fill="#A500FF"/>
<g opacity="0.3">
<g opacity="0.3">
<path opacity="0.3" d="M301.184 201.116C299.688 203.839 296.257 204.842 293.533 203.348C290.81 201.852 289.819 198.426 291.315 195.704C292.81 192.982 296.226 191.993 298.951 193.487C301.675 194.982 302.68 198.394 301.184 201.116ZM317.426 202.365L317.773 199.147L315.836 198.358C315.829 197.252 315.734 196.155 315.55 195.088L317.315 193.967L316.418 190.853L314.321 190.871C313.898 189.852 313.4 188.877 312.812 187.958L314.007 186.242L311.982 183.724L310.05 184.529C309.278 183.763 308.447 183.057 307.538 182.422L308.007 180.371L305.167 178.814L303.683 180.312C302.665 179.878 301.613 179.562 300.558 179.32L300.201 177.257L296.98 176.897L296.19 178.831C295.083 178.838 294 178.948 292.916 179.133L291.797 177.352L288.68 178.265L288.696 180.36C287.692 180.782 286.716 181.281 285.781 181.867L284.065 180.657L281.544 182.682L282.35 184.612C281.6 185.385 280.877 186.215 280.241 187.122L278.204 186.668L276.645 189.507L278.13 190.973C277.712 192.007 277.381 193.044 277.137 194.112L275.074 194.455L274.727 197.673L276.662 198.476C276.654 199.568 276.765 200.665 276.95 201.732L275.169 202.852L276.082 205.967L278.177 205.964C278.601 206.968 279.099 207.943 279.687 208.864L278.477 210.577L280.501 213.111L282.449 212.291C283.22 213.055 284.052 213.762 284.961 214.398L284.491 216.448L287.333 218.006L288.815 216.522C289.834 216.94 290.887 217.258 291.941 217.499L292.298 219.562L295.519 219.923L296.309 217.988C297.401 217.982 298.498 217.872 299.582 217.688L300.702 219.467L303.804 218.554L303.803 216.46C304.806 216.037 305.782 215.539 306.718 214.952L308.419 216.161L310.954 214.138L310.135 212.207C310.899 211.437 311.606 210.605 312.258 209.698L314.294 210.151L315.854 207.313L314.369 205.846C314.788 204.813 315.103 203.776 315.347 202.722L317.426 202.365Z" fill="#007CFF"/>
</g>
</g>
<path d="M310.41 160.018C305.444 159.848 301.566 155.684 301.737 150.737C301.906 145.775 306.06 141.898 311.026 142.069C315.991 142.239 319.87 146.389 319.701 151.352C319.53 156.298 315.376 160.189 310.41 160.018ZM335.303 147.886L331.542 145.291C331.542 145.288 331.541 145.284 331.541 145.283C331.169 143.918 330.655 142.603 330.028 141.368L330.991 137.59L325.537 131.753L321.696 132.455C320.508 131.745 319.231 131.145 317.895 130.681C317.893 130.68 317.889 130.68 317.886 130.679L315.551 126.749L307.564 126.477L304.966 130.234L304.952 130.238C303.587 130.609 302.274 131.121 301.039 131.747L297.259 130.785L291.418 136.236L292.119 140.064C292.118 140.065 292.118 140.067 292.117 140.068C291.393 141.269 290.805 142.545 290.34 143.88L286.41 146.212L286.137 154.194L289.9 156.79C290.272 158.165 290.769 159.476 291.409 160.723V160.724L290.449 164.49L295.903 170.328L299.719 169.629C300.924 170.34 302.202 170.943 303.554 171.407C303.556 171.407 303.557 171.408 303.558 171.408L305.888 175.33L313.876 175.603L316.471 171.849C317.852 171.477 319.168 170.966 320.417 170.338H320.418L324.181 171.295L330.022 165.845L329.322 162.015C330.046 160.814 330.632 159.537 331.097 158.202H331.098L335.029 155.867L335.303 147.886Z" fill="white"/>
<path d="M356.326 76.0172C355.998 74.1818 357.223 72.4308 359.054 72.1043C360.891 71.7752 362.643 72.9943 362.971 74.8297C363.3 76.6639 362.081 78.4137 360.244 78.7427C358.412 79.0704 356.654 77.8514 356.326 76.0172ZM362.745 84.1936L363.403 82.6102C363.404 82.609 363.405 82.609 363.406 82.609C363.878 82.3644 364.321 82.0732 364.725 81.7455L366.19 81.8022L367.905 79.3402L367.344 77.9863C367.512 77.4947 367.632 76.9803 367.697 76.4521V76.4496L368.956 75.2823L368.429 72.3299L366.843 71.6744C366.842 71.6719 366.841 71.6706 366.841 71.6694C366.596 71.1979 366.304 70.7554 365.978 70.352L366.033 68.8897L363.57 67.1753L362.218 67.735C362.218 67.735 362.218 67.7337 362.217 67.7337C361.718 67.5623 361.204 67.4475 360.676 67.382L359.509 66.1239L356.555 66.6521L355.897 68.238C355.422 68.4813 354.979 68.7687 354.571 69.1015L353.11 69.046L351.396 71.5067L351.952 72.8506C351.786 73.3498 351.666 73.8653 351.602 74.3986V74.3998L350.344 75.5647L350.872 78.5158L352.457 79.1725C352.702 79.6503 352.993 80.0915 353.322 80.5012V80.5025L353.267 81.9572L355.731 83.6717L357.082 83.112C357.58 83.2847 358.096 83.3981 358.624 83.4637L359.791 84.7218L362.745 84.1936Z" fill="#A500FF"/>
<path d="M328.135 75.8289L327.171 75.0158C328.846 73.0351 331.222 70.5239 334.751 68.6765L335.337 69.7944C331.574 71.7609 329.164 74.6131 328.135 75.8289Z" fill="#A500FF"/>
<path d="M338.205 68.6595L337.707 67.4996C342.479 65.4581 347.465 64.6616 352.516 65.1325L352.399 66.3875C347.556 65.9248 342.781 66.6981 338.205 68.6595Z" fill="#A500FF"/>
<path d="M335.824 77.3814L334.782 76.6731C337.373 72.8693 342.494 69.5572 347.235 68.6174L347.479 69.8522C343.037 70.736 338.243 73.8309 335.824 77.3814Z" fill="#A500FF"/>
<path d="M238.252 164.293C235.959 167.751 235.151 171.896 235.977 175.964C236.804 180.03 239.166 183.533 242.627 185.825C249.777 190.557 259.443 188.599 264.177 181.46C268.913 174.32 266.954 164.656 259.809 159.92C252.666 155.189 242.996 157.151 238.252 164.293ZM251.194 189.667C248.004 189.667 244.782 188.764 241.931 186.876C238.188 184.398 235.634 180.611 234.741 176.215C233.847 171.818 234.721 167.336 237.201 163.596C242.33 155.875 252.785 153.756 260.507 158.869C268.23 163.991 270.349 174.437 265.229 182.157C261.999 187.027 256.646 189.667 251.194 189.667ZM244.989 193.745C245.05 193.745 245.109 193.754 245.167 193.771C246.518 194.167 247.924 194.43 249.344 194.548C249.497 194.561 249.639 194.627 249.745 194.737L252.314 197.383L259.759 195.874L261.096 192.429C261.152 192.286 261.258 192.168 261.393 192.099C262.658 191.439 263.853 190.655 264.945 189.765C265.06 189.672 265.19 189.608 265.353 189.624L269.732 189.69L273.928 183.363L272.157 179.349C272.097 179.214 272.087 179.061 272.129 178.919C272.528 177.544 272.789 176.138 272.906 174.745C272.919 174.592 272.985 174.451 273.095 174.344L275.743 171.777L274.234 164.337L270.793 163.005C270.646 162.948 270.528 162.84 270.457 162.699C269.801 161.438 269.015 160.249 268.122 159.162C268.027 159.047 267.977 158.902 267.978 158.752L268.046 154.373L261.713 150.179L257.706 151.944C257.571 152.003 257.418 152.014 257.276 151.974C255.908 151.576 254.498 151.315 253.084 151.197C252.932 151.185 252.79 151.117 252.684 151.009L250.119 148.365L242.673 149.874L241.339 153.312C241.284 153.454 241.178 153.573 241.042 153.644C239.785 154.297 238.589 155.083 237.489 155.981C237.373 156.074 237.22 156.141 237.078 156.126L232.701 156.058L228.504 162.386L230.272 166.393C230.348 166.566 230.343 166.763 230.26 166.93C229.904 168.19 229.643 169.595 229.526 171.006C229.513 171.157 229.446 171.3 229.336 171.407L226.688 173.972L228.198 181.411L231.636 182.744C231.79 182.803 231.914 182.919 231.982 183.068C232.635 184.318 233.419 185.504 234.308 186.586C234.403 186.701 234.456 186.849 234.453 186.998L234.387 191.374L240.719 195.57L244.736 193.799C244.816 193.764 244.902 193.745 244.989 193.745ZM252.101 198.699C251.932 198.699 251.768 198.631 251.648 198.508L249.002 195.782C247.656 195.656 246.323 195.409 245.035 195.045L240.912 196.861C240.716 196.951 240.489 196.928 240.309 196.811L233.401 192.235C233.222 192.115 233.116 191.915 233.12 191.699L233.188 187.207C232.349 186.164 231.601 185.03 230.96 183.833L227.421 182.461C227.221 182.384 227.073 182.21 227.03 182L225.384 173.884C225.341 173.673 225.409 173.457 225.563 173.305L228.289 170.664C228.415 169.324 228.663 167.992 229.026 166.693L227.211 162.58C227.123 162.382 227.142 162.156 227.261 161.976L231.839 155.074C231.958 154.895 232.127 154.784 232.376 154.792L236.868 154.861C237.923 154.019 239.058 153.272 240.248 152.636L241.621 149.098C241.699 148.897 241.874 148.751 242.084 148.708L250.206 147.062C250.417 147.021 250.634 147.088 250.784 147.241L253.425 149.963C254.768 150.087 256.104 150.337 257.403 150.7L261.52 148.886C261.716 148.8 261.943 148.82 262.123 148.938L269.03 153.512C269.209 153.632 269.315 153.833 269.313 154.048L269.244 158.542C270.084 159.589 270.832 160.721 271.47 161.914L275.012 163.287C275.212 163.365 275.359 163.538 275.401 163.749L277.048 171.864C277.091 172.075 277.023 172.293 276.869 172.443L274.141 175.087C274.017 176.41 273.769 177.741 273.403 179.049L275.222 183.17C275.309 183.366 275.289 183.595 275.171 183.772L270.592 190.674C270.474 190.852 270.286 190.943 270.057 190.955L265.562 190.888C264.515 191.723 263.381 192.468 262.187 193.105L260.811 196.651C260.733 196.851 260.559 196.997 260.348 197.042L252.227 198.687C252.184 198.695 252.142 198.699 252.101 198.699Z" fill="white"/>
<path d="M392.223 212.535L441.12 167.999L434.415 218.225L392.223 212.535ZM492.418 226.046L472.617 223.376L485.713 125.288L447.51 120.138L354.841 205.388L349.973 241.858L429.821 252.626L425.84 282.455L464.042 287.606L468.024 257.778L487.825 260.447L492.418 226.046Z" fill="#A500FF"/>
<path d="M452.436 286.67C452.398 286.67 452.36 286.666 452.322 286.66C451.979 286.597 451.752 286.269 451.815 285.926L481.244 124.656C481.305 124.315 481.637 124.101 481.978 124.149C482.32 124.212 482.547 124.541 482.484 124.883L453.055 286.153C453 286.457 452.735 286.67 452.436 286.67Z" fill="#374957"/>
<path d="M478.544 127.365C478.524 127.935 478.046 128.382 477.477 128.362C476.905 128.342 476.458 127.865 476.479 127.293C476.497 126.723 476.976 126.277 477.546 126.297C478.117 126.317 478.564 126.795 478.544 127.365Z" fill="#374957"/>
<path d="M474.341 149.173C474.321 149.744 473.843 150.19 473.273 150.171C472.702 150.151 472.254 149.673 472.276 149.102C472.294 148.532 472.773 148.086 473.343 148.106C473.914 148.125 474.361 148.604 474.341 149.173Z" fill="#374957"/>
<path d="M470.138 170.985C470.119 171.554 469.64 172 469.069 171.981C468.499 171.961 468.051 171.484 468.071 170.913C468.091 170.342 468.57 169.897 469.14 169.916C469.711 169.935 470.159 170.414 470.138 170.985Z" fill="#374957"/>
<path d="M461.871 193.688C461.852 194.258 461.373 194.705 460.803 194.684C460.232 194.665 459.785 194.187 459.806 193.617C459.824 193.048 460.304 192.601 460.874 192.621C461.444 192.64 461.891 193.118 461.871 193.688Z" fill="#374957"/>
<path d="M461.727 214.603C461.709 215.173 461.229 215.62 460.659 215.6C460.089 215.581 459.642 215.102 459.661 214.531C459.681 213.962 460.16 213.516 460.73 213.534C461.299 213.554 461.747 214.034 461.727 214.603Z" fill="#374957"/>
<path d="M457.524 236.413C457.504 236.983 457.026 237.43 456.456 237.41C455.886 237.391 455.438 236.912 455.458 236.341C455.476 235.772 455.956 235.326 456.526 235.344C457.096 235.364 457.543 235.844 457.524 236.413Z" fill="#374957"/>
<path d="M453.317 258.223C453.297 258.793 452.82 259.24 452.249 259.219C451.679 259.199 451.232 258.722 451.251 258.151C451.272 257.581 451.749 257.134 452.319 257.154C452.891 257.174 453.337 257.652 453.317 258.223Z" fill="#374957"/>
<path d="M449.118 280.033C449.099 280.603 448.619 281.05 448.049 281.03C447.48 281.01 447.033 280.532 447.052 279.961C447.071 279.392 447.55 278.947 448.12 278.964C448.69 278.984 449.137 279.464 449.118 280.033Z" fill="#374957"/>
<path d="M460.837 194.283C460.547 194.283 460.284 194.082 460.221 193.784C460.148 193.445 460.364 193.11 460.706 193.037L463.838 192.365C464.184 192.297 464.515 192.507 464.588 192.849C464.661 193.189 464.444 193.523 464.103 193.598L460.969 194.269C460.925 194.278 460.881 194.283 460.837 194.283Z" fill="#374957"/>
<path d="M471.297 182.669C471.297 182.669 468.474 190.017 467.524 194.469C466.574 198.922 466.516 208.871 466.516 208.871" fill="#1A2E35"/>
<path d="M466.514 209.501H466.51C466.162 209.499 465.882 209.215 465.883 208.867C465.885 208.459 465.951 198.803 466.905 194.338C467.855 189.888 470.59 182.745 470.706 182.442C470.831 182.118 471.194 181.957 471.521 182.081C471.846 182.205 472.009 182.571 471.884 182.895C471.855 182.968 469.067 190.249 468.139 194.601C467.213 198.94 467.144 208.777 467.144 208.875C467.143 209.222 466.861 209.501 466.514 209.501Z" fill="#374957"/>
<path d="M235.844 318.312C237.596 290.071 234.373 238.734 287.5 245.53C344.443 252.812 328.152 319.345 328.152 319.345L235.844 318.312Z" fill="#374957"/>
<path d="M295.691 278.174C295.691 290.965 285.312 301.337 272.508 301.337C259.704 301.337 249.325 290.965 249.325 278.174C249.325 265.381 259.704 255.008 272.508 255.008C285.312 255.008 295.691 265.381 295.691 278.174Z" fill="white"/>
<path d="M275.55 255.044C264.569 253.171 252.829 261.259 251.672 269.453L295.206 273.453C293.672 264.111 284.263 256.531 275.55 255.044Z" fill="#374957"/>
<path d="M290.248 277.596C289.935 283.652 286.632 288.405 282.869 288.212C279.107 288.019 276.308 282.953 276.62 276.897C276.931 270.843 280.234 266.088 283.998 266.281C287.759 266.474 290.56 271.539 290.248 277.596Z" fill="#374957"/>
<path d="M272.51 256.269C260.423 256.269 250.59 266.094 250.59 278.172C250.59 290.25 260.423 300.076 272.51 300.076C284.598 300.076 294.431 290.25 294.431 278.172C294.431 266.094 284.598 256.269 272.51 256.269ZM272.51 302.597C259.031 302.597 248.066 291.641 248.066 278.172C248.066 264.704 259.031 253.748 272.51 253.748C285.989 253.748 296.954 264.704 296.954 278.172C296.954 291.641 285.989 302.597 272.51 302.597Z" fill="#FFA500"/>
<g opacity="0.3">
<g opacity="0.3">
<path opacity="0.3" d="M321.675 317.601C321.626 317.601 321.577 317.594 321.527 317.583C321.189 317.502 320.98 317.161 321.061 316.823C321.103 316.653 325.122 299.559 320.948 282.277C320.866 281.939 321.074 281.599 321.413 281.517C321.747 281.44 322.092 281.643 322.174 281.982C326.423 299.568 322.33 316.944 322.287 317.118C322.218 317.408 321.961 317.601 321.675 317.601Z" fill="white"/>
</g>
</g>
<g opacity="0.3">
<g opacity="0.3">
<path opacity="0.3" d="M318.16 272.826C317.92 272.826 317.692 272.69 317.586 272.458C315.963 268.921 313.951 265.673 311.603 262.805C311.383 262.536 311.423 262.139 311.693 261.919C311.962 261.697 312.359 261.736 312.581 262.007C314.996 264.959 317.066 268.298 318.733 271.934C318.878 272.25 318.739 272.624 318.422 272.768C318.337 272.807 318.247 272.826 318.16 272.826Z" fill="white"/>
</g>
</g>
<path d="M117.608 450.774C117.451 450.774 117.295 450.772 117.139 450.767C113.657 450.671 110.91 447.773 111.006 444.293C111.101 440.815 113.97 438.123 117.485 438.166C117.525 438.167 117.565 438.167 117.606 438.167C121.251 438.167 130.019 433.743 148.361 404.849C149.348 403.299 150.962 402.254 152.782 401.989C154.605 401.731 156.447 402.269 157.835 403.475C180.469 423.195 204.455 435.47 204.695 435.592C207.801 437.168 209.04 440.962 207.464 444.065C205.887 447.168 202.091 448.41 198.986 446.833C198.033 446.35 177.068 435.639 155.084 417.655C139.712 440.748 128.303 450.774 117.608 450.774Z" fill="#374957"/>
<path d="M156.641 402.343C156.461 402.343 156.282 402.331 156.101 402.305C154.032 402.009 152.593 400.094 152.889 398.026C153.786 391.753 152.674 368.242 144.721 349.963C143.996 348.298 144.558 346.353 146.06 345.329C163.342 333.561 200.154 332.154 201.713 332.1C203.791 332.055 205.553 333.662 205.626 335.748C205.698 337.835 204.065 339.587 201.977 339.659C201.635 339.672 169.451 340.906 152.914 350C159.959 368.201 161.556 390.889 160.383 399.097C160.113 400.983 158.494 402.343 156.641 402.343Z" fill="#374957"/>
<path d="M162.997 397.447C160.479 391.514 149.135 392.188 142.473 397.272C138.913 399.99 134.095 408.165 133.588 411.128C133.082 414.091 135.137 416.776 138.664 416.471C143.013 416.094 148.986 409.778 148.986 409.778C145.013 413.671 150.139 416.418 157.788 410.788C162.031 407.666 165.816 404.09 162.997 397.447Z" fill="#FFA500"/>
<path d="M392.633 292.846C393.202 293.058 393.845 293.183 394.445 293.253C400.732 293.997 406.282 293.118 407.112 292.335C406.898 292.14 406.051 291.602 402.912 291.002C398.772 290.214 395.153 291.251 392.633 292.846ZM391.042 299.933C391.15 299.965 391.26 299.995 391.367 300.021C395.822 301.112 401.836 301.297 403.899 300.959C403.26 300.69 401.956 300.258 399.313 299.676C395.813 298.906 393.078 299.145 391.042 299.933ZM386.835 308.213C387.184 308.858 387.702 309.39 388.373 309.747C391.221 311.261 396.821 311.608 398.923 310.761C399.352 310.587 399.416 310.443 399.416 310.442C399.416 310.438 399.347 309.733 396.261 308.413C392.725 306.901 389.905 306.689 387.643 307.76C387.367 307.893 387.098 308.043 386.835 308.213ZM379.99 319.976C379.933 319.976 379.874 319.969 379.816 319.952C379.482 319.856 379.287 319.506 379.384 319.173C381.065 313.323 382.901 309.75 385.313 307.763C384.943 306.507 384.985 305.065 385.506 303.655C386.013 302.282 386.993 300.918 388.486 299.866C387.755 299.077 387.483 298.045 387.741 296.865C388.026 295.551 388.983 294.129 390.436 292.885C389.865 292.23 389.725 291.514 389.721 290.984C389.689 287.225 396.668 281.498 404.56 280.423C404.907 280.358 405.223 280.615 405.27 280.961C405.317 281.306 405.076 281.624 404.73 281.671C397.239 282.692 390.957 288.111 390.982 290.974C390.986 291.438 391.158 291.811 391.439 292.112C394.279 290.137 398.471 288.866 403.149 289.764C407.021 290.504 408.596 291.321 408.414 292.496C408.071 294.705 399.824 295.162 394.297 294.504C393.044 294.355 392.127 294.06 391.458 293.691C390.083 294.814 389.203 296.074 388.974 297.132C388.768 298.076 389.072 298.736 389.598 299.194C391.94 297.988 395.236 297.484 399.585 298.444C405.308 299.706 405.522 300.403 405.651 300.818C405.742 301.116 405.669 301.419 405.448 301.653C404.242 302.93 395.472 302.325 391.068 301.246C390.494 301.106 389.987 300.914 389.55 300.677C388.091 301.595 387.152 302.836 386.69 304.091C386.318 305.097 386.234 306.099 386.405 306.994C386.632 306.858 386.864 306.735 387.102 306.622C389.712 305.384 392.868 305.591 396.758 307.254C399.337 308.358 400.582 309.334 400.673 310.328C400.699 310.623 400.641 311.185 399.952 311.642C398.028 312.919 391.285 312.726 387.78 310.86C386.954 310.419 386.298 309.77 385.84 308.987C383.777 310.869 382.115 314.239 380.596 319.519C380.516 319.797 380.265 319.976 379.99 319.976Z" fill="#374957"/>
<path d="M215.756 448.668C216.586 448.402 216.308 447.601 215.381 447.601H198.3C165.774 444.159 143.049 448.772 157.368 449.858C171.687 450.948 156.359 450.718 145.903 454.671C135.445 458.623 223.686 459.621 231.711 454.671C239.113 450.108 204.231 452.359 215.756 448.668Z" fill="#374957"/>
<path d="M338.051 453.698L189.434 448.779L183.269 304.785L358.77 308.703L338.051 453.698Z" fill="#FFA500"/>
<path d="M235.845 450.944C235.519 450.944 235.243 450.695 235.216 450.365L223.303 305.746C223.274 305.399 223.533 305.095 223.88 305.066C224.237 305.047 224.532 305.296 224.561 305.642L236.474 450.262C236.502 450.608 236.245 450.914 235.898 450.941C235.879 450.943 235.862 450.944 235.845 450.944Z" fill="#374957"/>
<path d="M338.07 453.698L378.01 447.626L390.573 313.732L358.766 308.704L338.07 453.698Z" fill="#FFA500"/>
<g opacity="0.2">
<g opacity="0.2">
<path opacity="0.2" d="M338.035 453.698L377.975 447.626L390.538 313.732L358.731 308.704L338.035 453.698Z" fill="black"/>
</g>
</g>
<path d="M202.136 421.019L198.471 335.472C198.089 326.544 205.34 319.149 214.282 319.349L325.378 321.83C334.656 322.038 341.667 330.3 340.355 339.479L328.038 425.695C326.921 433.508 320.096 439.228 312.202 438.967L217.088 435.816C209 435.548 202.482 429.1 202.136 421.019Z" fill="#374957"/>
<path d="M214.138 345.6L231.326 346.147L231.185 350.575L220.424 350.233L220.32 353.528L230.301 353.846L230.166 358.075L220.185 357.76L220.055 361.848L231.127 362.2L230.976 366.897L213.477 366.34L214.138 345.6Z" fill="white"/>
<path d="M241.351 354.878L244.055 354.964C244.347 354.973 244.916 354.897 245.763 354.736C246.191 354.664 246.544 354.459 246.825 354.117C247.105 353.778 247.252 353.381 247.267 352.928C247.288 352.259 247.091 351.738 246.679 351.366C246.265 350.994 245.473 350.789 244.302 350.752L241.485 350.662L241.351 354.878ZM234.516 367.009L235.177 346.27L245.866 346.609C247.848 346.673 249.357 346.891 250.394 347.264C251.431 347.636 252.256 348.293 252.868 349.232C253.481 350.174 253.767 351.303 253.725 352.623C253.688 353.774 253.411 354.759 252.893 355.578C252.375 356.398 251.679 357.053 250.803 357.543C250.244 357.856 249.485 358.107 248.525 358.293C249.28 358.573 249.828 358.844 250.17 359.109C250.399 359.288 250.73 359.663 251.16 360.234C251.59 360.805 251.877 361.243 252.018 361.551L254.932 367.66L247.686 367.428L244.458 360.981C244.051 360.148 243.681 359.602 243.348 359.346C242.896 359.011 242.378 358.834 241.793 358.815L241.226 358.796L240.959 367.215L234.516 367.009Z" fill="white"/>
<path d="M263.904 355.594L266.609 355.68C266.901 355.69 267.471 355.615 268.316 355.452C268.744 355.381 269.099 355.175 269.379 354.834C269.659 354.494 269.805 354.098 269.82 353.644C269.842 352.975 269.646 352.454 269.232 352.082C268.818 351.71 268.026 351.506 266.857 351.47L264.038 351.379L263.904 355.594ZM257.07 367.727L257.73 346.987L268.42 347.326C270.402 347.389 271.912 347.607 272.948 347.98C273.985 348.353 274.81 349.009 275.423 349.948C276.035 350.89 276.32 352.019 276.278 353.34C276.242 354.491 275.964 355.475 275.447 356.295C274.93 357.113 274.232 357.769 273.356 358.261C272.799 358.573 272.038 358.823 271.078 359.009C271.834 359.289 272.381 359.56 272.723 359.826C272.954 360.004 273.283 360.378 273.715 360.95C274.144 361.521 274.43 361.961 274.571 362.267L277.486 368.376L270.239 368.145L267.013 361.698C266.604 360.865 266.235 360.319 265.903 360.063C265.45 359.727 264.931 359.55 264.346 359.531L263.78 359.512L263.512 367.931L257.07 367.727Z" fill="white"/>
<path d="M284.98 358.276C284.914 360.37 285.255 361.886 286.005 362.825C286.754 363.764 287.799 364.256 289.14 364.299C290.518 364.343 291.599 363.928 292.382 363.057C293.166 362.186 293.595 360.589 293.668 358.268C293.731 356.317 293.381 354.878 292.623 353.952C291.864 353.027 290.809 352.541 289.459 352.498C288.165 352.458 287.113 352.883 286.3 353.773C285.488 354.663 285.047 356.163 284.98 358.276ZM278.568 358.044C278.676 354.658 279.703 352.052 281.651 350.225C283.599 348.4 286.258 347.539 289.628 347.646C293.082 347.756 295.714 348.768 297.525 350.681C299.334 352.593 300.185 355.219 300.079 358.558C300.002 360.981 299.531 362.956 298.665 364.482C297.798 366.007 296.581 367.177 295.01 367.991C293.439 368.806 291.503 369.175 289.199 369.102C286.859 369.028 284.934 368.594 283.424 367.8C281.912 367.006 280.707 365.788 279.805 364.144C278.903 362.501 278.491 360.467 278.568 358.044Z" fill="white"/>
<path d="M310.117 357.064L312.82 357.15C313.113 357.159 313.682 357.083 314.529 356.922C314.956 356.85 315.309 356.645 315.591 356.303C315.871 355.964 316.017 355.567 316.031 355.114C316.054 354.445 315.857 353.924 315.443 353.552C315.031 353.18 314.238 352.975 313.068 352.938L310.25 352.848L310.117 357.064ZM303.281 369.195L303.942 348.456L314.632 348.795C316.614 348.859 318.123 349.076 319.16 349.45C320.197 349.822 321.022 350.479 321.634 351.418C322.247 352.36 322.532 353.489 322.491 354.809C322.454 355.96 322.176 356.945 321.659 357.764C321.141 358.583 320.444 359.239 319.569 359.729C319.01 360.042 318.25 360.293 317.29 360.478C318.046 360.758 318.593 361.03 318.935 361.295C319.165 361.474 319.496 361.848 319.926 362.419C320.356 362.99 320.642 363.429 320.784 363.737L323.698 369.846L316.451 369.614L313.224 363.167C312.817 362.334 312.446 361.788 312.114 361.532C311.662 361.197 311.142 361.02 310.558 361.001L309.992 360.982L309.723 369.401L303.281 369.195Z" fill="white"/>
<path d="M313.492 404.433C313.043 404.433 312.597 404.252 312.269 403.895L301.469 392.084L289.816 402.724C289.141 403.342 288.094 403.292 287.475 402.619L276.676 390.807L265.023 401.447C264.348 402.063 263.299 402.015 262.684 401.342L251.883 389.531L240.229 400.171C239.906 400.467 239.47 400.624 239.038 400.604C238.599 400.583 238.187 400.39 237.89 400.066L227.09 388.256L215.436 398.894C214.763 399.512 213.714 399.463 213.097 398.789C212.48 398.115 212.528 397.067 213.203 396.452L226.078 384.697C226.753 384.078 227.801 384.127 228.418 384.802L239.218 396.612L250.871 385.971C251.195 385.675 251.629 385.523 252.063 385.54C252.501 385.559 252.915 385.753 253.211 386.076L264.011 397.888L275.664 387.248C276.338 386.631 277.386 386.679 278.005 387.353L288.804 399.164L300.457 388.526C301.132 387.907 302.18 387.954 302.796 388.63L314.715 401.662C315.332 402.337 315.284 403.384 314.609 404C314.291 404.291 313.891 404.433 313.492 404.433Z" fill="white"/>
<path d="M113.841 456.76L105.948 452.999L98.912 418.751L102.735 414.543L113.841 456.76Z" fill="#FFA500"/>
<path d="M113.844 456.76L124.319 450.646L115.333 422.428L102.722 414.543L113.844 456.76Z" fill="#FFA500"/>
<g opacity="0.2">
<g opacity="0.2">
<path opacity="0.2" d="M113.852 456.76L124.326 450.646L115.341 422.428L102.729 414.543L113.852 456.76Z" fill="black"/>
</g>
</g>
<path d="M285.675 462.985C285.377 462.985 285.086 462.98 284.803 462.973C281.32 462.877 278.575 459.979 278.67 456.498C278.765 453.021 281.643 450.286 285.149 450.371C294.867 450.689 315.435 444.724 327.184 433.328C327.911 432.623 328.795 432.104 329.766 431.813C349.684 425.84 357.097 437.906 357.403 438.425L346.544 444.84C346.544 444.84 346.585 444.928 346.689 445.071C346.569 444.904 343.748 441.24 334.765 443.507C320.021 456.956 297.388 462.985 285.675 462.985Z" fill="#374957"/>
<path d="M284.975 471.364L261.999 469.919L260.188 427.591L291.066 428.742L284.975 471.364Z" fill="#FFA500"/>
<path d="M284.973 471.364L290.344 466.024L293.672 439.63L291.062 428.744L284.973 471.364Z" fill="#FFA500"/>
<g opacity="0.2">
<g opacity="0.2">
<path opacity="0.2" d="M284.977 471.364L290.348 466.024L293.676 439.63L291.066 428.744L284.977 471.364Z" fill="black"/>
</g>
</g>
<path d="M418.093 455.336C417.295 455.336 416.49 455.085 415.805 454.566C402.691 444.605 384.965 426.925 378.163 409.868C378.063 409.618 377.991 409.359 377.947 409.094C374.63 389.388 371.461 347.902 371.327 346.146C371.17 344.064 372.73 342.247 374.814 342.089C376.894 341.937 378.718 343.491 378.876 345.575C378.907 345.999 382.108 387.889 385.344 407.437C392.129 424.022 410.523 441.053 420.386 448.542C422.05 449.807 422.375 452.179 421.109 453.842C420.365 454.821 419.236 455.336 418.093 455.336Z" fill="#374957"/>
<path d="M435.589 457.247C432.664 457.247 429.346 455.921 425.731 453.307C424.037 452.082 423.657 449.718 424.883 448.027C426.11 446.335 428.475 445.956 430.168 447.18C433.293 449.44 435 449.683 435.589 449.683C437.68 449.683 439.374 451.376 439.374 453.465C439.374 455.554 437.68 457.247 435.589 457.247Z" fill="#374957"/>
<path d="M426.791 453.2C430.841 441.179 447.444 443.555 453.162 445.34C458.878 447.125 464.03 449.37 467.126 451.394C470.224 453.417 470.273 456.797 466.144 458.727C461.052 461.106 448.278 458.994 448.278 458.994C454.89 461.887 448.265 466.522 436.665 461.969C432.889 460.487 425.362 457.604 426.791 453.2Z" fill="#FFA500"/>
<path d="M386.489 351.332C384.985 361.546 376.522 369.079 369.639 368.069C362.754 367.058 362.469 357.936 363.972 347.723C365.476 337.508 368.199 330.071 375.083 331.082C381.967 332.091 387.992 341.119 386.489 351.332Z" fill="#374957"/>
<path d="M221.012 309.53C221.012 310.1 220.549 310.563 219.977 310.563C219.406 310.563 218.943 310.1 218.943 309.53C218.943 308.96 219.406 308.497 219.977 308.497C220.549 308.497 221.012 308.96 221.012 309.53Z" fill="#374957"/>
<path d="M230.492 316.97C230.492 317.542 230.029 318.004 229.459 318.004C228.887 318.004 228.424 317.542 228.424 316.97C228.424 316.401 228.887 315.938 229.459 315.938C230.029 315.938 230.492 316.401 230.492 316.97Z" fill="#374957"/>
<path d="M231.648 439.132C231.648 439.703 231.185 440.164 230.614 440.164C230.042 440.164 229.579 439.703 229.579 439.132C229.579 438.562 230.042 438.098 230.614 438.098C231.185 438.098 231.648 438.562 231.648 439.132Z" fill="#374957"/>
<path d="M241.125 446.573C241.125 447.143 240.662 447.606 240.09 447.606C239.52 447.606 239.057 447.143 239.057 446.573C239.057 446.002 239.52 445.54 240.09 445.54C240.662 445.54 241.125 446.002 241.125 446.573Z" fill="#374957"/>
<path d="M73.1646 446.34H73.1621C73.1596 446.341 72.689 446.58 72.5061 448.685C72.3219 450.806 72.7067 452.245 73.6844 453.078C73.9052 453.267 74.1588 453.426 74.4401 453.556C74.7959 453.161 75.0407 452.72 75.1252 452.259C75.4633 450.432 74.5928 447.757 73.6163 446.675C73.3627 446.393 73.2 446.34 73.1646 446.34ZM65.2279 447.434C65.2203 447.908 65.2632 448.705 65.4512 450.03C65.7073 451.829 66.3721 453.212 67.3676 454.092C67.0723 451.561 65.9482 448.629 65.2279 447.434ZM58.1994 448.533C58.1263 448.728 57.9938 449.364 58.3054 451.11C58.7205 453.43 60.2231 454.971 61.8884 455.785C61.8796 455.516 61.8303 455.219 61.7408 454.892C60.7504 451.289 58.8668 448.806 58.1994 448.533ZM59.2895 458.969C56.2881 458.969 52.2282 457.15 50.0381 453.989C49.84 453.705 49.9107 453.311 50.197 453.113C50.4834 452.914 50.8758 452.986 51.0751 453.273C53.4293 456.67 58.6183 458.481 60.922 457.408C61.1642 457.295 61.361 457.152 61.5124 456.981C59.4535 456.03 57.5712 454.17 57.064 451.332C56.7776 449.734 56.5505 447.574 57.8702 447.277C59.6793 446.871 62.0461 451.244 62.957 454.558C63.126 455.171 63.179 455.738 63.1222 456.25C63.9196 456.468 64.703 456.525 65.3755 456.427C65.9217 456.348 66.6989 456.124 67.1102 455.488C65.5773 454.453 64.5453 452.628 64.2022 450.206C63.7127 446.76 64.0798 446.158 64.4621 445.865C64.7106 445.674 65.026 445.638 65.3301 445.766C66.6787 446.34 68.3138 451.23 68.6266 453.997C68.6607 454.302 68.6607 454.595 68.6292 454.872C69.1452 455.077 69.7154 455.19 70.3311 455.201C71.4249 455.264 72.5061 454.917 73.3716 454.408C73.1924 454.297 73.0233 454.172 72.8644 454.036C71.5548 452.919 71.0275 451.133 71.2483 448.576C71.4198 446.601 71.8702 445.522 72.665 445.181C72.9439 445.058 73.5116 444.943 74.1891 445.483C75.5516 446.572 76.8233 450.018 76.3666 452.488C76.2707 452.999 76.0512 453.489 75.732 453.939C78.0471 454.339 81.3046 453.688 84.1142 452.995C84.451 452.913 84.7942 453.117 84.8774 453.456C84.962 453.794 84.7551 454.136 84.4169 454.219C80.998 455.063 77.3179 455.751 74.7177 454.997C73.5621 455.916 71.9358 456.473 70.3046 456.462C69.5615 456.448 68.8689 456.314 68.2368 456.075C67.7397 456.92 66.815 457.493 65.5571 457.676C64.7194 457.8 63.7329 457.72 62.7337 457.435C62.4498 457.907 62.0209 458.287 61.4557 458.552C60.8526 458.831 60.1108 458.968 59.2895 458.969Z" fill="#374957"/>
<path d="M243.941 468.498L247.36 462.573L243.941 456.649H240.281L242.349 462.574L240.281 468.498H243.941Z" fill="#374957"/>
<path d="M240.527 465.661C238.824 465.661 237.436 464.275 237.436 462.573C237.436 460.871 238.824 459.497 240.527 459.497L234.715 458.335L233.172 463.026L235.766 466.983L240.527 465.661Z" fill="#374957"/>
<path d="M237.604 465.661C235.901 465.661 234.514 464.275 234.514 462.573C234.514 460.871 235.901 459.497 237.604 459.497C239.308 459.497 240.683 460.871 240.683 462.573C240.683 464.275 239.308 465.661 237.604 465.661ZM241.023 456.649H234.173L230.754 462.573L234.173 468.498H241.023L244.442 462.573L241.023 456.649Z" fill="#FFA500"/>
<path d="M482.407 456.253L479.867 451.854L482.407 447.454H485.126L483.589 451.854L485.126 456.253H482.407Z" fill="#374957"/>
<path d="M484.949 454.147C486.215 454.147 487.245 453.118 487.245 451.854C487.245 450.591 486.215 449.568 484.949 449.568L489.266 448.706L490.412 452.189L488.485 455.128L484.949 454.147Z" fill="#62707A"/>
<path d="M487.117 454.147C488.381 454.147 489.413 453.118 489.413 451.854C489.413 450.591 488.381 449.568 487.117 449.568C485.853 449.568 484.831 450.591 484.831 451.854C484.831 453.118 485.853 454.147 487.117 454.147ZM484.577 447.453H489.665L492.205 451.854L489.665 456.253H484.577L482.039 451.854L484.577 447.453Z" fill="#FFA500"/>
<path d="M387.859 462.094H393.559C395.044 462.094 396.257 460.88 396.257 459.396C396.257 457.915 395.044 456.701 393.559 456.701H387.859C386.374 456.701 385.16 457.915 385.16 459.396C385.16 460.88 386.374 462.094 387.859 462.094Z" fill="#374957"/>
<path d="M378.759 457.009C380.167 454.025 383.579 452.676 386.381 453.996C389.183 455.317 390.312 458.804 388.904 461.787C387.495 464.77 384.085 466.12 381.283 464.799C378.481 463.479 377.351 459.992 378.759 457.009Z" fill="#FFA500"/>
<path d="M381.884 465.523L380.328 464.789L385.771 453.272L387.326 454.006L381.884 465.523Z" fill="#1A2E35"/>
</g>
<defs>
<clipPath id="clip0_537_12118">
<rect width="586" height="475" fill="white"/>
</clipPath>
</defs>
</svg>
