<svg width="9" height="16" viewBox="0 0 9 16" fill="none" xmlns="http://www.w3.org/2000/svg">
<path d="M7.33338 9.47812e-06C7.42111 -0.000497869 7.50809 0.0163183 7.58931 0.0494947C7.67054 0.0826711 7.74442 0.131556 7.80671 0.193343C7.86919 0.255319 7.91879 0.329052 7.95264 0.410291C7.98648 0.49153 8.00391 0.578668 8.00391 0.666676C8.00391 0.754683 7.98648 0.84182 7.95264 0.923059C7.91879 1.0043 7.86919 1.07803 7.80671 1.14001L2.36004 6.58667C1.98551 6.96167 1.77513 7.47 1.77513 8C1.77513 8.53 1.98551 9.03833 2.36004 9.41333L7.80671 14.86C7.93224 14.9855 8.00277 15.1558 8.00277 15.3333C8.00277 15.5109 7.93224 15.6811 7.80671 15.8067C7.68117 15.9322 7.51091 16.0027 7.33337 16.0027C7.15584 16.0027 6.98558 15.9322 6.86004 15.8067L1.41337 10.36C1.10295 10.0504 0.856668 9.68252 0.688624 9.27755C0.520581 8.87259 0.434083 8.43845 0.434083 8C0.434083 7.56155 0.520582 7.12741 0.688625 6.72244C0.856668 6.31748 1.10295 5.94964 1.41337 5.64L6.86004 0.193343C6.92234 0.131555 6.99621 0.0826711 7.07744 0.0494947C7.15866 0.0163182 7.24564 -0.000497884 7.33338 9.47812e-06Z" fill="#374957"/>
</svg>
