<svg width="9" height="16" viewBox="0 0 9 16" fill="none" xmlns="http://www.w3.org/2000/svg">
<path d="M1.66663 16C1.57889 16.0005 1.49191 15.9837 1.41069 15.9505C1.32946 15.9173 1.25559 15.8684 1.19329 15.8067C1.13081 15.7447 1.08121 15.6709 1.04737 15.5897C1.01352 15.5085 0.996094 15.4213 0.996094 15.3333C0.996094 15.2453 1.01352 15.1582 1.04737 15.0769C1.08121 14.9957 1.13081 14.922 1.19329 14.86L6.63996 9.41333C7.01449 9.03833 7.22487 8.53 7.22487 8C7.22487 7.47 7.01449 6.96167 6.63996 6.58667L1.19329 1.14001C1.06776 1.01447 0.997231 0.844212 0.997231 0.666677C0.997231 0.489143 1.06776 0.31888 1.19329 0.193345C1.31883 0.0678091 1.48909 -0.00271606 1.66663 -0.00271606C1.84416 -0.00271606 2.01442 0.0678091 2.13996 0.193345L7.58663 5.64C7.89705 5.94964 8.14333 6.31748 8.31138 6.72245C8.47942 7.12741 8.56592 7.56155 8.56592 8C8.56592 8.43845 8.47942 8.87259 8.31138 9.27756C8.14333 9.68252 7.89705 10.0504 7.58663 10.36L2.13996 15.8067C2.07767 15.8684 2.00379 15.9173 1.92256 15.9505C1.84134 15.9837 1.75436 16.0005 1.66663 16Z" fill="#374957"/>
</svg>
