<svg width="16" height="16" viewBox="0 0 16 16" fill="none" xmlns="http://www.w3.org/2000/svg">
<path d="M3.33333 8.66669L10 8.66669L7.80667 10.86C7.74418 10.922 7.69459 10.9957 7.66074 11.077C7.62689 11.1582 7.60947 11.2453 7.60947 11.3334C7.60947 11.4214 7.62689 11.5085 7.66074 11.5897C7.69459 11.671 7.74418 11.7447 7.80667 11.8067C7.93158 11.9309 8.10054 12.0005 8.27667 12.0005C8.45279 12.0005 8.62176 11.9309 8.74667 11.8067L11.6067 8.94002C11.8571 8.69112 11.9985 8.35308 12 8.00003C11.9968 7.64929 11.8554 7.31396 11.6067 7.06669L8.74667 4.20003C8.68451 4.13831 8.6108 4.08943 8.52975 4.0562C8.44871 4.02296 8.36191 4.00602 8.27431 4.00633C8.18671 4.00664 8.10004 4.0242 8.01923 4.058C7.93842 4.09181 7.86506 4.1412 7.80333 4.20336C7.74161 4.26552 7.69274 4.33923 7.6595 4.42028C7.62627 4.50132 7.60932 4.58812 7.60963 4.67572C7.60994 4.76332 7.6275 4.84999 7.66131 4.9308C7.69512 5.01161 7.74451 5.08497 7.80667 5.1467L10 7.33336L3.33333 7.33336C3.15652 7.33336 2.98695 7.4036 2.86193 7.52862C2.7369 7.65365 2.66667 7.82321 2.66667 8.00002C2.66667 8.17684 2.7369 8.3464 2.86193 8.47143C2.98695 8.59645 3.15652 8.66669 3.33333 8.66669Z" fill="#374957"/>
</svg>
