<svg width="40" height="40" viewBox="0 0 40 40" fill="none" xmlns="http://www.w3.org/2000/svg">
<path d="M38.3333 29.85C38.3666 31.1 38.0333 32.2833 37.4333 33.3C37.0999 33.9 36.65 34.45 36.15 34.9C35 35.9667 33.4833 36.6167 31.7999 36.6667C29.3666 36.7167 27.2166 35.4667 26.0333 33.55C25.4 32.5667 25.0166 31.3834 25 30.1334C24.95 28.0334 25.8833 26.1333 27.3833 24.8833C28.5166 23.95 29.95 23.3667 31.5166 23.3333C35.2 23.25 38.25 26.1666 38.3333 29.85Z" stroke="white" stroke-width="1.5" stroke-miterlimit="10" stroke-linecap="round" stroke-linejoin="round"/>
<path d="M29.0664 30.0501L30.7498 31.65L34.2331 28.2833" stroke="white" stroke-width="1.5" stroke-linecap="round" stroke-linejoin="round"/>
<path d="M5.2832 12.4L19.9998 20.9167L34.6165 12.45" stroke="white" stroke-width="1.5" stroke-linecap="round" stroke-linejoin="round"/>
<path d="M20 36.0167V20.9" stroke="white" stroke-width="1.5" stroke-linecap="round" stroke-linejoin="round"/>
<path d="M36.0157 15.2833V24.7167C36.0157 24.8001 36.0157 24.8667 35.9991 24.95C34.8324 23.9333 33.3324 23.3334 31.6657 23.3334C30.0991 23.3334 28.6491 23.8834 27.4991 24.8C25.9657 26.0167 24.9991 27.9 24.9991 30C24.9991 31.25 25.349 32.4334 25.9657 33.4334C26.1157 33.7 26.2991 33.9501 26.4991 34.1834L23.4491 35.8667C21.5491 36.9334 18.4491 36.9334 16.5491 35.8667L7.64906 30.9334C5.63239 29.8167 3.98242 27.0167 3.98242 24.7167V15.2833C3.98242 12.9833 5.63239 10.1834 7.64906 9.06671L16.5491 4.13334C18.4491 3.06668 21.5491 3.06668 23.4491 4.13334L32.3491 9.06671C34.3657 10.1834 36.0157 12.9833 36.0157 15.2833Z" stroke="white" stroke-width="1.5" stroke-linecap="round" stroke-linejoin="round"/>
</svg>
