<svg width="32" height="32" viewBox="0 0 32 32" fill="none" xmlns="http://www.w3.org/2000/svg">
<path d="M16.0013 24.2667C18.9468 24.2667 21.3346 21.8789 21.3346 18.9333C21.3346 15.9878 18.9468 13.6 16.0013 13.6C13.0558 13.6 10.668 15.9878 10.668 18.9333C10.668 21.8789 13.0558 24.2667 16.0013 24.2667Z" stroke="#FFA500" stroke-width="1.5" stroke-miterlimit="10" stroke-linecap="round" stroke-linejoin="round"/>
<path d="M13.9219 19.0667L14.7885 19.9333C15.0419 20.1867 15.4552 20.1867 15.7085 19.9467L18.0819 17.76" stroke="#FFA500" stroke-width="1.5" stroke-linecap="round" stroke-linejoin="round"/>
<path d="M10.6677 29.3333H21.3344C26.6944 29.3333 27.6544 27.1867 27.9344 24.5733L28.9344 13.9067C29.2944 10.6533 28.3611 8 22.6677 8H9.3344C3.64107 8 2.70774 10.6533 3.06774 13.9067L4.06774 24.5733C4.34774 27.1867 5.30774 29.3333 10.6677 29.3333Z" stroke="#FFA500" stroke-width="1.5" stroke-miterlimit="10" stroke-linecap="round" stroke-linejoin="round"/>
<path d="M10.668 8V6.93333C10.668 4.57333 10.668 2.66666 14.9346 2.66666H17.068C21.3346 2.66666 21.3346 4.57333 21.3346 6.93333V8" stroke="#FFA500" stroke-width="1.5" stroke-miterlimit="10" stroke-linecap="round" stroke-linejoin="round"/>
<path d="M28.8677 14.6667C26.561 16.3467 24.001 17.52 21.3477 18.1867" stroke="#FFA500" stroke-width="1.5" stroke-miterlimit="10" stroke-linecap="round" stroke-linejoin="round"/>
<path d="M3.49219 15.0267C5.71885 16.5467 8.14552 17.6267 10.6655 18.24" stroke="#FFA500" stroke-width="1.5" stroke-miterlimit="10" stroke-linecap="round" stroke-linejoin="round"/>
</svg>
