<svg width="10" height="9" viewBox="0 0 10 9" fill="none" xmlns="http://www.w3.org/2000/svg">
<path d="M1.37963 4.6746C1.19992 4.46494 0.884267 4.44066 0.674604 4.62037C0.464941 4.80008 0.440661 5.11573 0.620372 5.3254L1.37963 4.6746ZM9.43412 1.24807C9.57113 1.00831 9.48783 0.702883 9.24807 0.565878C9.00831 0.428873 8.70288 0.512172 8.56588 0.751931L9.43412 1.24807ZM0.620372 5.3254L3.12547 8.24801L3.88472 7.59722L1.37963 4.6746L0.620372 5.3254ZM5.56713 8.01531C6.94193 5.60941 7.89748 3.9372 9.43412 1.24807L8.56588 0.751931C7.02923 3.44106 6.07369 5.11327 4.69888 7.51917L5.56713 8.01531ZM3.12547 8.24801C3.80094 9.03606 5.0528 8.91539 5.56713 8.01531L4.69888 7.51917C4.52702 7.81993 4.10933 7.85926 3.88472 7.59722L3.12547 8.24801Z" fill="white"/>
</svg>
