<svg width="16" height="16" viewBox="0 0 16 16" fill="none" xmlns="http://www.w3.org/2000/svg">
<g clip-path="url(#clip0_321_2506)">
<path d="M8.66675 6.41667L8.66675 15.5833C8.66675 15.8135 8.36827 16 8.00008 16C7.63189 16 7.33341 15.8135 7.33341 15.5833L7.33341 6.41667C7.33341 6.18655 7.63189 6 8.00008 6C8.36827 6 8.66675 6.18655 8.66675 6.41667Z" fill="#374957"/>
<path d="M13.3333 0.666669L13.3333 15.3333C13.3333 15.7015 13.0348 16 12.6666 16C12.2984 16 11.9999 15.7015 11.9999 15.3333L11.9999 0.666669C11.9999 0.298479 12.2984 1.86211e-06 12.6666 1.87821e-06C13.0348 1.8943e-06 13.3333 0.298479 13.3333 0.666669Z" fill="#374957"/>
<path d="M4 4.30556L4 15.6944C4 15.8632 3.70152 16 3.33333 16C2.96514 16 2.66666 15.8632 2.66666 15.6944L2.66667 4.30556C2.66667 4.1368 2.96514 4 3.33333 4C3.70152 4 4 4.1368 4 4.30556Z" fill="#374957"/>
</g>
<defs>
<clipPath id="clip0_321_2506">
<rect width="16" height="16" fill="white" transform="matrix(4.37114e-08 -1 -1 -4.37114e-08 16 16)"/>
</clipPath>
</defs>
</svg>
