<svg width="15" height="15" viewBox="0 0 15 15" fill="none" xmlns="http://www.w3.org/2000/svg">
<g clip-path="url(#clip0_677_16381)">
<path d="M10.5061 8.67617C10.5061 8.83783 10.4419 8.99286 10.3276 9.10717C10.2133 9.22148 10.0583 9.28569 9.89662 9.28569H5.02042C4.85877 9.28569 4.70373 9.22148 4.58943 9.10717C4.47512 8.99286 4.4109 8.83783 4.4109 8.67617C4.4109 8.51451 4.47512 8.35948 4.58943 8.24517C4.70373 8.13086 4.85877 8.06665 5.02042 8.06665H9.89662C10.0583 8.06665 10.2133 8.13086 10.3276 8.24517C10.4419 8.35948 10.5061 8.51451 10.5061 8.67617ZM8.06804 10.5047H5.02042C4.85877 10.5047 4.70373 10.569 4.58943 10.6833C4.47512 10.7976 4.4109 10.9526 4.4109 11.1143C4.4109 11.2759 4.47512 11.431 4.58943 11.5453C4.70373 11.6596 4.85877 11.7238 5.02042 11.7238H8.06804C8.2297 11.7238 8.38473 11.6596 8.49904 11.5453C8.61335 11.431 8.67757 11.2759 8.67757 11.1143C8.67757 10.9526 8.61335 10.7976 8.49904 10.6833C8.38473 10.569 8.2297 10.5047 8.06804 10.5047ZM13.5538 6.53369V11.7238C13.5528 12.5318 13.2314 13.3064 12.6601 13.8777C12.0887 14.449 11.3141 14.7704 10.5061 14.7714H4.4109C3.60292 14.7704 2.82831 14.449 2.25698 13.8777C1.68565 13.3064 1.36425 12.5318 1.36328 11.7238V3.19046C1.36425 2.38247 1.68565 1.60786 2.25698 1.03653C2.82831 0.465202 3.60292 0.143804 4.4109 0.142836H7.1629C7.72343 0.141394 8.27868 0.25108 8.79656 0.465554C9.31444 0.680028 9.78466 0.995035 10.18 1.39236L12.3036 3.51716C12.7012 3.91228 13.0164 4.38235 13.231 4.90015C13.4456 5.41796 13.5553 5.97319 13.5538 6.53369ZM9.31818 2.25423C9.12635 2.06842 8.91097 1.90858 8.67757 1.7788V4.4095C8.67757 4.57116 8.74179 4.72619 8.85609 4.8405C8.9704 4.95481 9.12544 5.01903 9.28709 5.01903H11.9178C11.7879 4.78569 11.6279 4.57051 11.4418 4.37903L9.31818 2.25423ZM12.3347 6.53369C12.3347 6.43312 12.3152 6.33682 12.3061 6.23807H9.28709C8.80212 6.23807 8.33702 6.04542 7.9941 5.7025C7.65117 5.35957 7.45852 4.89447 7.45852 4.4095V1.39053C7.35978 1.38139 7.26286 1.36188 7.1629 1.36188H4.4109C3.92593 1.36188 3.46083 1.55454 3.11791 1.89746C2.77498 2.24038 2.58233 2.70549 2.58233 3.19046V11.7238C2.58233 12.2088 2.77498 12.6739 3.11791 13.0168C3.46083 13.3597 3.92593 13.5524 4.4109 13.5524H10.5061C10.9911 13.5524 11.4562 13.3597 11.7991 13.0168C12.1421 12.6739 12.3347 12.2088 12.3347 11.7238V6.53369Z" fill="white"/>
</g>
<defs>
<clipPath id="clip0_677_16381">
<rect width="14.6286" height="14.6286" fill="white" transform="translate(0.144531 0.142822)"/>
</clipPath>
</defs>
</svg>
