<svg width="40" height="40" viewBox="0 0 40 40" fill="none" xmlns="http://www.w3.org/2000/svg">
<path d="M30.066 22.5833C29.366 23.2667 28.966 24.25 29.066 25.3C29.216 27.1 30.866 28.4167 32.666 28.4167H35.8327V30.4C35.8327 33.85 33.016 36.6667 29.566 36.6667H12.716C13.2327 36.2334 13.6827 35.7 14.0327 35.1C14.6493 34.1 14.9993 32.9167 14.9993 31.6667C14.9993 27.9834 12.016 25 8.33268 25C6.76602 25 5.31602 25.55 4.16602 26.4667V19.1834C4.16602 15.7334 6.98267 12.9167 10.4327 12.9167H29.566C33.016 12.9167 35.8327 15.7334 35.8327 19.1834V21.5834H32.466C31.5327 21.5834 30.6827 21.95 30.066 22.5833Z" stroke="white" stroke-width="1.5" stroke-linecap="round" stroke-linejoin="round"/>
<path d="M4.16602 20.6833V13.0667C4.16602 11.0834 5.38268 9.31668 7.23268 8.61668L20.466 3.61668C22.5327 2.83334 24.7494 4.36672 24.7494 6.58339V12.9167" stroke="white" stroke-width="1.5" stroke-linecap="round" stroke-linejoin="round"/>
<path d="M37.5974 23.2836V26.717C37.5974 27.6337 36.864 28.3836 35.9307 28.4169H32.664C30.864 28.4169 29.214 27.1003 29.064 25.3003C28.964 24.2503 29.364 23.2669 30.064 22.5836C30.6807 21.9503 31.5307 21.5836 32.464 21.5836H35.9307C36.864 21.617 37.5974 22.3669 37.5974 23.2836Z" stroke="white" stroke-width="1.5" stroke-linecap="round" stroke-linejoin="round"/>
<path d="M11.666 20H23.3327" stroke="white" stroke-width="1.5" stroke-linecap="round" stroke-linejoin="round"/>
<path d="M14.9993 31.6667C14.9993 32.9167 14.6493 34.1 14.0327 35.1C13.6827 35.7 13.2327 36.2333 12.716 36.6667C11.5494 37.7167 10.016 38.3333 8.33268 38.3333C5.89935 38.3333 3.78269 37.0333 2.63269 35.1C2.01602 34.1 1.66602 32.9167 1.66602 31.6667C1.66602 29.5667 2.63268 27.6833 4.16602 26.4667C5.31602 25.55 6.76602 25 8.33268 25C12.016 25 14.9993 27.9833 14.9993 31.6667Z" stroke="white" stroke-width="1.5" stroke-miterlimit="10" stroke-linecap="round" stroke-linejoin="round"/>
<path d="M5.73438 31.6659L7.38436 33.3158L10.9344 30.0326" stroke="white" stroke-width="1.5" stroke-linecap="round" stroke-linejoin="round"/>
</svg>
