<svg width="145" height="73" viewBox="0 0 145 73" fill="none" xmlns="http://www.w3.org/2000/svg">
<mask id="path-1-outside-1_525_491" maskUnits="userSpaceOnUse" x="1" y="49" width="144" height="24" fill="black">
<rect fill="white" x="1" y="49" width="144" height="24"/>
<path d="M10.9703 61.199C11.442 60.2326 12.0645 59.503 12.838 59.0103C13.6303 58.4987 14.4604 58.2429 15.3281 58.2429C16.5921 58.2429 17.6768 58.7071 18.5824 59.6357C19.5068 60.5642 19.9689 61.8053 19.9689 63.3592V71.3178C19.9689 71.4505 19.9124 71.5736 19.7992 71.6873C19.7048 71.7821 19.5916 71.8295 19.4596 71.8295C19.3275 71.8295 19.2143 71.7821 19.12 71.6873C19.0257 71.5736 18.9785 71.4505 18.9785 71.3178V63.3592C18.9785 62.0706 18.6012 61.0663 17.8466 60.3463C17.1109 59.6072 16.2525 59.2377 15.2716 59.2377C14.2717 59.2377 13.385 59.6357 12.6116 60.4315C11.857 61.2084 11.4797 62.1843 11.4797 63.3592V71.3463C11.4797 71.6684 11.3099 71.8295 10.9703 71.8295C10.6496 71.8295 10.4893 71.6684 10.4893 71.3463V63.3592C10.4893 62.1843 10.1025 61.2084 9.32907 60.4315C8.5556 59.6357 7.65951 59.2377 6.6408 59.2377C5.67868 59.2377 4.82976 59.6072 4.09402 60.3463C3.35828 61.0663 2.99041 62.0706 2.99041 63.3592V71.3463C2.99041 71.4789 2.93382 71.5926 2.82063 71.6873C2.7263 71.7821 2.61311 71.8295 2.48106 71.8295C2.349 71.8295 2.23581 71.7821 2.14149 71.6873C2.04716 71.5926 2 71.4789 2 71.3463V63.3592C2 61.8053 2.44333 60.5642 3.32999 59.6357C4.23551 58.7071 5.30138 58.2429 6.52761 58.2429C7.3954 58.2429 8.22546 58.4987 9.01779 59.0103C9.81012 59.503 10.461 60.2326 10.9703 61.199ZM38.3544 58.4134H40.9861C42.7217 58.4134 43.995 58.8777 44.8062 59.8062C45.6174 60.7158 46.023 61.9285 46.023 63.4444V71.3178C46.023 71.6589 45.8627 71.8295 45.542 71.8295C45.4099 71.8295 45.2873 71.7821 45.1741 71.6873C45.0798 71.5926 45.0326 71.4694 45.0326 71.3178V69.8398C43.7875 71.2799 42.3727 72 40.788 72C39.6184 72 38.6657 71.6873 37.9299 71.062C37.2131 70.4177 36.8546 69.4798 36.8546 68.2481C36.8546 66.8269 37.4111 65.851 38.5242 65.3204C39.6561 64.7709 41.2973 64.4961 43.448 64.4961H45.0326V63.4444C45.0326 62.2885 44.6836 61.3316 43.9856 60.5736C43.3065 59.7967 42.3066 59.4083 40.9861 59.4083H38.3544C38.2223 59.4083 38.0997 59.3609 37.9865 59.2661C37.8922 59.1525 37.845 59.0293 37.845 58.8966C37.845 58.5745 38.0148 58.4134 38.3544 58.4134ZM45.0326 67.8786V65.491H43.4763C42.6273 65.491 41.9105 65.5194 41.3256 65.5762C40.7597 65.6331 40.1843 65.7562 39.5995 65.9457C39.0147 66.1163 38.5713 66.4005 38.2695 66.7984C37.9865 67.1774 37.845 67.6606 37.845 68.2481C37.845 69.1576 38.1091 69.8493 38.6374 70.323C39.1845 70.7778 39.8919 71.0052 40.7597 71.0052C41.7784 71.0052 42.7405 70.6451 43.646 69.9251C44.5704 69.205 45.0326 68.5228 45.0326 67.8786ZM68.2897 58.2429H68.9971C69.299 58.2429 69.4499 58.404 69.4499 58.7261C69.4499 59.0672 69.299 59.2377 68.9971 59.2377H68.2897C67.2332 59.2377 66.3654 59.7304 65.6863 60.7158C65.026 61.7011 64.6959 62.8286 64.6959 64.0982V71.3463C64.6959 71.4789 64.6393 71.5926 64.5261 71.6873C64.4318 71.7821 64.3186 71.8295 64.1865 71.8295C64.0545 71.8295 63.9413 71.7821 63.847 71.6873C63.7526 71.5926 63.7055 71.4789 63.7055 71.3463V64.0982C63.7055 62.5444 64.1394 61.18 65.0072 60.0052C65.8938 58.8303 66.988 58.2429 68.2897 58.2429ZM86.4375 50C86.777 50 86.9468 50.1611 86.9468 50.4832V65.2067L94.5872 58.5271C94.7004 58.4513 94.7947 58.4134 94.8701 58.4134C95.2286 58.4134 95.4078 58.565 95.4078 58.8682C95.4078 59.0577 95.3512 59.1998 95.238 59.2946L90.6821 63.2739L95.9171 71.0336C95.9737 71.1094 96.002 71.2041 96.002 71.3178C96.002 71.4505 95.9549 71.5736 95.8605 71.6873C95.7662 71.7821 95.653 71.8295 95.521 71.8295C95.3701 71.8295 95.238 71.7442 95.1248 71.5736L89.9181 63.9276L86.9468 66.5426V71.3178C86.9468 71.4505 86.8902 71.5736 86.777 71.6873C86.6827 71.7821 86.5695 71.8295 86.4375 71.8295C86.3054 71.8295 86.1922 71.7821 86.0979 71.6873C86.0036 71.5736 85.9564 71.4505 85.9564 71.3178V50.4832C85.9564 50.1611 86.1168 50 86.4375 50ZM116.57 58.2429C117.928 58.2429 119.098 58.7356 120.079 59.7209C121.079 60.6873 121.579 61.9001 121.579 63.3592C121.579 63.8519 121.522 64.2498 121.409 64.553C121.296 64.8562 121.107 65.0741 120.843 65.2067C120.579 65.3394 120.334 65.4246 120.107 65.4625C119.9 65.4815 119.607 65.491 119.23 65.491H112.524V66.8269C112.524 68.0965 112.967 69.1102 113.854 69.8682C114.74 70.6262 115.891 71.0052 117.306 71.0052C118.004 71.0052 118.589 70.9104 119.06 70.7209C119.532 70.5125 119.881 70.3135 120.107 70.124C120.353 69.9345 120.532 69.8398 120.645 69.8398C120.777 69.8398 120.89 69.8966 120.985 70.0103C121.098 70.124 121.154 70.2377 121.154 70.3514C121.154 70.5409 121.003 70.7683 120.702 71.0336C120.4 71.2799 119.938 71.5073 119.315 71.7158C118.692 71.9053 118.004 72 117.249 72C115.57 72 114.193 71.5263 113.118 70.5788C112.061 69.6124 111.533 68.3618 111.533 66.8269V63.2739C111.533 61.9096 112.024 60.7347 113.005 59.7494C114.005 58.745 115.193 58.2429 116.57 58.2429ZM112.524 64.4961H118.891C119.589 64.4961 120.041 64.4298 120.249 64.2972C120.475 64.1645 120.588 63.8803 120.588 63.4444C120.588 62.3643 120.211 61.3979 119.457 60.5452C118.702 59.6736 117.74 59.2377 116.57 59.2377C115.438 59.2377 114.476 59.6451 113.684 60.4599C112.91 61.2558 112.524 62.1938 112.524 63.2739V64.4961ZM138.708 67.8786V52.3307C138.708 52.1981 138.756 52.0844 138.85 51.9897C138.963 51.8949 139.076 51.8475 139.189 51.8475C139.321 51.8475 139.435 51.8949 139.529 51.9897C139.642 52.0844 139.699 52.1981 139.699 52.3307V58.4134H143.519C143.651 58.4134 143.764 58.4703 143.859 58.584C143.953 58.6787 144 58.7924 144 58.9251C144 59.0577 143.953 59.1714 143.859 59.2661C143.764 59.3609 143.651 59.4083 143.519 59.4083H139.699V67.8786C139.699 68.9587 139.935 69.7261 140.406 70.1809C140.878 70.6167 141.689 70.8346 142.84 70.8346H143.491C143.623 70.8346 143.736 70.882 143.83 70.9767C143.925 71.0715 143.972 71.1852 143.972 71.3178C143.972 71.4505 143.925 71.5736 143.83 71.6873C143.736 71.7821 143.623 71.8295 143.491 71.8295H142.84C140.086 71.8295 138.708 70.5125 138.708 67.8786Z"/>
</mask>
<path d="M10.9703 61.199L10.0857 61.6652L11.0046 63.4088L11.869 61.6375L10.9703 61.199ZM12.838 59.0103L13.3752 59.8538L13.3804 59.8504L12.838 59.0103ZM18.5824 59.6357L17.8664 60.3339L17.8737 60.3412L18.5824 59.6357ZM19.7992 71.6873L19.0905 70.9818L19.0905 70.9818L19.7992 71.6873ZM19.12 71.6873L18.3504 72.3258L18.3794 72.3607L18.4113 72.3929L19.12 71.6873ZM17.8466 60.3463L17.138 61.0518L17.147 61.0609L17.1563 61.0697L17.8466 60.3463ZM12.6116 60.4315L11.8945 59.7346L11.8942 59.7348L12.6116 60.4315ZM9.32907 60.4315L8.61189 61.1285L8.62039 61.1371L9.32907 60.4315ZM4.09402 60.3463L4.79353 61.061L4.8027 61.0518L4.09402 60.3463ZM2.82063 71.6873L2.17876 70.9205L2.14397 70.9496L2.11195 70.9818L2.82063 71.6873ZM2.14149 71.6873L2.85017 70.9818H2.85017L2.14149 71.6873ZM3.32999 59.6357L2.61403 58.9374L2.60677 58.945L3.32999 59.6357ZM9.01779 59.0103L8.47533 59.8504L8.4825 59.855L8.48974 59.8595L9.01779 59.0103ZM44.8062 59.8062L44.0531 60.4642L44.0599 60.4718L44.8062 59.8062ZM45.1741 71.6873L44.4654 72.3929L44.4974 72.425L44.5322 72.4542L45.1741 71.6873ZM45.0326 69.8398H46.0326V67.1541L44.2761 69.1858L45.0326 69.8398ZM37.9299 71.062L37.2615 71.8058L37.2718 71.815L37.2823 71.824L37.9299 71.062ZM38.5242 65.3204L38.9545 66.2231L38.9609 66.22L38.5242 65.3204ZM45.0326 64.4961V65.4961H46.0326V64.4961H45.0326ZM43.9856 60.5736L43.2327 61.2318L43.2412 61.2415L43.25 61.2511L43.9856 60.5736ZM37.9865 59.2661L37.2169 59.9047L37.275 59.9746L37.3447 60.033L37.9865 59.2661ZM45.0326 65.491H46.0326V64.491H45.0326V65.491ZM41.3256 65.5762L41.2289 64.5809L41.2257 64.5812L41.3256 65.5762ZM39.5995 65.9457L39.8794 66.9057L39.8937 66.9016L39.9077 66.897L39.5995 65.9457ZM38.2695 66.7984L37.4728 66.1941L37.4682 66.2002L38.2695 66.7984ZM38.6374 70.323L37.9697 71.0675L37.9837 71.08L37.9981 71.092L38.6374 70.323ZM43.646 69.9251L43.0315 69.1361L43.0236 69.1424L43.646 69.9251ZM65.6863 60.7158L64.8629 60.1482L64.8556 60.1591L65.6863 60.7158ZM64.5261 71.6873L63.8842 70.9205L63.8494 70.9496L63.8174 70.9818L64.5261 71.6873ZM63.847 71.6873L63.1383 72.3929L63.847 71.6873ZM65.0072 60.0052L64.2089 59.4027L64.2028 59.411L65.0072 60.0052ZM86.9468 65.2067H85.9468V67.4092L87.605 65.9596L86.9468 65.2067ZM94.5872 58.5271L94.0308 57.6962L93.9774 57.732L93.929 57.7743L94.5872 58.5271ZM95.238 59.2946L94.5961 58.5278L94.5881 58.5345L94.5802 58.5414L95.238 59.2946ZM90.6821 63.2739L90.0243 62.5207L89.3594 63.1014L89.8531 63.8332L90.6821 63.2739ZM95.9171 71.0336L95.0882 71.5929L95.1015 71.6127L95.1159 71.6319L95.9171 71.0336ZM95.8605 71.6873L96.5692 72.3929L96.6012 72.3607L96.6302 72.3258L95.8605 71.6873ZM95.1248 71.5736L95.9581 71.0206L95.9514 71.0108L95.1248 71.5736ZM89.9181 63.9276L90.7446 63.3648L90.1073 62.4289L89.2574 63.177L89.9181 63.9276ZM86.9468 66.5426L86.2862 65.792L85.9468 66.0906V66.5426H86.9468ZM86.777 71.6873L87.4857 72.3929L86.777 71.6873ZM86.0979 71.6873L85.3283 72.3258L85.3572 72.3607L85.3892 72.3929L86.0979 71.6873ZM120.079 59.7209L119.37 60.4265L119.377 60.4333L119.384 60.44L120.079 59.7209ZM120.107 65.4625L120.198 66.4584L120.236 66.455L120.272 66.4488L120.107 65.4625ZM112.524 65.491V64.491H111.524V65.491H112.524ZM113.854 69.8682L114.503 69.1081L113.854 69.8682ZM119.06 70.7209L119.433 71.6488L119.449 71.6425L119.465 71.6356L119.06 70.7209ZM120.107 70.124L119.496 69.3327L119.48 69.3447L119.465 69.3572L120.107 70.124ZM120.985 70.0103L120.215 70.6488L120.244 70.6837L120.276 70.7159L120.985 70.0103ZM120.702 71.0336L121.334 71.8083L121.348 71.7968L121.362 71.7847L120.702 71.0336ZM119.315 71.7158L119.606 72.6724L119.619 72.6684L119.633 72.664L119.315 71.7158ZM113.118 70.5788L112.443 71.3167L112.45 71.323L112.457 71.3291L113.118 70.5788ZM113.005 59.7494L113.713 60.4549L113.005 59.7494ZM112.524 64.4961H111.524V65.4961H112.524V64.4961ZM120.249 64.2972L119.743 63.4344L119.727 63.4441L119.71 63.4546L120.249 64.2972ZM119.457 60.5452L118.7 61.1998L118.708 61.2079L119.457 60.5452ZM113.684 60.4599L112.967 59.7628L112.967 59.763L113.684 60.4599ZM138.85 51.9897L138.208 51.2228L138.173 51.252L138.141 51.2841L138.85 51.9897ZM139.529 51.9897L138.82 52.6952L138.852 52.7274L138.887 52.7565L139.529 51.9897ZM139.699 58.4134H138.699V59.4134H139.699V58.4134ZM143.859 58.584L143.089 59.2225L143.118 59.2574L143.15 59.2895L143.859 58.584ZM143.859 59.2661L143.15 58.5606V58.5606L143.859 59.2661ZM139.699 59.4083V58.4083H138.699V59.4083H139.699ZM140.406 70.1809L139.712 70.9007L139.72 70.9081L139.728 70.9153L140.406 70.1809ZM143.83 70.9767L144.539 70.2712L143.83 70.9767ZM143.83 71.6873L144.539 72.3929L144.571 72.3607L144.6 72.3258L143.83 71.6873ZM11.869 61.6375C12.2739 60.8078 12.7824 60.2314 13.3752 59.8538L12.3007 58.1669C11.3466 58.7746 10.61 59.6573 10.0716 60.7604L11.869 61.6375ZM13.3804 59.8504C14.0257 59.4337 14.6695 59.2429 15.3281 59.2429V57.2429C14.2512 57.2429 13.2349 57.5637 12.2955 58.1703L13.3804 59.8504ZM15.3281 59.2429C16.3147 59.2429 17.1436 59.5927 17.8665 60.3338L19.2983 58.9375C18.2101 57.8216 16.8695 57.2429 15.3281 57.2429V59.2429ZM17.8737 60.3412C18.5773 61.0479 18.9689 62.017 18.9689 63.3592H20.9689C20.9689 61.5937 20.4362 60.0804 19.291 58.9301L17.8737 60.3412ZM18.9689 63.3592V71.3178H20.9689V63.3592H18.9689ZM18.9689 71.3178C18.9689 71.2368 18.9873 71.1586 19.0178 71.0922C19.0468 71.0291 19.0789 70.9935 19.0905 70.9818L20.5078 72.3929C20.7659 72.1337 20.9689 71.7687 20.9689 71.3178H18.9689ZM19.0905 70.9818C19.1273 70.9448 19.1829 70.9026 19.2574 70.8715C19.3322 70.8402 19.4033 70.8295 19.4596 70.8295V72.8295C19.8613 72.8295 20.2285 72.6735 20.5078 72.3929L19.0905 70.9818ZM19.4596 70.8295C19.5159 70.8295 19.587 70.8402 19.6617 70.8715C19.7362 70.9026 19.7919 70.9448 19.8287 70.9818L18.4113 72.3929C18.6907 72.6735 19.0579 72.8295 19.4596 72.8295V70.8295ZM19.8896 71.0488C19.9039 71.066 19.9279 71.1003 19.9478 71.1521C19.9682 71.2053 19.9785 71.2626 19.9785 71.3178H17.9785C17.9785 71.7104 18.1252 72.0544 18.3504 72.3258L19.8896 71.0488ZM19.9785 71.3178V63.3592H17.9785V71.3178H19.9785ZM19.9785 63.3592C19.9785 61.866 19.5341 60.5743 18.537 59.6228L17.1563 61.0697C17.6684 61.5584 17.9785 62.2752 17.9785 63.3592H19.9785ZM18.5553 59.6407C17.645 58.7264 16.5366 58.2377 15.2716 58.2377V60.2377C15.9685 60.2377 16.5768 60.4881 17.138 61.0518L18.5553 59.6407ZM15.2716 58.2377C13.9705 58.2377 12.8334 58.7684 11.8945 59.7346L13.3287 61.1285C13.9367 60.5029 14.5729 60.2377 15.2716 60.2377V58.2377ZM11.8942 59.7348C10.9422 60.715 10.4797 61.9484 10.4797 63.3592H12.4797C12.4797 62.4203 12.7718 61.7019 13.3289 61.1283L11.8942 59.7348ZM10.4797 63.3592V71.3463H12.4797V63.3592H10.4797ZM10.4797 71.3463C10.4797 71.3393 10.4841 71.1539 10.6641 70.9832C10.8342 70.8218 10.9987 70.8295 10.9703 70.8295V72.8295C11.2815 72.8295 11.7007 72.7566 12.0406 72.4341C12.3904 72.1023 12.4797 71.6753 12.4797 71.3463H10.4797ZM10.9703 70.8295C10.9709 70.8295 11.0122 70.8292 11.0774 70.851C11.1474 70.8745 11.2364 70.9209 11.3182 71.0031C11.4 71.0852 11.4456 71.1739 11.4684 71.2427C11.4793 71.2754 11.4844 71.3016 11.4868 71.3187C11.4892 71.3357 11.4893 71.3454 11.4893 71.3463H9.48927C9.48927 71.6603 9.56797 72.0798 9.90085 72.4142C10.2345 72.7494 10.6547 72.8295 10.9703 72.8295V70.8295ZM11.4893 71.3463V63.3592H9.48927V71.3463H11.4893ZM11.4893 63.3592C11.4893 61.9408 11.0121 60.7047 10.0377 59.726L8.62039 61.1371C9.193 61.7122 9.48927 62.4278 9.48927 63.3592H11.4893ZM10.0462 59.7346C9.10307 58.7641 7.95529 58.2377 6.6408 58.2377V60.2377C7.36373 60.2377 8.00813 60.5072 8.61194 61.1285L10.0462 59.7346ZM6.6408 58.2377C5.38904 58.2377 4.29136 58.7307 3.38534 59.6407L4.8027 61.0518C5.36815 60.4838 5.96833 60.2377 6.6408 60.2377V58.2377ZM3.39456 59.6316C2.42079 60.5846 1.99041 61.8734 1.99041 63.3592H3.99041C3.99041 62.2679 4.29577 61.548 4.79348 61.0609L3.39456 59.6316ZM1.99041 63.3592V71.3463H3.99041V63.3592H1.99041ZM1.99041 71.3463C1.99041 71.265 2.00905 71.1732 2.05275 71.0854C2.09503 71.0005 2.14667 70.9474 2.17876 70.9205L3.46249 72.4542C3.77379 72.1936 3.99041 71.8106 3.99041 71.3463H1.99041ZM2.11195 70.9818C2.14878 70.9448 2.2044 70.9026 2.27892 70.8715C2.35368 70.8402 2.42474 70.8295 2.48106 70.8295V72.8295C2.88279 72.8295 3.24994 72.6735 3.52931 72.3929L2.11195 70.9818ZM2.48106 70.8295C2.53738 70.8295 2.60844 70.8402 2.6832 70.8715C2.75772 70.9026 2.81334 70.9448 2.85017 70.9818L1.43281 72.3929C1.71218 72.6735 2.07933 72.8295 2.48106 72.8295V70.8295ZM2.85017 70.9818C2.88702 71.0188 2.92851 71.0742 2.95905 71.1479C2.98966 71.2216 3 71.2914 3 71.3463H1C1 71.7457 1.15357 72.1124 1.43281 72.3929L2.85017 70.9818ZM3 71.3463V63.3592H1V71.3463H3ZM3 63.3592C3 62.0052 3.3802 61.031 4.0532 60.3263L2.60677 58.945C1.50646 60.0973 1 61.6054 1 63.3592H3ZM4.0459 60.3338C4.77532 59.5859 5.5878 59.2429 6.52761 59.2429V57.2429C5.01496 57.2429 3.69569 57.8284 2.61407 58.9375L4.0459 60.3338ZM6.52761 59.2429C7.18626 59.2429 7.83004 59.4337 8.47533 59.8504L9.56025 58.1703C8.62088 57.5637 7.60454 57.2429 6.52761 57.2429V59.2429ZM8.48974 59.8595C9.10729 60.2435 9.64481 60.8288 10.0857 61.6652L11.855 60.7327C11.2771 59.6363 10.513 58.7625 9.54584 58.1611L8.48974 59.8595ZM38.3544 59.4134H40.9861V57.4134H38.3544V59.4134ZM40.9861 59.4134C42.5548 59.4134 43.4995 59.8304 44.0532 60.4641L45.5593 59.1483C44.4906 57.925 42.8885 57.4134 40.9861 57.4134V59.4134ZM44.0599 60.4718C44.6706 61.1565 45.023 62.1117 45.023 63.4444H47.023C47.023 61.7453 46.5643 60.275 45.5526 59.1406L44.0599 60.4718ZM45.023 63.4444V71.3178H47.023V63.4444H45.023ZM45.023 71.3178C45.023 71.349 45.0145 71.1864 45.1742 71.0165C45.3448 70.8351 45.5319 70.8295 45.542 70.8295V72.8295C45.8728 72.8295 46.3004 72.7385 46.6313 72.3866C46.9514 72.0461 47.023 71.6277 47.023 71.3178H45.023ZM45.542 70.8295C45.5986 70.8295 45.6572 70.8402 45.7113 70.8611C45.7641 70.8815 45.7987 70.9061 45.816 70.9205L44.5322 72.4542C44.8028 72.6806 45.1474 72.8295 45.542 72.8295V70.8295ZM45.8828 70.9818C45.9328 71.032 45.9748 71.0956 46.0019 71.1663C46.028 71.2346 46.0326 71.2894 46.0326 71.3178H44.0326C44.0326 71.6953 44.159 72.0851 44.4654 72.3929L45.8828 70.9818ZM46.0326 71.3178V69.8398H44.0326V71.3178H46.0326ZM44.2761 69.1858C43.1791 70.4547 42.0237 71 40.788 71V73C42.7216 73 44.396 72.1052 45.7891 70.4938L44.2761 69.1858ZM40.788 71C39.8034 71 39.0963 70.741 38.5776 70.3L37.2823 71.824C38.235 72.6337 39.4333 73 40.788 73V71ZM38.5984 70.3182C38.1479 69.9134 37.8546 69.2801 37.8546 68.2481H35.8546C35.8546 69.6794 36.2782 70.9221 37.2615 71.8058L38.5984 70.3182ZM37.8546 68.2481C37.8546 67.6659 37.9684 67.2477 38.1407 66.9456C38.308 66.6523 38.5634 66.4095 38.9545 66.2231L38.0939 64.4177C37.3719 64.7619 36.7926 65.2723 36.4033 65.9549C36.0191 66.6287 35.8546 67.409 35.8546 68.2481H37.8546ZM38.9609 66.22C39.8924 65.7678 41.3557 65.4961 43.448 65.4961V63.4961C41.239 63.4961 39.4197 63.774 38.0874 64.4208L38.9609 66.22ZM43.448 65.4961H45.0326V63.4961H43.448V65.4961ZM46.0326 64.4961V63.4444H44.0326V64.4961H46.0326ZM46.0326 63.4444C46.0326 62.0705 45.6103 60.8617 44.7212 59.8962L43.25 61.2511C43.7569 61.8015 44.0326 62.5065 44.0326 63.4444H46.0326ZM44.7385 59.9155C43.8191 58.8638 42.5087 58.4083 40.9861 58.4083V60.4083C42.1045 60.4083 42.7938 60.7297 43.2327 61.2318L44.7385 59.9155ZM40.9861 58.4083H38.3544V60.4083H40.9861V58.4083ZM38.3544 58.4083C38.411 58.4083 38.4696 58.419 38.5238 58.4399C38.5765 58.4603 38.6111 58.4849 38.6284 58.4993L37.3447 60.033C37.6152 60.2594 37.9598 60.4083 38.3544 60.4083V58.4083ZM38.7562 58.6276C38.7704 58.6448 38.7944 58.6791 38.8143 58.7309C38.8347 58.7841 38.845 58.8414 38.845 58.8966H36.845C36.845 59.2893 36.9917 59.6332 37.2169 59.9047L38.7562 58.6276ZM38.845 58.8966C38.845 58.9036 38.8406 59.089 38.6606 59.2597C38.4905 59.4211 38.326 59.4134 38.3544 59.4134V57.4134C38.0432 57.4134 37.6241 57.4863 37.2841 57.8088C36.9344 58.1406 36.845 58.5676 36.845 58.8966H38.845ZM46.0326 67.8786V65.491H44.0326V67.8786H46.0326ZM45.0326 64.491H43.4763V66.491H45.0326V64.491ZM43.4763 64.491C42.6079 64.491 41.8565 64.5199 41.2289 64.5809L41.4224 66.5715C41.9644 66.5188 42.6468 66.491 43.4763 66.491V64.491ZM41.2257 64.5812C40.5835 64.6457 39.9383 64.7848 39.2913 64.9944L39.9077 66.897C40.4303 66.7277 40.9359 66.6204 41.4256 66.5712L41.2257 64.5812ZM39.3195 64.9857C38.575 65.2028 37.9306 65.5905 37.4728 66.1941L39.0662 67.4028C39.2121 67.2105 39.4544 67.0297 39.8794 66.9057L39.3195 64.9857ZM37.4682 66.2002C37.0277 66.7901 36.845 67.498 36.845 68.2481H38.845C38.845 67.8232 38.9453 67.5648 39.0708 67.3967L37.4682 66.2002ZM36.845 68.2481C36.845 69.3563 37.1738 70.3537 37.9697 71.0675L39.305 69.5785C39.0445 69.3449 38.845 68.9589 38.845 68.2481H36.845ZM37.9981 71.092C38.7618 71.7269 39.7116 72.0052 40.7597 72.0052V70.0052C40.0722 70.0052 39.6071 69.8287 39.2766 69.554L37.9981 71.092ZM40.7597 72.0052C42.0348 72.0052 43.2113 71.5484 44.2684 70.7078L43.0236 69.1424C42.2698 69.7418 41.522 70.0052 40.7597 70.0052V72.0052ZM44.2606 70.714C45.2399 69.9511 46.0326 69.0095 46.0326 67.8786H44.0326C44.0326 68.0361 43.9009 68.4589 43.0315 69.1362L44.2606 70.714ZM68.2897 59.2429H68.9971V57.2429H68.2897V59.2429ZM68.9971 59.2429C68.9766 59.2429 68.7821 59.2343 68.607 59.0474C68.4433 58.8728 68.4499 58.7036 68.4499 58.7261H70.4499C70.4499 58.4265 70.381 58.0157 70.0664 57.68C69.7404 57.332 69.3194 57.2429 68.9971 57.2429V59.2429ZM68.4499 58.7261C68.4499 58.7705 68.4374 58.6171 68.5878 58.4471C68.7589 58.2538 68.96 58.2377 68.9971 58.2377V60.2377C69.336 60.2377 69.7636 60.1364 70.0856 59.7725C70.3869 59.432 70.4499 59.0227 70.4499 58.7261H68.4499ZM68.9971 58.2377H68.2897V60.2377H68.9971V58.2377ZM68.2897 58.2377C66.8567 58.2377 65.6999 58.9339 64.8629 60.1483L66.5097 61.2833C67.031 60.5269 67.6098 60.2377 68.2897 60.2377V58.2377ZM64.8556 60.1591C64.0771 61.3209 63.6959 62.645 63.6959 64.0982H65.6959C65.6959 63.0122 65.975 62.0813 66.517 61.2724L64.8556 60.1591ZM63.6959 64.0982V71.3463H65.6959V64.0982H63.6959ZM63.6959 71.3463C63.6959 71.265 63.7145 71.1732 63.7582 71.0854C63.8005 71.0004 63.8521 70.9474 63.8842 70.9205L65.168 72.4542C65.4792 72.1936 65.6959 71.8106 65.6959 71.3463H63.6959ZM63.8174 70.9818C63.8542 70.9448 63.9099 70.9026 63.9844 70.8715C64.0591 70.8402 64.1302 70.8295 64.1865 70.8295V72.8295C64.5883 72.8295 64.9554 72.6735 65.2348 72.3929L63.8174 70.9818ZM64.1865 70.8295C64.2429 70.8295 64.3139 70.8402 64.3887 70.8715C64.4632 70.9027 64.5188 70.9448 64.5556 70.9818L63.1383 72.3929C63.4176 72.6735 63.7848 72.8295 64.1865 72.8295V70.8295ZM64.5556 70.9818C64.5925 71.0188 64.634 71.0742 64.6645 71.1478C64.6951 71.2216 64.7055 71.2914 64.7055 71.3463H62.7055C62.7055 71.7457 62.8591 72.1124 63.1383 72.3929L64.5556 70.9818ZM64.7055 71.3463V64.0982H62.7055V71.3463H64.7055ZM64.7055 64.0982C64.7055 62.7437 65.0792 61.5908 65.8115 60.5993L64.2028 59.411C63.1996 60.7692 62.7055 62.345 62.7055 64.0982H64.7055ZM65.8054 60.6076C66.5313 59.6457 67.3458 59.2429 68.2897 59.2429V57.2429C66.6302 57.2429 65.2563 58.015 64.209 59.4028L65.8054 60.6076ZM86.4375 51C86.4659 51 86.3014 51.0077 86.1312 50.8463C85.9512 50.6755 85.9468 50.4901 85.9468 50.4832H87.9468C87.9468 50.1541 87.8575 49.7271 87.5077 49.3953C87.1678 49.0729 86.7486 49 86.4375 49V51ZM85.9468 50.4832V65.2067H87.9468V50.4832H85.9468ZM87.605 65.9596L95.2454 59.28L93.929 57.7743L86.2886 64.4539L87.605 65.9596ZM95.1436 59.358C95.1606 59.3466 95.1503 59.3558 95.1156 59.3698C95.0829 59.3829 94.9961 59.4134 94.8701 59.4134V57.4134C94.4928 57.4134 94.1935 57.5872 94.0308 57.6962L95.1436 59.358ZM94.8701 59.4134C94.9323 59.4134 94.7925 59.4301 94.6276 59.2906C94.5409 59.2173 94.4794 59.1262 94.4438 59.0359C94.4106 58.9516 94.4078 58.8888 94.4078 58.8682H96.4078C96.4078 58.5145 96.2954 58.0818 95.9192 57.7636C95.5751 57.4726 95.1664 57.4134 94.8701 57.4134V59.4134ZM94.4078 58.8682C94.4078 58.8655 94.408 58.818 94.4363 58.747C94.467 58.6698 94.5209 58.5908 94.5961 58.5278L95.8799 60.0614C96.2814 59.7253 96.4078 59.2632 96.4078 58.8682H94.4078ZM94.5802 58.5414L90.0243 62.5207L91.3399 64.0271L95.8959 60.0477L94.5802 58.5414ZM89.8531 63.8332L95.0882 71.5929L96.7461 70.4743L91.5111 62.7146L89.8531 63.8332ZM95.1159 71.6319C95.019 71.5022 95.002 71.375 95.002 71.3178H97.002C97.002 71.0332 96.9285 70.7166 96.7184 70.4353L95.1159 71.6319ZM95.002 71.3178C95.002 71.2626 95.0124 71.2053 95.0328 71.1521C95.0526 71.1003 95.0767 71.066 95.0909 71.0488L96.6302 72.3258C96.8553 72.0544 97.002 71.7104 97.002 71.3178H95.002ZM95.1519 70.9818C95.1887 70.9448 95.2443 70.9027 95.3188 70.8715C95.3936 70.8402 95.4647 70.8295 95.521 70.8295V72.8295C95.9227 72.8295 96.2899 72.6735 96.5692 72.3929L95.1519 70.9818ZM95.521 70.8295C95.6462 70.8295 95.7627 70.8682 95.8512 70.9254C95.8912 70.9513 95.9186 70.9763 95.9351 70.9935C95.9434 71.0021 95.9492 71.0091 95.9528 71.0136C95.9546 71.0159 95.9559 71.0177 95.9568 71.0189C95.9572 71.0195 95.9575 71.0199 95.9577 71.0202C95.9579 71.0205 95.958 71.0207 95.958 71.0207L94.2916 72.1266C94.5174 72.4667 94.9219 72.8295 95.521 72.8295V70.8295ZM95.9514 71.0108L90.7446 63.3648L89.0915 64.4905L94.2983 72.1365L95.9514 71.0108ZM89.2574 63.177L86.2862 65.792L87.6075 67.2933L90.5787 64.6783L89.2574 63.177ZM85.9468 66.5426V71.3178H87.9468V66.5426H85.9468ZM85.9468 71.3178C85.9468 71.2368 85.9652 71.1586 85.9957 71.0922C86.0247 71.0291 86.0567 70.9935 86.0684 70.9818L87.4857 72.3929C87.7438 72.1336 87.9468 71.7687 87.9468 71.3178H85.9468ZM86.0684 70.9818C86.1052 70.9448 86.1608 70.9026 86.2353 70.8715C86.3101 70.8402 86.3811 70.8295 86.4375 70.8295V72.8295C86.8392 72.8295 87.2064 72.6735 87.4857 72.3929L86.0684 70.9818ZM86.4375 70.8295C86.4938 70.8295 86.5648 70.8402 86.6396 70.8715C86.7141 70.9026 86.7698 70.9448 86.8066 70.9818L85.3892 72.3929C85.6686 72.6735 86.0357 72.8295 86.4375 72.8295V70.8295ZM86.8675 71.0488C86.8818 71.066 86.9058 71.1003 86.9257 71.1521C86.946 71.2053 86.9564 71.2626 86.9564 71.3178H84.9564C84.9564 71.7104 85.1031 72.0544 85.3283 72.3258L86.8675 71.0488ZM86.9564 71.3178V50.4832H84.9564V71.3178H86.9564ZM86.9564 50.4832C86.9564 50.484 86.9564 50.4938 86.954 50.5108C86.9515 50.5278 86.9464 50.5541 86.9356 50.5868C86.9127 50.6556 86.8671 50.7442 86.7854 50.8263C86.7035 50.9085 86.6146 50.955 86.5445 50.9785C86.4793 51.0003 86.438 51 86.4375 51V49C86.1218 49 85.7017 49.0801 85.368 49.4153C85.0351 49.7496 84.9564 50.1691 84.9564 50.4832H86.9564ZM116.57 59.2429C117.655 59.2429 118.572 59.6246 119.37 60.4265L120.788 59.0154C119.624 57.8465 118.201 57.2429 116.57 57.2429V59.2429ZM119.384 60.44C120.178 61.2078 120.579 62.1562 120.579 63.3592H122.579C122.579 61.6439 121.979 60.1669 120.774 59.0019L119.384 60.44ZM120.579 63.3592C120.579 63.7883 120.528 64.0544 120.472 64.2032L122.346 64.9027C122.517 64.4451 122.579 63.9154 122.579 63.3592H120.579ZM120.472 64.2032C120.438 64.2945 120.411 64.3049 120.394 64.3131L121.292 66.1003C121.804 65.8433 122.154 65.4179 122.346 64.9027L120.472 64.2032ZM120.394 64.3131C120.195 64.413 120.046 64.4588 119.942 64.4763L120.272 66.4488C120.621 66.3904 120.963 66.2657 121.292 66.1003L120.394 64.3131ZM120.016 64.4667C119.854 64.4815 119.597 64.491 119.23 64.491V66.491C119.618 66.491 119.946 66.4815 120.198 66.4584L120.016 64.4667ZM119.23 64.491H112.524V66.491H119.23V64.491ZM111.524 65.491V66.8269H113.524V65.491H111.524ZM111.524 66.8269C111.524 68.3596 112.074 69.6622 113.204 70.6283L114.503 69.1081C113.86 68.5583 113.524 67.8333 113.524 66.8269H111.524ZM113.204 70.6283C114.308 71.5723 115.706 72.0052 117.306 72.0052V70.0052C116.076 70.0052 115.172 69.68 114.503 69.1081L113.204 70.6283ZM117.306 72.0052C118.087 72.0052 118.808 71.9001 119.433 71.6488L118.688 69.793C118.37 69.9207 117.921 70.0052 117.306 70.0052V72.0052ZM119.465 71.6356C119.968 71.413 120.417 71.1692 120.749 70.8908L119.465 69.3572C119.345 69.4579 119.096 69.612 118.656 69.8063L119.465 71.6356ZM120.719 70.9153C120.766 70.879 120.804 70.8512 120.835 70.8306C120.867 70.8096 120.885 70.7989 120.893 70.7949C120.902 70.7902 120.888 70.7983 120.856 70.8089C120.839 70.8144 120.813 70.8218 120.779 70.828C120.745 70.8341 120.7 70.8398 120.645 70.8398V68.8398C120.343 68.8398 120.095 68.9547 119.958 69.0268C119.799 69.111 119.643 69.2192 119.496 69.3327L120.719 70.9153ZM120.645 70.8398C120.562 70.8398 120.469 70.8206 120.38 70.7761C120.295 70.7331 120.241 70.6808 120.215 70.6488L121.754 69.3718C121.495 69.0598 121.112 68.8398 120.645 68.8398V70.8398ZM120.276 70.7159C120.276 70.7157 120.247 70.6872 120.217 70.6264C120.184 70.5612 120.154 70.4665 120.154 70.3514H122.154C122.154 69.8807 121.916 69.5281 121.693 69.3048L120.276 70.7159ZM120.154 70.3514C120.154 70.2649 120.172 70.1991 120.186 70.1602C120.199 70.1226 120.211 70.106 120.208 70.1111C120.205 70.1158 120.192 70.1338 120.163 70.1651C120.135 70.1959 120.095 70.2351 120.041 70.2825L121.362 71.7847C121.551 71.6186 121.733 71.4298 121.874 71.2171C122.013 71.0082 122.154 70.7117 122.154 70.3514H120.154ZM120.069 70.2589C119.904 70.394 119.573 70.5748 118.998 70.7675L119.633 72.664C120.302 72.4398 120.896 72.1659 121.334 71.8083L120.069 70.2589ZM119.024 70.7591C118.509 70.9157 117.921 71 117.249 71V73C118.087 73 118.876 72.8948 119.606 72.6724L119.024 70.7591ZM117.249 71C115.77 71 114.641 70.5881 113.779 69.8285L112.457 71.3291C113.745 72.4645 115.371 73 117.249 73V71ZM113.793 69.841C112.96 69.0788 112.533 68.1038 112.533 66.8269H110.533C110.533 68.6197 111.163 70.146 112.443 71.3167L113.793 69.841ZM112.533 66.8269V63.2739H110.533V66.8269H112.533ZM112.533 63.2739C112.533 62.1796 112.915 61.2569 113.713 60.4549L112.296 59.0438C111.132 60.2126 110.533 61.6395 110.533 63.2739H112.533ZM113.713 60.4549C114.532 59.6329 115.468 59.2429 116.57 59.2429V57.2429C114.918 57.2429 113.477 57.8571 112.296 59.0438L113.713 60.4549ZM112.524 65.4961H118.891V63.4961H112.524V65.4961ZM118.891 65.4961C119.266 65.4961 119.606 65.4786 119.899 65.4358C120.165 65.3968 120.501 65.3225 120.787 65.1397L119.71 63.4546C119.76 63.4227 119.785 63.4187 119.759 63.4267C119.736 63.4337 119.688 63.4453 119.609 63.4569C119.448 63.4804 119.213 63.4961 118.891 63.4961V65.4961ZM120.754 65.16C121.451 64.7519 121.588 63.9919 121.588 63.4444H119.588C119.588 63.5111 119.584 63.5578 119.579 63.5876C119.575 63.6176 119.571 63.6243 119.574 63.6145C119.579 63.6039 119.592 63.5745 119.622 63.5377C119.653 63.4996 119.694 63.463 119.743 63.4344L120.754 65.16ZM121.588 63.4444C121.588 62.1061 121.112 60.9072 120.205 59.8825L118.708 61.2079C119.31 61.8886 119.588 62.6226 119.588 63.4444H121.588ZM120.213 59.8907C119.265 58.796 118.025 58.2377 116.57 58.2377V60.2377C117.454 60.2377 118.139 60.5511 118.7 61.1997L120.213 59.8907ZM116.57 58.2377C115.167 58.2377 113.947 58.7553 112.967 59.7628L114.401 61.1571C115.006 60.535 115.71 60.2377 116.57 60.2377V58.2377ZM112.967 59.763C112.017 60.7398 111.524 61.9257 111.524 63.2739H113.524C113.524 62.4619 113.803 61.7718 114.401 61.1569L112.967 59.763ZM111.524 63.2739V64.4961H113.524V63.2739H111.524ZM139.708 67.8786V52.3307H137.708V67.8786H139.708ZM139.708 52.3307C139.708 52.3856 139.698 52.4553 139.667 52.5291C139.637 52.6028 139.595 52.6582 139.559 52.6952L138.141 51.2841C137.862 51.5646 137.708 51.9314 137.708 52.3307H139.708ZM139.492 52.7565C139.48 52.7659 139.374 52.8475 139.189 52.8475V50.8475C138.778 50.8475 138.446 51.0239 138.208 51.2228L139.492 52.7565ZM139.189 52.8475C139.133 52.8475 139.062 52.8368 138.987 52.8055C138.913 52.7744 138.857 52.7322 138.82 52.6952L140.238 51.2841C139.958 51.0035 139.591 50.8475 139.189 50.8475V52.8475ZM138.887 52.7565C138.855 52.7296 138.803 52.6765 138.761 52.5916C138.717 52.5038 138.699 52.412 138.699 52.3307H140.699C140.699 51.8665 140.482 51.4835 140.171 51.2228L138.887 52.7565ZM138.699 52.3307V58.4134H140.699V52.3307H138.699ZM139.699 59.4134H143.519V57.4134H139.699V59.4134ZM143.519 59.4134C143.436 59.4134 143.343 59.3942 143.254 59.3497C143.168 59.3067 143.115 59.2544 143.089 59.2225L144.628 57.9455C144.369 57.6335 143.986 57.4134 143.519 57.4134V59.4134ZM143.15 59.2895C143.113 59.2525 143.072 59.1971 143.041 59.1235C143.01 59.0497 143 58.9799 143 58.9251H145C145 58.5256 144.846 58.1589 144.567 57.8784L143.15 59.2895ZM143 58.9251C143 58.8702 143.01 58.8004 143.041 58.7266C143.072 58.653 143.113 58.5976 143.15 58.5606L144.567 59.9717C144.846 59.6912 145 59.3245 145 58.9251H143ZM143.15 58.5606C143.187 58.5236 143.242 58.4815 143.317 58.4503C143.392 58.419 143.463 58.4083 143.519 58.4083V60.4083C143.921 60.4083 144.288 60.2523 144.567 59.9717L143.15 58.5606ZM143.519 58.4083H139.699V60.4083H143.519V58.4083ZM138.699 59.4083V67.8786H140.699V59.4083H138.699ZM138.699 67.8786C138.699 69.0619 138.95 70.1661 139.712 70.9007L141.1 69.461C140.919 69.2861 140.699 68.8554 140.699 67.8786H138.699ZM139.728 70.9153C140.484 71.6139 141.618 71.8346 142.84 71.8346V69.8346C141.76 69.8346 141.272 69.6195 141.085 69.4465L139.728 70.9153ZM142.84 71.8346H143.491V69.8346H142.84V71.8346ZM143.491 71.8346C143.434 71.8346 143.363 71.8239 143.289 71.7926C143.214 71.7614 143.158 71.7193 143.122 71.6823L144.539 70.2712C144.26 69.9906 143.892 69.8346 143.491 69.8346V71.8346ZM143.122 71.6823C143.085 71.6452 143.043 71.5898 143.013 71.5162C142.982 71.4424 142.972 71.3727 142.972 71.3178H144.972C144.972 70.9184 144.818 70.5517 144.539 70.2712L143.122 71.6823ZM142.972 71.3178C142.972 71.2626 142.982 71.2054 143.002 71.1521C143.022 71.1003 143.046 71.0661 143.061 71.0488L144.6 72.3258C144.825 72.0544 144.972 71.7104 144.972 71.3178H142.972ZM143.122 70.9818C143.158 70.9448 143.214 70.9026 143.289 70.8715C143.363 70.8402 143.434 70.8295 143.491 70.8295V72.8295C143.892 72.8295 144.26 72.6735 144.539 72.3929L143.122 70.9818ZM143.491 70.8295H142.84V72.8295H143.491V70.8295ZM142.84 70.8295C141.606 70.8295 140.866 70.5338 140.432 70.119C140.007 69.7122 139.708 69.0297 139.708 67.8786H137.708C137.708 69.3613 138.098 70.6542 139.05 71.5645C139.994 72.4667 141.319 72.8295 142.84 72.8295V70.8295Z" fill="white" mask="url(#path-1-outside-1_525_491)"/>
<path d="M31.5 19.6875H42V36.75C42 39.6495 39.6495 42 36.75 42C33.8505 42 31.5 39.6495 31.5 36.75V19.6875Z" fill="white"/>
<path fill-rule="evenodd" clip-rule="evenodd" d="M21 42C32.598 42 42 32.598 42 21C42 9.40202 32.598 0 21 0C9.40202 0 0 9.40202 0 21C0 32.598 9.40202 42 21 42ZM21 28C24.866 28 28 24.866 28 21C28 17.134 24.866 14 21 14C17.134 14 14 17.134 14 21C14 24.866 17.134 28 21 28Z" fill="white"/>
<path d="M67.6852 4.8308C66.6031 1.12751 62.6792 -1.05956 59.5508 1.12686C57.1183 2.82694 55.0269 5.02146 53.4217 7.59877C50.5775 12.1652 49.4513 17.6252 50.2509 22.971C51.0506 28.3168 53.7221 33.1877 57.7725 36.6848C61.8229 40.1818 66.9787 42.069 72.2886 41.9981C77.5984 41.9271 82.7039 39.9029 86.6628 36.2988C90.6217 32.6948 93.1668 27.7542 93.8285 22.3889C94.4902 17.0235 93.2237 11.5955 90.2628 7.10663C88.5917 4.57308 86.4445 2.43518 83.9691 0.800663C80.7854 -1.30144 76.9192 0.989697 75.9329 4.72062L75.6851 5.65811C74.8356 8.87127 77.0345 12.1457 78.8565 14.908C79.9681 16.5933 80.4435 18.6312 80.1951 20.6455C79.9467 22.6598 78.9912 24.5147 77.5049 25.8677C76.0186 27.2208 74.1018 27.9808 72.1083 28.0074C70.1149 28.0341 68.1792 27.3255 66.6585 26.0126C65.1379 24.6997 64.1349 22.871 63.8347 20.864C63.5345 18.857 63.9573 16.8072 65.0251 15.0928C66.7753 12.2828 68.889 8.95071 67.9571 5.76135L67.6852 4.8308Z" fill="#FFA500"/>
<path fill-rule="evenodd" clip-rule="evenodd" d="M123 42C134.598 42 144 32.598 144 21C144 9.40202 134.598 0 123 0C111.402 0 102 9.40202 102 21C102 32.598 111.402 42 123 42ZM123 28C126.866 28 130 24.866 130 21C130 17.134 126.866 14 123 14C119.134 14 116 17.134 116 21C116 24.866 119.134 28 123 28Z" fill="white"/>
</svg>
