<svg width="82" height="41" viewBox="0 0 82 41" fill="none" xmlns="http://www.w3.org/2000/svg">
<mask id="path-1-outside-1_222_4803" maskUnits="userSpaceOnUse" x="0.975586" y="27" width="82" height="14" fill="black">
<rect fill="white" x="0.975586" y="27" width="82" height="14"/>
<path d="M6.96766 34.1085C7.23012 33.5814 7.57658 33.1835 8.00702 32.9147C8.44796 32.6357 8.9099 32.4961 9.39283 32.4961C10.0962 32.4961 10.6999 32.7494 11.2038 33.2558C11.7183 33.7623 11.9755 34.4393 11.9755 35.2868V39.6279C11.9755 39.7003 11.944 39.7674 11.881 39.8295C11.8285 39.8811 11.7655 39.907 11.692 39.907C11.6185 39.907 11.5555 39.8811 11.503 39.8295C11.4506 39.7674 11.4243 39.7003 11.4243 39.6279V35.2868C11.4243 34.584 11.2143 34.0362 10.7944 33.6434C10.3849 33.2403 9.90726 33.0388 9.36134 33.0388C8.80491 33.0388 8.31148 33.2558 7.88104 33.6899C7.46109 34.1137 7.25112 34.646 7.25112 35.2868V39.6434C7.25112 39.8191 7.15663 39.907 6.96766 39.907C6.78918 39.907 6.69995 39.8191 6.69995 39.6434V35.2868C6.69995 34.646 6.48473 34.1137 6.05428 33.6899C5.62384 33.2558 5.12516 33.0388 4.55824 33.0388C4.02281 33.0388 3.55037 33.2403 3.14093 33.6434C2.73148 34.0362 2.52676 34.584 2.52676 35.2868V39.6434C2.52676 39.7158 2.49527 39.7778 2.43227 39.8295C2.37978 39.8811 2.31679 39.907 2.2433 39.907C2.16981 39.907 2.10682 39.8811 2.05433 39.8295C2.00183 39.7778 1.97559 39.7158 1.97559 39.6434V35.2868C1.97559 34.4393 2.2223 33.7623 2.71574 33.2558C3.21967 32.7494 3.81284 32.4961 4.49524 32.4961C4.97818 32.4961 5.44012 32.6357 5.88106 32.9147C6.322 33.1835 6.6842 33.5814 6.96766 34.1085ZM22.2072 32.5891H23.6717C24.6376 32.5891 25.3462 32.8424 25.7977 33.3488C26.2491 33.845 26.4748 34.5065 26.4748 35.3333V39.6279C26.4748 39.814 26.3856 39.907 26.2071 39.907C26.1336 39.907 26.0654 39.8811 26.0024 39.8295C25.9499 39.7778 25.9237 39.7106 25.9237 39.6279V38.8217C25.2308 39.6072 24.4434 40 23.5615 40C22.9106 40 22.3804 39.8295 21.9709 39.4884C21.572 39.1369 21.3725 38.6253 21.3725 37.9535C21.3725 37.1783 21.6822 36.646 22.3017 36.3566C22.9316 36.0568 23.8449 35.907 25.0418 35.907H25.9237V35.3333C25.9237 34.7028 25.7294 34.1809 25.341 33.7674C24.963 33.3437 24.4066 33.1318 23.6717 33.1318H22.2072C22.1337 33.1318 22.0654 33.1059 22.0024 33.0543C21.95 32.9922 21.9237 32.9251 21.9237 32.8527C21.9237 32.677 22.0182 32.5891 22.2072 32.5891ZM25.9237 37.7519V36.4496H25.0575C24.5851 36.4496 24.1861 36.4651 23.8607 36.4961C23.5457 36.5271 23.2255 36.5943 22.9001 36.6977C22.5746 36.7907 22.3279 36.9457 22.1599 37.1628C22.0024 37.3695 21.9237 37.6331 21.9237 37.9535C21.9237 38.4496 22.0707 38.8269 22.3646 39.0853C22.6691 39.3333 23.0628 39.4574 23.5457 39.4574C24.1127 39.4574 24.6481 39.261 25.152 38.8682C25.6664 38.4755 25.9237 38.1034 25.9237 37.7519ZM38.8664 32.4961H39.2601C39.4281 32.4961 39.5121 32.584 39.5121 32.7597C39.5121 32.9457 39.4281 33.0388 39.2601 33.0388H38.8664C38.2785 33.0388 37.7956 33.3075 37.4176 33.845C37.0502 34.3824 36.8665 34.9974 36.8665 35.6899V39.6434C36.8665 39.7158 36.835 39.7778 36.772 39.8295C36.7195 39.8811 36.6565 39.907 36.583 39.907C36.5095 39.907 36.4465 39.8811 36.394 39.8295C36.3415 39.7778 36.3153 39.7158 36.3153 39.6434V35.6899C36.3153 34.8424 36.5568 34.0982 37.0397 33.4574C37.5331 32.8165 38.142 32.4961 38.8664 32.4961ZM48.9659 28C49.1548 28 49.2493 28.0879 49.2493 28.2636V36.2946L53.5013 32.6512C53.5642 32.6098 53.6167 32.5891 53.6587 32.5891C53.8582 32.5891 53.9579 32.6718 53.9579 32.8372C53.9579 32.9406 53.9264 33.0181 53.8635 33.0698L51.328 35.2403L54.2414 39.4729C54.2729 39.5142 54.2886 39.5659 54.2886 39.6279C54.2886 39.7003 54.2624 39.7674 54.2099 39.8295C54.1574 39.8811 54.0944 39.907 54.0209 39.907C53.9369 39.907 53.8635 39.8605 53.8005 39.7674L50.9029 35.5969L49.2493 37.0233V39.6279C49.2493 39.7003 49.2178 39.7674 49.1548 39.8295C49.1023 39.8811 49.0394 39.907 48.9659 39.907C48.8924 39.907 48.8294 39.8811 48.7769 39.8295C48.7244 39.7674 48.6982 39.7003 48.6982 39.6279V28.2636C48.6982 28.0879 48.7874 28 48.9659 28ZM65.735 32.4961C66.4909 32.4961 67.1418 32.7649 67.6877 33.3023C68.2442 33.8295 68.5224 34.491 68.5224 35.2868C68.5224 35.5556 68.4909 35.7726 68.4279 35.938C68.3649 36.1034 68.2599 36.2222 68.1129 36.2946C67.966 36.3669 67.8295 36.4134 67.7035 36.4341C67.588 36.4444 67.4253 36.4496 67.2153 36.4496H63.4831V37.1783C63.4831 37.8708 63.7298 38.4238 64.2232 38.8372C64.7166 39.2506 65.3571 39.4574 66.1445 39.4574C66.5329 39.4574 66.8584 39.4057 67.1208 39.3023C67.3833 39.1886 67.5775 39.0801 67.7035 38.9767C67.84 38.8734 67.9397 38.8217 68.0027 38.8217C68.0762 38.8217 68.1392 38.8527 68.1917 38.9147C68.2547 38.9767 68.2862 39.0388 68.2862 39.1008C68.2862 39.2041 68.2022 39.3282 68.0342 39.4729C67.8662 39.6072 67.609 39.7313 67.2626 39.845C66.9161 39.9483 66.5329 40 66.113 40C65.1786 40 64.4122 39.7416 63.8138 39.2248C63.2258 38.6977 62.9319 38.0155 62.9319 37.1783V35.2403C62.9319 34.4961 63.2048 33.8553 63.7508 33.3178C64.3072 32.77 64.9686 32.4961 65.735 32.4961ZM63.4831 35.907H67.0263C67.4148 35.907 67.6667 35.8708 67.7822 35.7984C67.9082 35.7261 67.9712 35.5711 67.9712 35.3333C67.9712 34.7442 67.7612 34.2171 67.3413 33.7519C66.9213 33.2765 66.3859 33.0388 65.735 33.0388C65.1051 33.0388 64.5697 33.261 64.1287 33.7054C63.6983 34.1395 63.4831 34.6512 63.4831 35.2403V35.907ZM78.0551 37.7519V29.2713C78.0551 29.199 78.0814 29.137 78.1339 29.0853C78.1969 29.0336 78.2598 29.0078 78.3228 29.0078C78.3963 29.0078 78.4593 29.0336 78.5118 29.0853C78.5748 29.137 78.6063 29.199 78.6063 29.2713V32.5891H80.7323C80.8058 32.5891 80.8687 32.6202 80.9212 32.6822C80.9737 32.7339 81 32.7959 81 32.8682C81 32.9406 80.9737 33.0026 80.9212 33.0543C80.8687 33.1059 80.8058 33.1318 80.7323 33.1318H78.6063V37.7519C78.6063 38.3411 78.7375 38.7597 79 39.0078C79.2625 39.2455 79.7139 39.3643 80.3543 39.3643H80.7165C80.79 39.3643 80.853 39.3902 80.9055 39.4419C80.958 39.4935 80.9842 39.5556 80.9842 39.6279C80.9842 39.7003 80.958 39.7674 80.9055 39.8295C80.853 39.8811 80.79 39.907 80.7165 39.907H80.3543C78.8215 39.907 78.0551 39.1886 78.0551 37.7519Z"/>
</mask>
<path d="M6.96766 34.1085C7.23012 33.5814 7.57658 33.1835 8.00702 32.9147C8.44796 32.6357 8.9099 32.4961 9.39283 32.4961C10.0962 32.4961 10.6999 32.7494 11.2038 33.2558C11.7183 33.7623 11.9755 34.4393 11.9755 35.2868V39.6279C11.9755 39.7003 11.944 39.7674 11.881 39.8295C11.8285 39.8811 11.7655 39.907 11.692 39.907C11.6185 39.907 11.5555 39.8811 11.503 39.8295C11.4506 39.7674 11.4243 39.7003 11.4243 39.6279V35.2868C11.4243 34.584 11.2143 34.0362 10.7944 33.6434C10.3849 33.2403 9.90726 33.0388 9.36134 33.0388C8.80491 33.0388 8.31148 33.2558 7.88104 33.6899C7.46109 34.1137 7.25112 34.646 7.25112 35.2868V39.6434C7.25112 39.8191 7.15663 39.907 6.96766 39.907C6.78918 39.907 6.69995 39.8191 6.69995 39.6434V35.2868C6.69995 34.646 6.48473 34.1137 6.05428 33.6899C5.62384 33.2558 5.12516 33.0388 4.55824 33.0388C4.02281 33.0388 3.55037 33.2403 3.14093 33.6434C2.73148 34.0362 2.52676 34.584 2.52676 35.2868V39.6434C2.52676 39.7158 2.49527 39.7778 2.43227 39.8295C2.37978 39.8811 2.31679 39.907 2.2433 39.907C2.16981 39.907 2.10682 39.8811 2.05433 39.8295C2.00183 39.7778 1.97559 39.7158 1.97559 39.6434V35.2868C1.97559 34.4393 2.2223 33.7623 2.71574 33.2558C3.21967 32.7494 3.81284 32.4961 4.49524 32.4961C4.97818 32.4961 5.44012 32.6357 5.88106 32.9147C6.322 33.1835 6.6842 33.5814 6.96766 34.1085ZM22.2072 32.5891H23.6717C24.6376 32.5891 25.3462 32.8424 25.7977 33.3488C26.2491 33.845 26.4748 34.5065 26.4748 35.3333V39.6279C26.4748 39.814 26.3856 39.907 26.2071 39.907C26.1336 39.907 26.0654 39.8811 26.0024 39.8295C25.9499 39.7778 25.9237 39.7106 25.9237 39.6279V38.8217C25.2308 39.6072 24.4434 40 23.5615 40C22.9106 40 22.3804 39.8295 21.9709 39.4884C21.572 39.1369 21.3725 38.6253 21.3725 37.9535C21.3725 37.1783 21.6822 36.646 22.3017 36.3566C22.9316 36.0568 23.8449 35.907 25.0418 35.907H25.9237V35.3333C25.9237 34.7028 25.7294 34.1809 25.341 33.7674C24.963 33.3437 24.4066 33.1318 23.6717 33.1318H22.2072C22.1337 33.1318 22.0654 33.1059 22.0024 33.0543C21.95 32.9922 21.9237 32.9251 21.9237 32.8527C21.9237 32.677 22.0182 32.5891 22.2072 32.5891ZM25.9237 37.7519V36.4496H25.0575C24.5851 36.4496 24.1861 36.4651 23.8607 36.4961C23.5457 36.5271 23.2255 36.5943 22.9001 36.6977C22.5746 36.7907 22.3279 36.9457 22.1599 37.1628C22.0024 37.3695 21.9237 37.6331 21.9237 37.9535C21.9237 38.4496 22.0707 38.8269 22.3646 39.0853C22.6691 39.3333 23.0628 39.4574 23.5457 39.4574C24.1127 39.4574 24.6481 39.261 25.152 38.8682C25.6664 38.4755 25.9237 38.1034 25.9237 37.7519ZM38.8664 32.4961H39.2601C39.4281 32.4961 39.5121 32.584 39.5121 32.7597C39.5121 32.9457 39.4281 33.0388 39.2601 33.0388H38.8664C38.2785 33.0388 37.7956 33.3075 37.4176 33.845C37.0502 34.3824 36.8665 34.9974 36.8665 35.6899V39.6434C36.8665 39.7158 36.835 39.7778 36.772 39.8295C36.7195 39.8811 36.6565 39.907 36.583 39.907C36.5095 39.907 36.4465 39.8811 36.394 39.8295C36.3415 39.7778 36.3153 39.7158 36.3153 39.6434V35.6899C36.3153 34.8424 36.5568 34.0982 37.0397 33.4574C37.5331 32.8165 38.142 32.4961 38.8664 32.4961ZM48.9659 28C49.1548 28 49.2493 28.0879 49.2493 28.2636V36.2946L53.5013 32.6512C53.5642 32.6098 53.6167 32.5891 53.6587 32.5891C53.8582 32.5891 53.9579 32.6718 53.9579 32.8372C53.9579 32.9406 53.9264 33.0181 53.8635 33.0698L51.328 35.2403L54.2414 39.4729C54.2729 39.5142 54.2886 39.5659 54.2886 39.6279C54.2886 39.7003 54.2624 39.7674 54.2099 39.8295C54.1574 39.8811 54.0944 39.907 54.0209 39.907C53.9369 39.907 53.8635 39.8605 53.8005 39.7674L50.9029 35.5969L49.2493 37.0233V39.6279C49.2493 39.7003 49.2178 39.7674 49.1548 39.8295C49.1023 39.8811 49.0394 39.907 48.9659 39.907C48.8924 39.907 48.8294 39.8811 48.7769 39.8295C48.7244 39.7674 48.6982 39.7003 48.6982 39.6279V28.2636C48.6982 28.0879 48.7874 28 48.9659 28ZM65.735 32.4961C66.4909 32.4961 67.1418 32.7649 67.6877 33.3023C68.2442 33.8295 68.5224 34.491 68.5224 35.2868C68.5224 35.5556 68.4909 35.7726 68.4279 35.938C68.3649 36.1034 68.2599 36.2222 68.1129 36.2946C67.966 36.3669 67.8295 36.4134 67.7035 36.4341C67.588 36.4444 67.4253 36.4496 67.2153 36.4496H63.4831V37.1783C63.4831 37.8708 63.7298 38.4238 64.2232 38.8372C64.7166 39.2506 65.3571 39.4574 66.1445 39.4574C66.5329 39.4574 66.8584 39.4057 67.1208 39.3023C67.3833 39.1886 67.5775 39.0801 67.7035 38.9767C67.84 38.8734 67.9397 38.8217 68.0027 38.8217C68.0762 38.8217 68.1392 38.8527 68.1917 38.9147C68.2547 38.9767 68.2862 39.0388 68.2862 39.1008C68.2862 39.2041 68.2022 39.3282 68.0342 39.4729C67.8662 39.6072 67.609 39.7313 67.2626 39.845C66.9161 39.9483 66.5329 40 66.113 40C65.1786 40 64.4122 39.7416 63.8138 39.2248C63.2258 38.6977 62.9319 38.0155 62.9319 37.1783V35.2403C62.9319 34.4961 63.2048 33.8553 63.7508 33.3178C64.3072 32.77 64.9686 32.4961 65.735 32.4961ZM63.4831 35.907H67.0263C67.4148 35.907 67.6667 35.8708 67.7822 35.7984C67.9082 35.7261 67.9712 35.5711 67.9712 35.3333C67.9712 34.7442 67.7612 34.2171 67.3413 33.7519C66.9213 33.2765 66.3859 33.0388 65.735 33.0388C65.1051 33.0388 64.5697 33.261 64.1287 33.7054C63.6983 34.1395 63.4831 34.6512 63.4831 35.2403V35.907ZM78.0551 37.7519V29.2713C78.0551 29.199 78.0814 29.137 78.1339 29.0853C78.1969 29.0336 78.2598 29.0078 78.3228 29.0078C78.3963 29.0078 78.4593 29.0336 78.5118 29.0853C78.5748 29.137 78.6063 29.199 78.6063 29.2713V32.5891H80.7323C80.8058 32.5891 80.8687 32.6202 80.9212 32.6822C80.9737 32.7339 81 32.7959 81 32.8682C81 32.9406 80.9737 33.0026 80.9212 33.0543C80.8687 33.1059 80.8058 33.1318 80.7323 33.1318H78.6063V37.7519C78.6063 38.3411 78.7375 38.7597 79 39.0078C79.2625 39.2455 79.7139 39.3643 80.3543 39.3643H80.7165C80.79 39.3643 80.853 39.3902 80.9055 39.4419C80.958 39.4935 80.9842 39.5556 80.9842 39.6279C80.9842 39.7003 80.958 39.7674 80.9055 39.8295C80.853 39.8811 80.79 39.907 80.7165 39.907H80.3543C78.8215 39.907 78.0551 39.1886 78.0551 37.7519Z" stroke="#374957" stroke-width="2" mask="url(#path-1-outside-1_222_4803)"/>
<path d="M18.561 11.25H24.4146V21C24.4146 22.6568 23.1042 24 21.4878 24C19.8714 24 18.561 22.6568 18.561 21V11.25Z" fill="#374957"/>
<path fill-rule="evenodd" clip-rule="evenodd" d="M12.7073 24C19.1731 24 24.4146 18.6274 24.4146 12C24.4146 5.37258 19.1731 0 12.7073 0C6.24154 0 1 5.37258 1 12C1 18.6274 6.24154 24 12.7073 24ZM12.7073 16C14.8626 16 16.6098 14.2091 16.6098 12C16.6098 9.79086 14.8626 8 12.7073 8C10.5521 8 8.80488 9.79086 8.80488 12C8.80488 14.2091 10.5521 16 12.7073 16Z" fill="#374957"/>
<path d="M38.1205 2.76045C37.5206 0.644289 35.3455 -0.605466 33.6114 0.643918C32.263 1.6154 31.1037 2.86941 30.2138 4.34216C28.6372 6.95156 28.013 10.0715 28.4562 13.1263C28.8995 16.181 30.3804 18.9644 32.6256 20.9627C34.8708 22.961 37.7288 24.0394 40.6722 23.9989C43.6156 23.9584 46.4457 22.8016 48.6402 20.7422C50.8347 18.6827 52.2455 15.8595 52.6123 12.7936C52.9791 9.72772 52.2771 6.62602 50.6358 4.06093C49.7094 2.61319 48.5192 1.39153 47.147 0.457522C45.3822 -0.74368 43.2391 0.565541 42.6924 2.6975L42.555 3.23321C42.0841 5.0693 43.303 6.94042 44.313 8.51888C44.9292 9.4819 45.1927 10.6464 45.055 11.7974C44.9173 12.9485 44.3876 14.0084 43.5638 14.7816C42.7399 15.5547 41.6774 15.989 40.5723 16.0042C39.4673 16.0195 38.3943 15.6146 37.5514 14.8644C36.7084 14.1141 36.1525 13.0692 35.986 11.9223C35.8196 10.7755 36.054 9.60412 36.6459 8.62446C37.6161 7.01874 38.7878 5.11469 38.2712 3.2922L38.1205 2.76045Z" fill="#FFA500"/>
<path fill-rule="evenodd" clip-rule="evenodd" d="M68.3172 24C74.783 24 80.0245 18.6274 80.0245 12C80.0245 5.37258 74.783 0 68.3172 0C61.8514 0 56.6099 5.37258 56.6099 12C56.6099 18.6274 61.8514 24 68.3172 24ZM68.3172 16C70.4724 16 72.2196 14.2091 72.2196 12C72.2196 9.79086 70.4724 8 68.3172 8C66.1619 8 64.4147 9.79086 64.4147 12C64.4147 14.2091 66.1619 16 68.3172 16Z" fill="#374957"/>
</svg>
