<svg width="24" height="24" viewBox="0 0 24 24" fill="none" xmlns="http://www.w3.org/2000/svg">
<path d="M17.5034 0H6.49657C2.9143 0 0 2.9143 0 6.49657V17.5036C0 21.0857 2.9143 24 6.49657 24H17.5036C21.0857 24 24 21.0857 24 17.5036V6.49657C24 2.9143 21.0857 0 17.5034 0V0ZM22.593 17.5036C22.593 20.3098 20.3098 22.593 17.5034 22.593H6.49657C3.69012 22.593 1.40698 20.3098 1.40698 17.5036V6.49657C1.40698 3.69012 3.69012 1.40698 6.49657 1.40698H17.5036C20.3098 1.40698 22.593 3.69012 22.593 6.49657V17.5036Z" fill="white"/>
<path d="M12 5.43768C8.38153 5.43768 5.43774 8.38146 5.43774 12C5.43774 15.6185 8.38153 18.5623 12 18.5623C15.6186 18.5623 18.5624 15.6185 18.5624 12C18.5624 8.38146 15.6186 5.43768 12 5.43768ZM12 17.1553C9.15752 17.1553 6.84472 14.8427 6.84472 12C6.84472 9.15746 9.15752 6.84466 12 6.84466C14.8428 6.84466 17.1554 9.15746 17.1554 12C17.1554 14.8427 14.8428 17.1553 12 17.1553Z" fill="white"/>
<path d="M18.7191 3.10712C17.6498 3.10712 16.78 3.97705 16.78 5.0462C16.78 6.11553 17.6498 6.98547 18.7191 6.98547C19.7884 6.98547 20.6584 6.11553 20.6584 5.0462C20.6584 3.97687 19.7884 3.10712 18.7191 3.10712ZM18.7191 5.5783C18.4258 5.5783 18.187 5.33953 18.187 5.0462C18.187 4.75268 18.4258 4.5141 18.7191 4.5141C19.0126 4.5141 19.2514 4.75268 19.2514 5.0462C19.2514 5.33953 19.0126 5.5783 18.7191 5.5783Z" fill="white"/>
</svg>
