<svg width="353" height="177" viewBox="0 0 353 177" fill="none" xmlns="http://www.w3.org/2000/svg">
<mask id="path-1-outside-1_682_16859" maskUnits="userSpaceOnUse" x="3.29492" y="122.2" width="350" height="55" fill="black">
<rect fill="white" x="3.29492" y="122.2" width="350" height="55"/>
<path d="M26.2598 150.078C27.4147 147.758 28.9391 146.007 30.833 144.825C32.7731 143.597 34.8056 142.983 36.9305 142.983C40.0255 142.983 42.6816 144.097 44.8989 146.326C47.1623 148.554 48.2941 151.533 48.2941 155.262V174.363C48.2941 174.681 48.1555 174.977 47.8783 175.25C47.6474 175.477 47.3702 175.591 47.0468 175.591C46.7235 175.591 46.4463 175.477 46.2154 175.25C45.9844 174.977 45.8689 174.681 45.8689 174.363V155.262C45.8689 152.17 44.945 149.759 43.0973 148.031C41.2958 146.257 39.194 145.371 36.7919 145.371C34.3437 145.371 32.1726 146.326 30.2787 148.236C28.4309 150.1 27.5071 152.442 27.5071 155.262V174.431C27.5071 175.204 27.0913 175.591 26.2598 175.591C25.4746 175.591 25.0819 175.204 25.0819 174.431V155.262C25.0819 152.442 24.135 150.1 22.241 148.236C20.3471 146.326 18.1529 145.371 15.6585 145.371C13.3026 145.371 11.2239 146.257 9.42238 148.031C7.62084 149.759 6.72007 152.17 6.72007 155.262V174.431C6.72007 174.749 6.58149 175.022 6.30433 175.25C6.07336 175.477 5.7962 175.591 5.47285 175.591C5.1495 175.591 4.87234 175.477 4.64137 175.25C4.41041 175.022 4.29492 174.749 4.29492 174.431V155.262C4.29492 151.533 5.38047 148.554 7.55155 146.326C9.76883 144.097 12.3788 142.983 15.3813 142.983C17.5062 142.983 19.5387 143.597 21.4788 144.825C23.419 146.007 25.0126 147.758 26.2598 150.078ZM93.3131 143.392H99.757C104.007 143.392 107.125 144.506 109.111 146.735C111.097 148.918 112.091 151.828 112.091 155.467V174.363C112.091 175.181 111.698 175.591 110.913 175.591C110.589 175.591 110.289 175.477 110.012 175.25C109.781 175.022 109.666 174.727 109.666 174.363V170.815C106.617 174.272 103.152 176 99.272 176C96.408 176 94.0753 175.25 92.2737 173.749C90.5184 172.203 89.6407 169.951 89.6407 166.995C89.6407 163.584 91.0034 161.242 93.7288 159.969C96.5004 158.65 100.519 157.991 105.785 157.991H109.666V155.467C109.666 152.693 108.811 150.396 107.102 148.577C105.439 146.712 102.991 145.78 99.757 145.78H93.3131C92.9897 145.78 92.6895 145.666 92.4123 145.439C92.1813 145.166 92.0658 144.87 92.0658 144.552C92.0658 143.779 92.4816 143.392 93.3131 143.392ZM109.666 166.109V160.378H105.855C103.776 160.378 102.021 160.447 100.589 160.583C99.2027 160.719 97.7938 161.015 96.3618 161.47C94.9298 161.879 93.8443 162.561 93.1052 163.516C92.4123 164.426 92.0658 165.586 92.0658 166.995C92.0658 169.178 92.7125 170.838 94.006 171.975C95.3456 173.067 97.0778 173.612 99.2027 173.612C101.697 173.612 104.053 172.748 106.27 171.02C108.534 169.292 109.666 167.655 109.666 166.109ZM166.613 142.983H168.345C169.085 142.983 169.454 143.37 169.454 144.143C169.454 144.961 169.085 145.371 168.345 145.371H166.613C164.026 145.371 161.901 146.553 160.239 148.918C158.622 151.283 157.813 153.989 157.813 157.036V174.431C157.813 174.749 157.675 175.022 157.398 175.25C157.167 175.477 156.889 175.591 156.566 175.591C156.243 175.591 155.966 175.477 155.735 175.25C155.504 175.022 155.388 174.749 155.388 174.431V157.036C155.388 153.306 156.451 150.032 158.576 147.212C160.747 144.393 163.426 142.983 166.613 142.983ZM211.05 123.2C211.882 123.2 212.297 123.587 212.297 124.36V159.696L231.006 143.665C231.283 143.483 231.514 143.392 231.699 143.392C232.576 143.392 233.015 143.756 233.015 144.484C233.015 144.938 232.877 145.28 232.599 145.507L221.444 155.057L234.262 173.681C234.401 173.863 234.47 174.09 234.47 174.363C234.47 174.681 234.355 174.977 234.124 175.25C233.893 175.477 233.616 175.591 233.292 175.591C232.923 175.591 232.599 175.386 232.322 174.977L219.573 156.626L212.297 162.902V174.363C212.297 174.681 212.159 174.977 211.882 175.25C211.651 175.477 211.374 175.591 211.05 175.591C210.727 175.591 210.45 175.477 210.219 175.25C209.988 174.977 209.872 174.681 209.872 174.363V124.36C209.872 123.587 210.265 123.2 211.05 123.2ZM284.834 142.983C288.16 142.983 291.024 144.165 293.426 146.53C295.874 148.85 297.098 151.76 297.098 155.262C297.098 156.444 296.96 157.399 296.682 158.127C296.405 158.855 295.943 159.378 295.297 159.696C294.65 160.014 294.049 160.219 293.495 160.31C292.987 160.356 292.271 160.378 291.347 160.378H274.925V163.584C274.925 166.632 276.011 169.065 278.182 170.884C280.353 172.703 283.171 173.612 286.635 173.612C288.345 173.612 289.777 173.385 290.931 172.93C292.086 172.43 292.941 171.952 293.495 171.498C294.096 171.043 294.534 170.815 294.812 170.815C295.135 170.815 295.412 170.952 295.643 171.225C295.92 171.498 296.059 171.771 296.059 172.043C296.059 172.498 295.689 173.044 294.95 173.681C294.211 174.272 293.079 174.818 291.555 175.318C290.031 175.773 288.345 176 286.497 176C282.386 176 279.013 174.863 276.38 172.589C273.794 170.27 272.5 167.268 272.5 163.584V155.057C272.5 151.783 273.701 148.963 276.103 146.598C278.552 144.188 281.462 142.983 284.834 142.983ZM274.925 157.991H290.516C292.225 157.991 293.333 157.832 293.842 157.513C294.396 157.195 294.673 156.513 294.673 155.467C294.673 152.874 293.749 150.555 291.901 148.509C290.054 146.417 287.698 145.371 284.834 145.371C282.062 145.371 279.706 146.348 277.766 148.304C275.872 150.214 274.925 152.465 274.925 155.057V157.991ZM339.042 166.109V128.794C339.042 128.475 339.157 128.203 339.388 127.975C339.665 127.748 339.943 127.634 340.22 127.634C340.543 127.634 340.82 127.748 341.051 127.975C341.328 128.203 341.467 128.475 341.467 128.794V143.392H350.821C351.145 143.392 351.422 143.529 351.653 143.802C351.884 144.029 351.999 144.302 351.999 144.62C351.999 144.938 351.884 145.211 351.653 145.439C351.422 145.666 351.145 145.78 350.821 145.78H341.467V166.109C341.467 168.701 342.044 170.543 343.199 171.634C344.354 172.68 346.34 173.203 349.158 173.203H350.752C351.075 173.203 351.352 173.317 351.583 173.544C351.814 173.772 351.93 174.044 351.93 174.363C351.93 174.681 351.814 174.977 351.583 175.25C351.352 175.477 351.075 175.591 350.752 175.591H349.158C342.414 175.591 339.042 172.43 339.042 166.109Z"/>
</mask>
<path d="M26.2598 150.078C27.4147 147.758 28.9391 146.007 30.833 144.825C32.7731 143.597 34.8056 142.983 36.9305 142.983C40.0255 142.983 42.6816 144.097 44.8989 146.326C47.1623 148.554 48.2941 151.533 48.2941 155.262V174.363C48.2941 174.681 48.1555 174.977 47.8783 175.25C47.6474 175.477 47.3702 175.591 47.0468 175.591C46.7235 175.591 46.4463 175.477 46.2154 175.25C45.9844 174.977 45.8689 174.681 45.8689 174.363V155.262C45.8689 152.17 44.945 149.759 43.0973 148.031C41.2958 146.257 39.194 145.371 36.7919 145.371C34.3437 145.371 32.1726 146.326 30.2787 148.236C28.4309 150.1 27.5071 152.442 27.5071 155.262V174.431C27.5071 175.204 27.0913 175.591 26.2598 175.591C25.4746 175.591 25.0819 175.204 25.0819 174.431V155.262C25.0819 152.442 24.135 150.1 22.241 148.236C20.3471 146.326 18.1529 145.371 15.6585 145.371C13.3026 145.371 11.2239 146.257 9.42238 148.031C7.62084 149.759 6.72007 152.17 6.72007 155.262V174.431C6.72007 174.749 6.58149 175.022 6.30433 175.25C6.07336 175.477 5.7962 175.591 5.47285 175.591C5.1495 175.591 4.87234 175.477 4.64137 175.25C4.41041 175.022 4.29492 174.749 4.29492 174.431V155.262C4.29492 151.533 5.38047 148.554 7.55155 146.326C9.76883 144.097 12.3788 142.983 15.3813 142.983C17.5062 142.983 19.5387 143.597 21.4788 144.825C23.419 146.007 25.0126 147.758 26.2598 150.078ZM93.3131 143.392H99.757C104.007 143.392 107.125 144.506 109.111 146.735C111.097 148.918 112.091 151.828 112.091 155.467V174.363C112.091 175.181 111.698 175.591 110.913 175.591C110.589 175.591 110.289 175.477 110.012 175.25C109.781 175.022 109.666 174.727 109.666 174.363V170.815C106.617 174.272 103.152 176 99.272 176C96.408 176 94.0753 175.25 92.2737 173.749C90.5184 172.203 89.6407 169.951 89.6407 166.995C89.6407 163.584 91.0034 161.242 93.7288 159.969C96.5004 158.65 100.519 157.991 105.785 157.991H109.666V155.467C109.666 152.693 108.811 150.396 107.102 148.577C105.439 146.712 102.991 145.78 99.757 145.78H93.3131C92.9897 145.78 92.6895 145.666 92.4123 145.439C92.1813 145.166 92.0658 144.87 92.0658 144.552C92.0658 143.779 92.4816 143.392 93.3131 143.392ZM109.666 166.109V160.378H105.855C103.776 160.378 102.021 160.447 100.589 160.583C99.2027 160.719 97.7938 161.015 96.3618 161.47C94.9298 161.879 93.8443 162.561 93.1052 163.516C92.4123 164.426 92.0658 165.586 92.0658 166.995C92.0658 169.178 92.7125 170.838 94.006 171.975C95.3456 173.067 97.0778 173.612 99.2027 173.612C101.697 173.612 104.053 172.748 106.27 171.02C108.534 169.292 109.666 167.655 109.666 166.109ZM166.613 142.983H168.345C169.085 142.983 169.454 143.37 169.454 144.143C169.454 144.961 169.085 145.371 168.345 145.371H166.613C164.026 145.371 161.901 146.553 160.239 148.918C158.622 151.283 157.813 153.989 157.813 157.036V174.431C157.813 174.749 157.675 175.022 157.398 175.25C157.167 175.477 156.889 175.591 156.566 175.591C156.243 175.591 155.966 175.477 155.735 175.25C155.504 175.022 155.388 174.749 155.388 174.431V157.036C155.388 153.306 156.451 150.032 158.576 147.212C160.747 144.393 163.426 142.983 166.613 142.983ZM211.05 123.2C211.882 123.2 212.297 123.587 212.297 124.36V159.696L231.006 143.665C231.283 143.483 231.514 143.392 231.699 143.392C232.576 143.392 233.015 143.756 233.015 144.484C233.015 144.938 232.877 145.28 232.599 145.507L221.444 155.057L234.262 173.681C234.401 173.863 234.47 174.09 234.47 174.363C234.47 174.681 234.355 174.977 234.124 175.25C233.893 175.477 233.616 175.591 233.292 175.591C232.923 175.591 232.599 175.386 232.322 174.977L219.573 156.626L212.297 162.902V174.363C212.297 174.681 212.159 174.977 211.882 175.25C211.651 175.477 211.374 175.591 211.05 175.591C210.727 175.591 210.45 175.477 210.219 175.25C209.988 174.977 209.872 174.681 209.872 174.363V124.36C209.872 123.587 210.265 123.2 211.05 123.2ZM284.834 142.983C288.16 142.983 291.024 144.165 293.426 146.53C295.874 148.85 297.098 151.76 297.098 155.262C297.098 156.444 296.96 157.399 296.682 158.127C296.405 158.855 295.943 159.378 295.297 159.696C294.65 160.014 294.049 160.219 293.495 160.31C292.987 160.356 292.271 160.378 291.347 160.378H274.925V163.584C274.925 166.632 276.011 169.065 278.182 170.884C280.353 172.703 283.171 173.612 286.635 173.612C288.345 173.612 289.777 173.385 290.931 172.93C292.086 172.43 292.941 171.952 293.495 171.498C294.096 171.043 294.534 170.815 294.812 170.815C295.135 170.815 295.412 170.952 295.643 171.225C295.92 171.498 296.059 171.771 296.059 172.043C296.059 172.498 295.689 173.044 294.95 173.681C294.211 174.272 293.079 174.818 291.555 175.318C290.031 175.773 288.345 176 286.497 176C282.386 176 279.013 174.863 276.38 172.589C273.794 170.27 272.5 167.268 272.5 163.584V155.057C272.5 151.783 273.701 148.963 276.103 146.598C278.552 144.188 281.462 142.983 284.834 142.983ZM274.925 157.991H290.516C292.225 157.991 293.333 157.832 293.842 157.513C294.396 157.195 294.673 156.513 294.673 155.467C294.673 152.874 293.749 150.555 291.901 148.509C290.054 146.417 287.698 145.371 284.834 145.371C282.062 145.371 279.706 146.348 277.766 148.304C275.872 150.214 274.925 152.465 274.925 155.057V157.991ZM339.042 166.109V128.794C339.042 128.475 339.157 128.203 339.388 127.975C339.665 127.748 339.943 127.634 340.22 127.634C340.543 127.634 340.82 127.748 341.051 127.975C341.328 128.203 341.467 128.475 341.467 128.794V143.392H350.821C351.145 143.392 351.422 143.529 351.653 143.802C351.884 144.029 351.999 144.302 351.999 144.62C351.999 144.938 351.884 145.211 351.653 145.439C351.422 145.666 351.145 145.78 350.821 145.78H341.467V166.109C341.467 168.701 342.044 170.543 343.199 171.634C344.354 172.68 346.34 173.203 349.158 173.203H350.752C351.075 173.203 351.352 173.317 351.583 173.544C351.814 173.772 351.93 174.044 351.93 174.363C351.93 174.681 351.814 174.977 351.583 175.25C351.352 175.477 351.075 175.591 350.752 175.591H349.158C342.414 175.591 339.042 172.43 339.042 166.109Z" stroke="#374957" stroke-width="2" mask="url(#path-1-outside-1_682_16859)"/>
<path d="M77.2676 49.4999H103.023V92.3999C103.023 99.6901 97.2578 105.6 90.1455 105.6C83.0332 105.6 77.2676 99.6901 77.2676 92.3999V49.4999Z" fill="#374957"/>
<path fill-rule="evenodd" clip-rule="evenodd" d="M51.5117 105.6C79.9609 105.6 103.023 81.9606 103.023 52.8C103.023 23.6394 79.9609 0 51.5117 0C23.0626 0 0 23.6394 0 52.8C0 81.9606 23.0626 105.6 51.5117 105.6ZM51.5117 70.4C60.9948 70.4 68.6823 62.5202 68.6823 52.8C68.6823 43.0798 60.9948 35.2 51.5117 35.2C42.0287 35.2 34.3411 43.0798 34.3411 52.8C34.3411 62.5202 42.0287 70.4 51.5117 70.4Z" fill="#374957"/>
<path d="M163.324 12.146C160.684 2.83487 151.114 -2.66405 143.484 2.83324C137.551 7.10774 132.45 12.6254 128.535 19.1055C121.598 30.5869 118.851 44.3147 120.801 57.7556C122.752 71.1966 129.268 83.4434 139.147 92.2359C149.025 101.029 161.601 105.773 174.551 105.595C187.502 105.417 199.954 100.327 209.61 91.2656C219.266 82.204 225.473 69.782 227.087 56.292C228.701 42.802 225.612 29.1545 218.391 17.8681C214.315 11.498 209.078 6.12275 203.04 2.0131C195.275 -3.27219 185.845 2.48838 183.44 11.869L182.835 14.2261C180.764 22.3049 186.127 30.5379 190.57 37.4831C193.282 41.7204 194.441 46.8441 193.835 51.9087C193.23 56.9732 190.899 61.6369 187.274 65.0389C183.649 68.4409 178.974 70.3517 174.112 70.4187C169.25 70.4856 164.528 68.7042 160.82 65.4032C157.111 62.1022 154.665 57.5043 153.932 52.4582C153.2 47.412 154.231 42.2581 156.836 37.9476C161.104 30.8824 166.26 22.5046 163.987 14.4857L163.324 12.146Z" fill="#FFA500"/>
<path fill-rule="evenodd" clip-rule="evenodd" d="M296.189 105.6C324.639 105.6 347.701 81.9606 347.701 52.8C347.701 23.6394 324.639 0 296.189 0C267.74 0 244.678 23.6394 244.678 52.8C244.678 81.9606 267.74 105.6 296.189 105.6ZM296.189 70.4C305.673 70.4 313.36 62.5202 313.36 52.8C313.36 43.0798 305.673 35.2 296.189 35.2C286.706 35.2 279.019 43.0798 279.019 52.8C279.019 62.5202 286.706 70.4 296.189 70.4Z" fill="#374957"/>
</svg>
