<svg width="32" height="32" viewBox="0 0 32 32" fill="none" xmlns="http://www.w3.org/2000/svg">
<path d="M25.3339 12C25.3339 13.9333 24.7606 15.7067 23.7739 17.1867C22.3339 19.32 20.0539 20.8267 17.4006 21.2133C16.9472 21.2933 16.4806 21.3333 16.0006 21.3333C15.5206 21.3333 15.0539 21.2933 14.6006 21.2133C11.9472 20.8267 9.66724 19.32 8.22724 17.1867C7.24057 15.7067 6.66724 13.9333 6.66724 12C6.66724 6.83999 10.8406 2.66666 16.0006 2.66666C21.1606 2.66666 25.3339 6.83999 25.3339 12Z" stroke="#FFA500" stroke-width="1.5" stroke-linecap="round" stroke-linejoin="round"/>
<path d="M28.3336 24.6267L26.1336 25.1466C25.6403 25.2666 25.2536 25.64 25.147 26.1333L24.6803 28.0933C24.427 29.16 23.067 29.48 22.3603 28.64L16.0003 21.3333L9.64031 28.6533C8.93364 29.4933 7.57364 29.1733 7.32031 28.1066L6.85364 26.1466C6.73364 25.6533 6.34698 25.2667 5.86698 25.16L3.66698 24.64C2.65364 24.4 2.29364 23.1333 3.02698 22.4L8.22698 17.2C9.66698 19.3333 11.947 20.84 14.6003 21.2267C15.0536 21.3067 15.5203 21.3467 16.0003 21.3467C16.4803 21.3467 16.947 21.3067 17.4003 21.2267C20.0536 20.84 22.3336 19.3333 23.7736 17.2L28.9736 22.4C29.707 23.12 29.347 24.3867 28.3336 24.6267Z" stroke="#FFA500" stroke-width="1.5" stroke-linecap="round" stroke-linejoin="round"/>
<path d="M16.7741 7.97334L17.5608 9.54667C17.6674 9.76 17.9474 9.97334 18.2008 10.0133L19.6274 10.2533C20.5341 10.4 20.7474 11.0667 20.0941 11.72L18.9874 12.8267C18.8008 13.0133 18.6941 13.3733 18.7608 13.64L19.0808 15.0133C19.3341 16.0933 18.7608 16.52 17.8008 15.9467L16.4674 15.16C16.2274 15.0133 15.8274 15.0133 15.5874 15.16L14.2541 15.9467C13.2941 16.5067 12.7208 16.0933 12.9741 15.0133L13.2941 13.64C13.3474 13.3867 13.2541 13.0133 13.0674 12.8267L11.9608 11.72C11.3074 11.0667 11.5208 10.4133 12.4274 10.2533L13.8541 10.0133C14.0941 9.97334 14.3741 9.76 14.4808 9.54667L15.2674 7.97334C15.6541 7.12001 16.3474 7.12001 16.7741 7.97334Z" stroke="#FFA500" stroke-width="1.5" stroke-linecap="round" stroke-linejoin="round"/>
</svg>
