<svg width="128" height="128" viewBox="0 0 128 128" fill="none" xmlns="http://www.w3.org/2000/svg">
<g clip-path="url(#clip0_138_1577)">
<path d="M132 119.906H12.0004C5.3833 119.906 0 114.523 0 107.907V35.9066C0 29.2896 5.3833 23.9062 12.0004 23.9062H132C138.617 23.9062 144 29.2896 144 35.9066V107.907C144 114.523 138.617 119.906 132 119.906ZM12.0004 28.7062C8.02991 28.7062 4.79993 31.9362 4.79993 35.9066V107.907C4.79993 111.876 8.02991 115.106 12.0004 115.106H132C135.97 115.106 139.2 111.876 139.2 107.907V35.9066C139.2 31.9362 135.97 28.7062 132 28.7062H12.0004Z" fill="#374957"/>
<path d="M38.4005 91.1061C33.1051 91.1061 28.7996 86.8005 28.7996 81.5062C28.7996 76.2119 33.1051 71.9064 38.4005 71.9064C43.6948 71.9064 48.0004 76.2119 48.0004 81.5062C48.0004 86.8005 43.6948 91.1061 38.4005 91.1061ZM38.4005 76.7063C35.7528 76.7063 33.5995 78.8585 33.5995 81.5062C33.5995 84.1528 35.7528 86.3061 38.4005 86.3061C41.0471 86.3061 43.2004 84.1528 43.2004 81.5062C43.2004 78.8585 41.0471 76.7063 38.4005 76.7063Z" fill="#FFA500"/>
<path d="M129.6 62.3065H76.7999C75.475 62.3065 74.4005 61.2332 74.4005 59.906C74.4005 58.5789 75.475 57.5055 76.7999 57.5055H129.6C130.925 57.5055 132 58.5789 132 59.906C132 61.2332 130.925 62.3065 129.6 62.3065Z" fill="#374957"/>
<path d="M129.6 76.7063H76.7999C75.475 76.7063 74.4005 75.6329 74.4005 74.3058C74.4005 72.9786 75.475 71.9064 76.7999 71.9064H129.6C130.925 71.9064 132 72.9786 132 74.3058C132 75.6329 130.925 76.7063 129.6 76.7063Z" fill="#374957"/>
<path d="M129.6 105.506H76.7999C75.475 105.506 74.4005 104.434 74.4005 103.107C74.4005 101.78 75.475 100.706 76.7999 100.706H129.6C130.925 100.706 132 101.78 132 103.107C132 104.434 130.925 105.506 129.6 105.506Z" fill="#374957"/>
<path d="M129.6 91.1063H76.7999C75.475 91.1063 74.4005 90.033 74.4005 88.7058C74.4005 87.3787 75.475 86.3064 76.7999 86.3064H129.6C130.925 86.3064 132 87.3787 132 88.7058C132 90.033 130.925 91.1063 129.6 91.1063Z" fill="#374957"/>
<path d="M64.7996 47.9059H55.1997C53.8748 47.9059 52.8003 46.8336 52.8003 45.5065V35.9066C52.8003 34.5795 53.8748 33.5061 55.1997 33.5061H64.7996C66.1245 33.5061 67.2001 34.5795 67.2001 35.9066V45.5065C67.2001 46.8336 66.1245 47.9059 64.7996 47.9059ZM57.6002 43.106H62.4001V38.306H57.6002V43.106Z" fill="#374957"/>
<path d="M21.6002 47.9059H12.0004C10.6754 47.9059 9.59985 46.8336 9.59985 45.5065V35.9066C9.59985 34.5795 10.6754 33.5061 12.0004 33.5061H21.6002C22.9252 33.5061 23.9996 34.5795 23.9996 35.9066V45.5065C23.9996 46.8336 22.9252 47.9059 21.6002 47.9059ZM14.3998 43.106H19.1997V38.306H14.3998V43.106Z" fill="#374957"/>
<path d="M59.9996 110.306H16.8003C12.8309 110.306 9.59985 107.076 9.59985 103.107V59.9062C9.59985 55.9369 12.8309 52.7058 16.8003 52.7058H32.8008C34.0488 52.7058 35.0881 53.6616 35.1936 54.9075L35.5946 59.7239C35.7144 61.1708 36.9481 62.3068 38.4005 62.3068C39.8518 62.3068 41.0856 61.1708 41.2053 59.7239L41.6063 54.9075C41.7118 53.6616 42.7511 52.7058 43.9991 52.7058H59.9996C63.9701 52.7058 67.2001 55.9369 67.2001 59.9062V103.107C67.2001 107.076 63.9701 110.306 59.9996 110.306ZM16.8003 57.5057C15.4753 57.5057 14.3998 58.5813 14.3998 59.9062V103.107C14.3998 104.431 15.4753 105.506 16.8003 105.506H59.9996C61.3246 105.506 62.4001 104.431 62.4001 103.107V59.9062C62.4001 58.5813 61.3246 57.5057 59.9996 57.5057H46.2074L45.9888 60.1227C45.6647 64.0393 42.3314 67.1067 38.4005 67.1067C34.4685 67.1067 31.1353 64.0393 30.809 60.1227L30.5925 57.5057H16.8003Z" fill="#374957"/>
<path d="M38.4007 67.1067C34.4687 67.1067 31.1355 64.0393 30.8092 60.1227L29.17 40.4615C29.0206 38.6785 29.6304 36.8998 30.8454 35.5825C32.0572 34.2598 33.7799 33.5061 35.5707 33.5061H41.2297C43.0205 33.5061 44.7431 34.2598 45.9549 35.5803C47.1678 36.8976 47.7776 38.6763 47.6304 40.4594L45.9912 60.1194C45.6649 64.0393 42.3316 67.1067 38.4007 67.1067ZM35.5707 38.306C34.951 38.306 34.5577 38.6345 34.3775 38.829C34.1974 39.0267 33.9029 39.4464 33.9557 40.0627L35.5948 59.7239C35.7146 61.1708 36.9483 62.3068 38.4007 62.3068C39.852 62.3068 41.0858 61.1708 41.2056 59.7239L42.8447 40.0627C42.8952 39.4464 42.603 39.0267 42.4228 38.829C42.2427 38.6345 41.8493 38.306 41.2297 38.306H35.5707Z" fill="#374957"/>
</g>
<defs>
<clipPath id="clip0_138_1577">
<rect width="144" height="144" fill="white"/>
</clipPath>
</defs>
</svg>
