<svg width="128" height="128" viewBox="0 0 128 128" fill="none" xmlns="http://www.w3.org/2000/svg">
<path d="M43.7361 88.3672H43.6628V79.2553C43.6628 74.4681 39.7685 70.5735 34.9817 70.5735H29.0942C24.307 70.5735 20.4124 74.4681 20.4124 79.2553V88.3672H20.3387C16.0369 88.3672 12.5369 91.8672 12.5369 96.1691V136.198C12.5369 140.5 16.0369 144 20.3387 144H43.7365C48.038 144 51.538 140.5 51.538 136.198V96.1691C51.5376 91.8672 48.038 88.3672 43.7361 88.3672ZM25.8694 79.2553C25.8694 77.477 27.3159 76.0305 29.0942 76.0305H34.982C36.76 76.0305 38.2061 77.477 38.2061 79.2553V88.3672H25.8694V79.2553ZM46.0806 136.198C46.0806 137.469 45.0069 138.543 43.7361 138.543H20.3387C19.0676 138.543 17.9939 137.469 17.9939 136.198V96.1691C17.9939 94.8761 19.0457 93.8242 20.3387 93.8242H43.7365C45.0073 93.8242 46.0809 94.8979 46.0809 96.1691L46.0806 136.198ZM109.281 14.2828V17.7841H128.734C130.241 17.7841 131.462 19.0058 131.462 20.5127C131.462 22.0195 130.241 23.2412 128.734 23.2412H106.552C105.045 23.2412 103.824 22.0195 103.824 20.5127V11.5543C103.824 10.0474 105.045 8.82574 106.552 8.82574H128.734C130.241 8.82574 131.462 10.0474 131.462 11.5543C131.462 13.0611 130.241 14.2828 128.734 14.2828H109.281ZM127.087 81.9484C127.604 82.5094 127.861 83.2611 127.799 84.021L123.064 141.496C122.947 142.911 121.765 144 120.344 144H92.1612C90.6544 144 89.4327 142.778 89.4327 141.271C89.4327 139.765 90.6544 138.543 92.1612 138.543H117.831L122.117 86.5254H92.1612C90.6544 86.5254 89.4327 85.3038 89.4327 83.7969C89.4327 82.2901 90.6544 81.0684 92.1612 81.0684H125.08C125.843 81.0684 126.57 81.3876 127.087 81.9484ZM94.9972 73.6202V7.14156C94.9972 3.20396 98.2011 0 102.139 0H128.734C130.241 0 131.463 1.22169 131.463 2.72852C131.463 4.23534 130.241 5.45704 128.734 5.45704H102.139C101.21 5.45704 100.455 6.21284 100.455 7.14156V73.6202C100.455 75.1271 99.2328 76.3487 97.726 76.3487C96.2192 76.3487 94.9972 75.1271 94.9972 73.6202ZM109.281 32.0673V35.5683H128.734C130.241 35.5683 131.462 36.79 131.462 38.2968C131.462 39.8036 130.241 41.0253 128.734 41.0253H106.552C105.045 41.0253 103.824 39.8036 103.824 38.2968V29.3387C103.824 27.8319 105.045 26.6102 106.552 26.6102H128.734C130.241 26.6102 131.462 27.8319 131.462 29.3387C131.462 30.8456 130.241 32.0673 128.734 32.0673H109.281ZM76.6032 44.394H72.0537V32.2358C72.0537 28.2525 69.7614 24.7944 66.4275 23.1112V13.6313C66.4275 12.1245 65.2058 10.9028 63.699 10.9028H60.8671V2.80253C60.8678 2.77831 60.8681 2.75308 60.8681 2.72852C60.8681 1.22169 59.6465 0 58.1396 0H32.4806C29.8534 0 27.716 2.13779 27.716 4.76502V10.3309C27.716 11.8377 28.9377 13.0594 30.4445 13.0594C31.9513 13.0594 33.173 11.8377 33.173 10.3309V5.45704H55.4097V10.9028H52.5789C51.0721 10.9028 49.8504 12.1245 49.8504 13.6313V23.1112C46.5161 24.7947 44.2242 28.2525 44.2242 32.2358V44.394H39.6744C35.3729 44.394 31.8732 47.8937 31.8732 52.1956V61.333C31.8732 62.8399 33.0949 64.0615 34.6017 64.0615C36.1085 64.0615 37.3302 62.8399 37.3302 61.333V52.1956C37.3302 50.9029 38.3817 49.8511 39.6744 49.8511H76.6025C77.8951 49.8511 78.947 50.9029 78.947 52.1956V136.198C78.947 137.491 77.8951 138.543 76.6025 138.543H57.8085C56.3016 138.543 55.0799 139.765 55.0799 141.271C55.0799 142.778 56.3016 144 57.8085 144H76.6025C80.904 144 84.404 140.5 84.404 136.198V52.1956C84.4047 47.8937 80.9047 44.394 76.6032 44.394ZM55.3078 16.3599H60.9705V22.0222H55.3078V16.3599ZM66.5967 44.394H49.6816V32.2358C49.6816 29.613 51.8153 27.4793 54.4381 27.4793H61.8405C64.4626 27.4793 66.5963 29.613 66.5963 32.2358L66.5967 44.394ZM131.462 47.1229C131.462 48.6297 130.241 49.8514 128.734 49.8514H109.281V73.6202C109.281 75.1271 108.059 76.3487 106.552 76.3487C105.045 76.3487 103.824 75.1271 103.824 73.6202V47.1229C103.824 45.6161 105.045 44.3944 106.552 44.3944H128.734C130.241 44.3944 131.462 45.6161 131.462 47.1229Z" fill="#374957"/>
</svg>
