<svg width="128" height="128" viewBox="0 0 128 128" fill="none" xmlns="http://www.w3.org/2000/svg">
<g clip-path="url(#clip0_138_1567)">
<path d="M8.45367 54.4776C8.87863 42.5168 12.9874 31.2452 20.4048 21.7628C21.1228 20.8451 22.4484 20.6834 23.3658 21.4012C24.2835 22.1189 24.4453 23.4447 23.7275 24.3622C16.9193 33.0657 13.1221 43.3991 12.6778 54.3673H16.8701C18.0128 28.8301 39.1431 8.40741 64.9545 8.40741C91.4955 8.40741 113.089 30.0026 113.089 56.5467V87.9964H117.276V56.5467C117.276 27.693 93.8046 4.21875 64.9545 4.21875C53.0653 4.21875 41.8521 8.1225 32.5284 15.5081C31.6149 16.2315 30.2885 16.0779 29.5651 15.1644C28.8418 14.2512 28.9959 12.9246 29.9088 12.2012C39.986 4.21903 52.1045 0 64.9545 0C96.1308 0 121.495 25.3668 121.495 56.5467V88.4596C125.089 89.6569 127.688 93.0507 127.688 97.0422V114.75C127.688 117.458 123.47 117.462 123.47 114.75V97.0422C123.47 94.7385 121.899 92.3313 119.685 92.3313C117.843 92.3313 112.218 92.2778 110.42 92.2778C108.082 92.2778 106.334 94.6328 106.334 97.0422V103.838C106.334 105.002 105.39 105.947 104.224 105.947H95.8552V119.384H104.224C105.39 119.384 106.334 120.328 106.334 121.493V131.241H123.47V126.844C123.47 124.135 127.689 124.131 127.689 126.844V131.329C132.925 131.997 136.986 136.477 136.986 141.891C136.986 143.056 136.042 144 134.877 144H94.9271C93.7619 144 92.8177 143.056 92.8177 141.891C92.8177 136.477 96.8795 131.996 102.116 131.329V123.602H93.7464H93.466H79.7359C78.5707 123.602 77.6265 122.658 77.6265 121.493V103.838V87.023C77.6265 84.3145 81.8453 84.3106 81.8453 87.023V101.728H93.466H93.7464H102.116V97.0422C102.116 92.8457 104.988 89.3078 108.87 88.2911V56.5467C108.87 32.3288 89.1699 12.6262 64.9548 12.6262C41.3793 12.6262 22.0867 31.3026 21.0838 54.6382C21.7261 54.9998 22.1607 55.6869 22.1607 56.4767V65.7248C22.1607 66.8897 21.2165 67.8341 20.0513 67.8341H9.12332C7.9581 67.8341 7.01394 66.8897 7.01394 65.7248V56.4767C7.01338 55.5457 7.61695 54.7574 8.45367 54.4776V54.4776ZM97.3914 139.781H132.412C131.537 137.268 129.144 135.459 126.336 135.459H103.468C100.66 135.459 98.2666 137.268 97.3914 139.781V139.781ZM81.845 119.384H91.3563V105.947H81.845V119.384ZM17.9416 63.6154V58.6561H11.2324V63.6154H17.9416Z" fill="#374957"/>
<path d="M12.7603 73.7868C13.5484 72.4222 15.6201 72.412 16.4138 73.7868L20.9197 81.5914C22.2416 83.8808 22.2416 86.6142 20.9197 88.9039C19.5981 91.1935 17.2305 92.5601 14.5868 92.5601C11.943 92.5601 9.57568 91.1932 8.2538 88.9039C6.93191 86.6145 6.93191 83.8811 8.2538 81.5914L12.7603 73.7868ZM11.9078 86.7945C12.467 87.7631 13.4688 88.3414 14.587 88.3414C15.7053 88.3414 16.7071 87.7631 17.2662 86.7945C17.8254 85.8259 17.8254 84.6694 17.2662 83.7008L14.587 79.0602L11.9078 83.7008C11.3487 84.6694 11.3487 85.8259 11.9078 86.7945Z" fill="#FFA500"/>
</g>
<defs>
<clipPath id="clip0_138_1567">
<rect width="144" height="144" fill="white" transform="matrix(-1 0 0 1 144 0)"/>
</clipPath>
</defs>
</svg>
