<svg width="32" height="32" viewBox="0 0 32 32" fill="none" xmlns="http://www.w3.org/2000/svg">
<path d="M29.3328 7.99999V11.2267C29.3328 13.3333 27.9994 14.6667 25.8927 14.6667H21.3328V5.34666C21.3328 3.86666 22.5461 2.66666 24.0261 2.66666C25.4795 2.67999 26.8128 3.26666 27.7728 4.22666C28.7328 5.19999 29.3328 6.53332 29.3328 7.99999Z" stroke="#FFA500" stroke-width="1.5" stroke-miterlimit="10" stroke-linecap="round" stroke-linejoin="round"/>
<path d="M2.66724 9.33332V28C2.66724 29.1067 3.92054 29.7333 4.80054 29.0667L7.08057 27.36C7.6139 26.96 8.36058 27.0133 8.84058 27.4933L11.0539 29.72C11.5739 30.24 12.4273 30.24 12.9473 29.72L15.1873 27.48C15.6539 27.0133 16.4006 26.96 16.9206 27.36L19.2006 29.0667C20.0806 29.72 21.3339 29.0933 21.3339 28V5.33332C21.3339 3.86666 22.5339 2.66666 24.0006 2.66666H9.3339H8.00057C4.00057 2.66666 2.66724 5.05332 2.66724 7.99999V9.33332Z" stroke="#FFA500" stroke-width="1.5" stroke-miterlimit="10" stroke-linecap="round" stroke-linejoin="round"/>
<path d="M8 12H16" stroke="#FFA500" stroke-width="1.5" stroke-linecap="round" stroke-linejoin="round"/>
<path d="M9 17.3333H15" stroke="#FFA500" stroke-width="1.5" stroke-linecap="round" stroke-linejoin="round"/>
</svg>
