<svg width="17" height="16" viewBox="0 0 17 16" fill="none" xmlns="http://www.w3.org/2000/svg">
<g clip-path="url(#clip0_712_9295)">
<path d="M9.16667 0.666667V2C9.16667 2.17681 9.09643 2.34638 8.97141 2.4714C8.84638 2.59643 8.67681 2.66667 8.5 2.66667C8.32319 2.66667 8.15362 2.59643 8.0286 2.4714C7.90357 2.34638 7.83333 2.17681 7.83333 2V0.666667C7.83333 0.489856 7.90357 0.320286 8.0286 0.195262C8.15362 0.0702379 8.32319 0 8.5 0C8.67681 0 8.84638 0.0702379 8.97141 0.195262C9.09643 0.320286 9.16667 0.489856 9.16667 0.666667ZM8.5 13.3333C8.32319 13.3333 8.15362 13.4036 8.0286 13.5286C7.90357 13.6536 7.83333 13.8232 7.83333 14V15.3333C7.83333 15.5101 7.90357 15.6797 8.0286 15.8047C8.15362 15.9298 8.32319 16 8.5 16C8.67681 16 8.84638 15.9298 8.97141 15.8047C9.09643 15.6797 9.16667 15.5101 9.16667 15.3333V14C9.16667 13.8232 9.09643 13.6536 8.97141 13.5286C8.84638 13.4036 8.67681 13.3333 8.5 13.3333ZM3.16667 8C3.16667 7.82319 3.09643 7.65362 2.9714 7.5286C2.84638 7.40357 2.67681 7.33333 2.5 7.33333H1.16667C0.989856 7.33333 0.820286 7.40357 0.695262 7.5286C0.570238 7.65362 0.5 7.82319 0.5 8C0.5 8.17681 0.570238 8.34638 0.695262 8.47141C0.820286 8.59643 0.989856 8.66667 1.16667 8.66667H2.5C2.67681 8.66667 2.84638 8.59643 2.9714 8.47141C3.09643 8.34638 3.16667 8.17681 3.16667 8ZM15.8333 7.33333H14.5C14.3232 7.33333 14.1536 7.40357 14.0286 7.5286C13.9036 7.65362 13.8333 7.82319 13.8333 8C13.8333 8.17681 13.9036 8.34638 14.0286 8.47141C14.1536 8.59643 14.3232 8.66667 14.5 8.66667H15.8333C16.0101 8.66667 16.1797 8.59643 16.3047 8.47141C16.4298 8.34638 16.5 8.17681 16.5 8C16.5 7.82319 16.4298 7.65362 16.3047 7.5286C16.1797 7.40357 16.0101 7.33333 15.8333 7.33333ZM12.512 1.07867C12.4362 1.03474 12.3526 1.00616 12.2657 0.994583C12.1789 0.983003 12.0907 0.988642 12.0061 1.01118C11.9214 1.03371 11.8421 1.0727 11.7725 1.12592C11.7029 1.17914 11.6446 1.24554 11.6007 1.32133L10.934 2.47533C10.8455 2.62837 10.8215 2.81028 10.8671 2.98105C10.9127 3.15182 11.0243 3.29748 11.1773 3.386C11.2785 3.44514 11.3935 3.47621 11.5107 3.476C11.6277 3.476 11.7426 3.44519 11.844 3.38668C11.9453 3.32817 12.0295 3.24401 12.088 3.14267L12.7547 1.98867C12.843 1.83577 12.867 1.65409 12.8215 1.48348C12.776 1.31288 12.6647 1.1673 12.512 1.07867ZM5.82467 12.614C5.67171 12.5255 5.48987 12.5013 5.3191 12.5468C5.14834 12.5923 5.00263 12.7038 4.914 12.8567L4.24733 14.0107C4.15882 14.1636 4.13466 14.3455 4.18016 14.5162C4.22567 14.687 4.33711 14.8327 4.49 14.9213C4.59114 14.9804 4.7062 15.0115 4.82333 15.0113C4.94047 15.0114 5.05557 14.9807 5.15704 14.9222C5.25851 14.8637 5.34277 14.7794 5.40133 14.678L6.068 13.524C6.15625 13.371 6.18019 13.1893 6.13456 13.0187C6.08894 12.8481 5.97749 12.7025 5.82467 12.614ZM3.64333 4.414L2.48933 3.74733C2.3367 3.6652 2.15808 3.64573 1.99134 3.69307C1.8246 3.74041 1.68285 3.85082 1.59615 4.00091C1.50944 4.15099 1.4846 4.32894 1.52689 4.49704C1.56918 4.66513 1.67527 4.81014 1.82267 4.90133L2.97667 5.568C3.1293 5.65014 3.30792 5.6696 3.47466 5.62226C3.6414 5.57493 3.78315 5.46451 3.86985 5.31443C3.95656 5.16434 3.9814 4.98639 3.93911 4.8183C3.89682 4.65021 3.79073 4.50519 3.64333 4.414ZM15.1767 11.1007L14.0227 10.434C13.87 10.3519 13.6914 10.3324 13.5247 10.3797C13.3579 10.4271 13.2162 10.5375 13.1295 10.6876C13.0428 10.8377 13.0179 11.0156 13.0602 11.1837C13.1025 11.3518 13.2086 11.4968 13.356 11.588L14.51 12.2547C14.6111 12.3138 14.7262 12.3449 14.8433 12.3447C14.9901 12.3447 15.1327 12.2962 15.2492 12.2069C15.3656 12.1176 15.4493 11.9923 15.4873 11.8505C15.5252 11.7088 15.5154 11.5585 15.4592 11.4229C15.4031 11.2873 15.3038 11.174 15.1767 11.1007ZM5.39933 1.32133C5.30814 1.17393 5.16313 1.06784 4.99504 1.02556C4.82694 0.983269 4.64899 1.00811 4.49891 1.09482C4.34882 1.18152 4.23841 1.32327 4.19107 1.49001C4.14373 1.65675 4.1632 1.83537 4.24533 1.988L4.912 3.142C4.97051 3.24334 5.05467 3.3275 5.15601 3.38601C5.25735 3.44453 5.37231 3.47533 5.48933 3.47533C5.60647 3.47554 5.72155 3.44447 5.82267 3.38533C5.97567 3.29681 6.08725 3.15115 6.13288 2.98038C6.17851 2.80961 6.15446 2.62771 6.066 2.47467L5.39933 1.32133ZM12.086 12.8547C11.9948 12.7073 11.8498 12.6012 11.6817 12.5589C11.5136 12.5166 11.3357 12.5414 11.1856 12.6281C11.0355 12.7149 10.9251 12.8566 10.8777 13.0233C10.8304 13.1901 10.8499 13.3687 10.932 13.5213L11.5987 14.6753C11.6899 14.8227 11.8349 14.9288 12.003 14.9711C12.1711 15.0134 12.349 14.9886 12.4991 14.9019C12.6492 14.8151 12.7596 14.6734 12.8069 14.5067C12.8543 14.3399 12.8348 14.1613 12.7527 14.0087L12.086 12.8547ZM13.6913 5.65467C13.8084 5.65466 13.9233 5.62385 14.0247 5.56533L15.1787 4.89867C15.3261 4.80748 15.4322 4.66246 15.4744 4.49437C15.5167 4.32628 15.4919 4.14832 15.4052 3.99824C15.3185 3.84816 15.1767 3.73774 15.01 3.6904C14.8433 3.64307 14.6646 3.66253 14.512 3.74467L13.358 4.41133C13.2312 4.48486 13.1322 4.59811 13.0763 4.73355C13.0204 4.869 13.0106 5.0191 13.0486 5.16064C13.0865 5.30218 13.1701 5.42727 13.2862 5.51657C13.4024 5.60587 13.5448 5.65441 13.6913 5.65467ZM2.97533 10.432L1.82133 11.0987C1.69425 11.172 1.59492 11.2853 1.53877 11.4209C1.48261 11.5565 1.47276 11.7068 1.51075 11.8485C1.54873 11.9903 1.63242 12.1156 1.74884 12.2049C1.86527 12.2942 2.00792 12.3427 2.15467 12.3427C2.27181 12.3429 2.38688 12.3118 2.488 12.2527L3.642 11.586C3.7894 11.4948 3.89549 11.3498 3.93778 11.1817C3.98006 11.0136 3.95522 10.8357 3.86852 10.6856C3.78181 10.5355 3.64007 10.4251 3.47333 10.3777C3.30659 10.3304 3.12796 10.3499 2.97533 10.432Z" fill="#374957"/>
</g>
<defs>
<clipPath id="clip0_712_9295">
<rect width="16" height="16" fill="white" transform="translate(0.5)"/>
</clipPath>
</defs>
</svg>
