<svg width="8" height="8" viewBox="0 0 8 8" fill="none" xmlns="http://www.w3.org/2000/svg">
<g clip-path="url(#clip0_279_4757)">
<path d="M-0.000375762 2.33331C-0.000629438 2.28944 0.00777863 2.24596 0.0243668 2.20534C0.0409551 2.16473 0.0653973 2.12779 0.0962911 2.09665C0.127278 2.0654 0.164145 2.04061 0.204765 2.02368C0.245385 2.00676 0.288953 1.99805 0.332957 1.99805C0.376961 1.99805 0.420529 2.00676 0.461149 2.02368C0.501769 2.04061 0.538635 2.0654 0.569623 2.09665L3.29295 4.81998C3.48045 5.00725 3.73462 5.11243 3.99962 5.11243C4.26462 5.11243 4.51878 5.00725 4.70628 4.81998L7.42961 2.09665C7.49238 2.03388 7.57751 1.99862 7.66628 1.99862C7.75505 1.99862 7.84018 2.03388 7.90295 2.09665C7.96571 2.15941 8.00098 2.24455 8.00098 2.33331C8.00098 2.42208 7.96571 2.50721 7.90295 2.56998L5.17962 5.29331C5.0248 5.44852 4.84088 5.57167 4.6384 5.65569C4.43591 5.73971 4.21884 5.78296 3.99962 5.78296C3.78039 5.78296 3.56332 5.73971 3.36084 5.65569C3.15836 5.57167 2.97444 5.44852 2.81962 5.29331L0.096291 2.56998C0.0653972 2.53883 0.040955 2.50189 0.0243668 2.46128C0.00777863 2.42067 -0.000629442 2.37718 -0.000375762 2.33331Z" fill="#374957"/>
</g>
<defs>
<clipPath id="clip0_279_4757">
<rect width="8" height="8" fill="white" transform="translate(8) rotate(90)"/>
</clipPath>
</defs>
</svg>
