<svg width="40" height="40" viewBox="0 0 40 40" fill="none" xmlns="http://www.w3.org/2000/svg">
<path d="M25.0007 3.33334V20C25.0007 21.8333 23.5007 23.3333 21.6673 23.3333H3.33398V12.7C4.55065 14.15 6.41736 15.05 8.48403 15C10.1674 14.9667 11.684 14.3167 12.8173 13.2333C13.334 12.8 13.7674 12.25 14.1007 11.65C14.7007 10.6333 15.034 9.4333 15.0007 8.1833C14.9507 6.2333 14.084 4.51668 12.734 3.33334H25.0007Z" stroke="white" stroke-width="1.5" stroke-linecap="round" stroke-linejoin="round"/>
<path d="M36.6673 23.3333V28.3333C36.6673 31.1 34.434 33.3333 31.6673 33.3333H30.0007C30.0007 31.5 28.5007 30 26.6673 30C24.834 30 23.334 31.5 23.334 33.3333H16.6673C16.6673 31.5 15.1673 30 13.334 30C11.5007 30 10.0007 31.5 10.0007 33.3333H8.33398C5.56732 33.3333 3.33398 31.1 3.33398 28.3333V23.3333H21.6673C23.5007 23.3333 25.0007 21.8333 25.0007 20V8.33334H28.0674C29.2674 8.33334 30.3673 8.98336 30.9673 10.0167L33.8173 15H31.6673C30.7507 15 30.0007 15.75 30.0007 16.6667V21.6667C30.0007 22.5833 30.7507 23.3333 31.6673 23.3333H36.6673Z" stroke="white" stroke-width="1.5" stroke-linecap="round" stroke-linejoin="round"/>
<path d="M13.3333 36.6667C15.1743 36.6667 16.6667 35.1743 16.6667 33.3333C16.6667 31.4924 15.1743 30 13.3333 30C11.4924 30 10 31.4924 10 33.3333C10 35.1743 11.4924 36.6667 13.3333 36.6667Z" stroke="white" stroke-width="1.5" stroke-linecap="round" stroke-linejoin="round"/>
<path d="M26.6673 36.6667C28.5083 36.6667 30.0007 35.1743 30.0007 33.3333C30.0007 31.4924 28.5083 30 26.6673 30C24.8264 30 23.334 31.4924 23.334 33.3333C23.334 35.1743 24.8264 36.6667 26.6673 36.6667Z" stroke="white" stroke-width="1.5" stroke-linecap="round" stroke-linejoin="round"/>
<path d="M36.6667 20V23.3333H31.6667C30.75 23.3333 30 22.5833 30 21.6667V16.6667C30 15.75 30.75 15 31.6667 15H33.8166L36.6667 20Z" stroke="white" stroke-width="1.5" stroke-linecap="round" stroke-linejoin="round"/>
<path d="M14.9993 8.33332C14.9993 10.3333 14.116 12.1167 12.7327 13.3333C11.5494 14.3667 10.016 15 8.33268 15C4.64935 15 1.66602 12.0167 1.66602 8.33332C1.66602 6.23332 2.63268 4.35 4.16602 3.13333C5.31602 2.21666 6.76602 1.66666 8.33268 1.66666C12.016 1.66666 14.9993 4.64999 14.9993 8.33332Z" stroke="white" stroke-width="1.5" stroke-miterlimit="10" stroke-linecap="round" stroke-linejoin="round"/>
<path d="M8.74935 6.25V8.75L6.66602 10" stroke="white" stroke-width="1.5" stroke-miterlimit="10" stroke-linecap="round" stroke-linejoin="round"/>
</svg>
