<svg width="10" height="10" viewBox="0 0 10 10" fill="none" xmlns="http://www.w3.org/2000/svg">
<path d="M7.49984 5.00001C7.49781 4.7808 7.40949 4.57121 7.254 4.41667L5.4665 2.62501C5.38844 2.5474 5.28283 2.50385 5.17275 2.50385C5.06268 2.50385 4.95707 2.5474 4.879 2.62501C4.83995 2.66374 4.80895 2.70983 4.7878 2.7606C4.76665 2.81138 4.75575 2.86584 4.75575 2.92084C4.75575 2.97585 4.76665 3.03031 4.7878 3.08108C4.80895 3.13186 4.83995 3.17794 4.879 3.21667L6.24984 4.58334H2.08317C1.97266 4.58334 1.86668 4.62724 1.78854 4.70538C1.7104 4.78352 1.6665 4.8895 1.6665 5.00001C1.6665 5.11051 1.7104 5.21649 1.78854 5.29463C1.86668 5.37277 1.97266 5.41667 2.08317 5.41667H6.24984L4.879 6.7875C4.80054 6.86541 4.75625 6.9713 4.75586 7.08186C4.75547 7.19243 4.79901 7.29863 4.87692 7.37709C4.95483 7.45555 5.06071 7.49985 5.17128 7.50024C5.28185 7.50063 5.38804 7.45708 5.4665 7.37917L7.254 5.58751C7.4105 5.43194 7.49891 5.22066 7.49984 5.00001Z" fill="#374957"/>
</svg>
