<svg width="16" height="16" viewBox="0 0 16 16" fill="none" xmlns="http://www.w3.org/2000/svg">
<g clip-path="url(#clip0_447_7572)">
<path d="M16 6.48249V12.6665C15.9989 13.5502 15.6474 14.3975 15.0225 15.0223C14.3976 15.6472 13.5504 15.9988 12.6667 15.9998H12C11.8232 15.9998 11.6536 15.9296 11.5286 15.8046C11.4036 15.6795 11.3333 15.51 11.3333 15.3332C11.3333 15.1563 11.4036 14.9868 11.5286 14.8618C11.6536 14.7367 11.8232 14.6665 12 14.6665H12.6667C13.1971 14.6665 13.7058 14.4558 14.0809 14.0807C14.456 13.7056 14.6667 13.1969 14.6667 12.6665V6.48249C14.6667 6.1551 14.5863 5.83272 14.4327 5.54363C14.279 5.25455 14.0567 5.00761 13.7853 4.82449L9.11867 1.67583C8.78892 1.45103 8.39909 1.33079 8 1.33079C7.60092 1.33079 7.21109 1.45103 6.88134 1.67583L2.21467 4.82449C1.94328 5.00761 1.721 5.25455 1.56733 5.54363C1.41367 5.83272 1.33332 6.1551 1.33334 6.48249V12.6665C1.33334 13.1969 1.54405 13.7056 1.91912 14.0807C2.2942 14.4558 2.8029 14.6665 3.33334 14.6665H4C4.17681 14.6665 4.34638 14.7367 4.47141 14.8618C4.59643 14.9868 4.66667 15.1563 4.66667 15.3332C4.66667 15.51 4.59643 15.6795 4.47141 15.8046C4.34638 15.9296 4.17681 15.9998 4 15.9998H3.33334C2.44961 15.9988 1.60237 15.6472 0.977483 15.0223C0.352591 14.3975 0.00106118 13.5502 2.61138e-06 12.6665V6.48249C-0.000680639 5.93697 0.132722 5.39964 0.388472 4.91779C0.644222 4.43593 1.01448 4.02431 1.46667 3.71916L6.13334 0.569825C6.68351 0.196461 7.3331 -0.00314331 7.998 -0.00314331C8.6629 -0.00314331 9.3125 0.196461 9.86267 0.569825L14.5293 3.71916C14.982 4.02415 15.3528 4.43563 15.6092 4.91745C15.8656 5.39927 15.9998 5.93669 16 6.48249ZM12.6667 10.0045C12.6684 10.6175 12.5485 11.2247 12.3139 11.7911C12.0793 12.3574 11.7347 12.8716 11.3 13.3038L8.95667 15.5958C8.70014 15.8442 8.35707 15.9831 8 15.9831C7.64294 15.9831 7.29987 15.8442 7.04334 15.5958L4.70534 13.3092C4.1616 12.7671 3.76 12.0993 3.53613 11.3649C3.31226 10.6305 3.27304 9.85222 3.42196 9.09904C3.57087 8.34586 3.90331 7.64105 4.38981 7.0471C4.8763 6.45315 5.50183 5.98841 6.21093 5.69407C6.92002 5.39973 7.69079 5.28489 8.45489 5.35973C9.219 5.43457 9.95283 5.69677 10.5913 6.1231C11.2299 6.54943 11.7533 7.12671 12.1153 7.80376C12.4774 8.48082 12.6667 9.23673 12.6667 10.0045ZM11.3333 10.0045C11.3333 9.45634 11.1982 8.91664 10.9398 8.43321C10.6814 7.94977 10.3078 7.53752 9.85202 7.23296C9.39626 6.9284 8.87243 6.74094 8.32692 6.68718C7.78141 6.63342 7.23106 6.71502 6.72462 6.92476C6.21817 7.13449 5.77127 7.46588 5.42349 7.88958C5.07571 8.31328 4.83778 8.8162 4.73079 9.35381C4.62379 9.89142 4.65103 10.4471 4.81009 10.9717C4.96915 11.4963 5.25512 11.9735 5.64267 12.3612L7.976 14.6425L10.3627 12.3558C10.6717 12.0474 10.9167 11.6809 11.0833 11.2773C11.2499 10.8737 11.3349 10.4411 11.3333 10.0045ZM10 9.99983C10 10.3954 9.88271 10.7821 9.66294 11.111C9.44318 11.4399 9.13082 11.6962 8.76537 11.8476C8.39992 11.999 7.99779 12.0386 7.60982 11.9614C7.22186 11.8842 6.86549 11.6937 6.58579 11.414C6.30608 11.1343 6.1156 10.778 6.03843 10.39C5.96126 10.002 6.00087 9.59991 6.15224 9.23446C6.30362 8.86901 6.55996 8.55665 6.88886 8.33689C7.21776 8.11712 7.60444 7.99983 8 7.99983C8.53044 7.99983 9.03914 8.21054 9.41422 8.58561C9.78929 8.96068 10 9.46939 10 9.99983Z" fill="#374957"/>
</g>
<defs>
<clipPath id="clip0_447_7572">
<rect width="16" height="16" fill="white"/>
</clipPath>
</defs>
</svg>
