<svg width="16" height="16" viewBox="0 0 16 16" fill="none" xmlns="http://www.w3.org/2000/svg">
<g clip-path="url(#clip0_447_7576)">
<path d="M12.6667 3.33291H11.2667C11.1119 2.58052 10.7025 1.90448 10.1075 1.41872C9.51245 0.932971 8.76814 0.667214 8 0.666245H3.33333C2.4496 0.667303 1.60237 1.01883 0.97748 1.64372C0.352588 2.26862 0.00105857 3.11585 0 3.99958L0 9.99958C0.00167587 10.5967 0.203692 11.1759 0.573691 11.6445C0.94369 12.1132 1.46026 12.4441 2.04067 12.5842C1.97784 12.9179 1.98858 13.2612 2.07213 13.5903C2.15568 13.9193 2.31002 14.2262 2.5244 14.4894C2.73877 14.7527 3.00801 14.966 3.31332 15.1144C3.61864 15.2629 3.95267 15.3429 4.29211 15.349C4.63156 15.355 4.96823 15.287 5.27864 15.1495C5.58905 15.012 5.86572 14.8084 6.08934 14.553C6.31296 14.2975 6.47815 13.9964 6.57337 13.6705C6.66859 13.3446 6.69156 13.0019 6.64067 12.6662H9.362C9.34485 12.7766 9.33571 12.888 9.33467 12.9996C9.33467 13.6184 9.5805 14.2119 10.0181 14.6495C10.4557 15.0871 11.0492 15.3329 11.668 15.3329C12.2868 15.3329 12.8803 15.0871 13.3179 14.6495C13.7555 14.2119 14.0013 13.6184 14.0013 12.9996C14.0006 12.8602 13.987 12.7211 13.9607 12.5842C14.5408 12.4438 15.0571 12.1128 15.4268 11.6442C15.7966 11.1756 15.9984 10.5965 16 9.99958V6.66625C15.9989 5.78252 15.6474 4.93528 15.0225 4.31039C14.3976 3.6855 13.5504 3.33397 12.6667 3.33291ZM14.6667 6.66625V7.33291H11.3333V4.66624H12.6667C13.1971 4.66624 13.7058 4.87696 14.0809 5.25203C14.456 5.6271 14.6667 6.13581 14.6667 6.66625ZM1.33333 9.99958V3.99958C1.33333 3.46915 1.54405 2.96044 1.91912 2.58536C2.29419 2.21029 2.8029 1.99958 3.33333 1.99958H8C8.53043 1.99958 9.03914 2.21029 9.41421 2.58536C9.78929 2.96044 10 3.46915 10 3.99958V11.3329H2.66667C2.31304 11.3329 1.97391 11.1924 1.72386 10.9424C1.47381 10.6923 1.33333 10.3532 1.33333 9.99958ZM5.33333 12.9996C5.33333 13.2648 5.22798 13.5191 5.04044 13.7067C4.8529 13.8942 4.59855 13.9996 4.33333 13.9996C4.06812 13.9996 3.81376 13.8942 3.62623 13.7067C3.43869 13.5191 3.33333 13.2648 3.33333 12.9996C3.33374 12.8856 3.35475 12.7727 3.39533 12.6662H5.27133C5.31192 12.7727 5.33292 12.8856 5.33333 12.9996ZM11.6667 13.9996C11.4015 13.9996 11.1471 13.8942 10.9596 13.7067C10.772 13.5191 10.6667 13.2648 10.6667 12.9996C10.667 12.8856 10.688 12.7727 10.7287 12.6662H12.6047C12.6454 12.7727 12.6664 12.8856 12.6667 12.9996C12.6667 13.2648 12.5613 13.5191 12.3738 13.7067C12.1862 13.8942 11.9319 13.9996 11.6667 13.9996ZM13.3333 11.3329H11.3333V8.66625H14.6667V9.99958C14.6667 10.3532 14.5262 10.6923 14.2761 10.9424C14.0261 11.1924 13.687 11.3329 13.3333 11.3329Z" fill="#374957"/>
</g>
<defs>
<clipPath id="clip0_447_7576">
<rect width="16" height="16" fill="white"/>
</clipPath>
</defs>
</svg>
